<svg width="67" height="67" viewBox="0 0 67 67" fill="none" xmlns="http://www.w3.org/2000/svg">
<circle cx="33.2921" cy="33.5421" r="33.2921" fill="#E6E7E8"/>
<path d="M29.375 31.4792C27.285 31.4792 25.5938 29.7367 25.5938 27.5833C25.5938 25.43 27.285 23.6875 29.375 23.6875C31.465 23.6875 33.1563 25.43 33.1563 27.5833C33.1563 29.7367 31.465 31.4792 29.375 31.4792ZM29.375 25.8125C28.9192 25.8125 28.482 25.9991 28.1597 26.3312C27.8373 26.6633 27.6563 27.1137 27.6563 27.5833C27.6563 28.053 27.8373 28.5034 28.1597 28.8355C28.482 29.1676 28.9192 29.3542 29.375 29.3542C29.8308 29.3542 30.268 29.1676 30.5903 28.8355C30.9127 28.5034 31.0938 28.053 31.0938 27.5833C31.0938 27.1137 30.9127 26.6633 30.5903 26.3312C30.268 25.9991 29.8308 25.8125 29.375 25.8125Z" fill="#004077"/>
<path d="M37.625 48.4792H29.375C21.9088 48.4792 18.7188 45.1925 18.7188 37.5V29C18.7188 21.3075 21.9088 18.0208 29.375 18.0208H34.875C35.4388 18.0208 35.9063 18.5025 35.9063 19.0833C35.9063 19.6642 35.4388 20.1458 34.875 20.1458H29.375C23.0363 20.1458 20.7813 22.4692 20.7813 29V37.5C20.7813 44.0308 23.0363 46.3542 29.375 46.3542H37.625C43.9638 46.3542 46.2188 44.0308 46.2188 37.5V30.4167C46.2188 29.8358 46.6863 29.3542 47.25 29.3542C47.8138 29.3542 48.2813 29.8358 48.2813 30.4167V37.5C48.2813 45.1925 45.0913 48.4792 37.625 48.4792Z" fill="#004077"/>
<path d="M41.75 28.6458C41.1863 28.6458 40.7188 28.1642 40.7188 27.5833V19.0833C40.7188 18.6583 40.9662 18.2617 41.3512 18.1058C41.7362 17.95 42.1763 18.035 42.4788 18.3325L45.2288 21.1658C45.6275 21.5767 45.6275 22.2567 45.2288 22.6675C44.83 23.0783 44.17 23.0783 43.7712 22.6675L42.7812 21.6475V27.5833C42.7812 28.1642 42.3138 28.6458 41.75 28.6458Z" fill="#004077"/>
<path d="M38.9997 22.9792C38.7384 22.9792 38.4772 22.88 38.2709 22.6675C38.0792 22.4676 37.9716 22.1978 37.9716 21.9167C37.9716 21.6356 38.0792 21.3658 38.2709 21.1658L41.0209 18.3325C41.4197 17.9217 42.0797 17.9217 42.4784 18.3325C42.8772 18.7433 42.8772 19.4233 42.4784 19.8342L39.7284 22.6675C39.5222 22.88 39.2609 22.9792 38.9997 22.9792ZM20.6709 44.1583C20.4512 44.1568 20.2376 44.083 20.0613 43.9477C19.8851 43.8125 19.7553 43.6228 19.6909 43.4063C19.6264 43.1898 19.6307 42.9577 19.7032 42.7439C19.7756 42.5301 19.9123 42.3457 20.0934 42.2175L26.8722 37.5283C28.3572 36.5083 30.4059 36.6217 31.7534 37.7975L32.2072 38.2083C32.8947 38.8175 34.0634 38.8175 34.7372 38.2083L40.4572 33.1508C41.9147 31.8617 44.2109 31.8617 45.6822 33.1508L47.9234 35.1342C48.3497 35.5167 48.4047 36.1825 48.0334 36.6358C47.6622 37.075 47.0022 37.1317 46.5759 36.7492L44.3347 34.7658C43.6472 34.1567 42.4922 34.1567 41.8047 34.7658L36.0847 39.8233C34.6272 41.1125 32.3309 41.1125 30.8597 39.8233L30.4059 39.4125C29.7734 38.86 28.7284 38.8033 28.0272 39.2992L21.2622 43.9883C21.0697 44.1017 20.8634 44.1583 20.6709 44.1583Z" fill="#004077"/>
</svg>
