<svg width="194" height="193" viewBox="0 0 194 193" fill="none" xmlns="http://www.w3.org/2000/svg">
<g clip-path="url(#clip0_414_12503)">
<path d="M97.1875 19.707C81.9187 19.707 66.9929 24.2113 54.2974 32.6502C41.602 41.0891 31.707 53.0836 25.864 67.1169C20.0209 81.1503 18.4921 96.5922 21.4708 111.49C24.4496 126.388 31.8022 140.072 42.5988 150.813C53.3954 161.554 67.1512 168.868 82.1265 171.831C97.1018 174.795 112.624 173.274 126.731 167.461C140.837 161.648 152.894 151.805 161.377 139.175C169.86 126.545 174.387 111.697 174.387 96.507C174.364 76.1457 166.222 56.6251 151.75 42.2274C137.277 27.8298 117.655 19.7307 97.1875 19.707ZM97.1875 166.907C83.1911 166.907 69.5091 162.778 57.8716 155.043C46.2341 147.307 37.1637 136.312 31.8076 123.448C26.4514 110.584 25.05 96.4289 27.7806 82.7727C30.5111 69.1164 37.251 56.5723 47.1479 46.7267C57.0448 36.8811 69.6542 30.1761 83.3816 27.4597C97.109 24.7433 111.338 26.1375 124.269 31.4659C137.2 36.7943 148.252 45.8177 156.028 57.3949C163.804 68.9721 167.954 82.5832 167.954 96.507C167.933 115.172 160.47 133.066 147.204 146.264C133.937 159.462 115.949 166.886 97.1875 166.907Z" fill="#CBF396"/>
<path d="M97.1874 67.707C91.4617 67.707 85.8645 69.3961 81.1037 72.5607C76.3429 75.7253 72.6323 80.2232 70.4411 85.4857C68.25 90.7483 67.6767 96.539 68.7937 102.126C69.9107 107.712 72.668 112.844 76.7167 116.872C80.7654 120.899 85.9238 123.642 91.5396 124.754C97.1553 125.865 102.976 125.295 108.266 123.115C113.556 120.935 118.077 117.244 121.258 112.507C124.44 107.771 126.137 102.203 126.137 96.507C126.129 88.8714 123.076 81.5509 117.649 76.1517C112.221 70.7525 104.863 67.7155 97.1874 67.707ZM97.1874 118.907C92.7341 118.907 88.3807 117.593 84.6779 115.132C80.975 112.671 78.089 109.172 76.3848 105.079C74.6805 100.986 74.2346 96.4822 75.1034 92.137C75.9722 87.7918 78.1167 83.8005 81.2658 80.6678C84.4148 77.5351 88.4269 75.4017 92.7947 74.5374C97.1625 73.6731 101.69 74.1167 105.804 75.8121C109.919 77.5075 113.435 80.3786 115.909 84.0623C118.384 87.7459 119.704 92.0767 119.704 96.507C119.696 102.446 117.322 108.139 113.101 112.338C108.88 116.537 103.157 118.899 97.1874 118.907Z" fill="#CBF396"/>
<path d="M97.1875 80.5068C94.0065 80.5068 90.8969 81.4452 88.252 83.2033C85.6072 84.9614 83.5457 87.4603 82.3284 90.3839C81.1111 93.3075 80.7926 96.5246 81.4132 99.6283C82.0337 102.732 83.5655 105.583 85.8148 107.821C88.0641 110.058 90.9299 111.582 94.0498 112.199C97.1696 112.817 100.403 112.5 103.342 111.289C106.281 110.078 108.793 108.027 110.56 105.396C112.328 102.765 113.271 99.6713 113.271 96.5068C113.266 92.2649 111.57 88.1982 108.554 85.1987C105.539 82.1993 101.451 80.5119 97.1875 80.5068ZM97.1875 106.107C95.2789 106.107 93.4132 105.544 91.8262 104.489C90.2393 103.434 89.0024 101.935 88.272 100.181C87.5416 98.4264 87.3505 96.4962 87.7229 94.634C88.0952 92.7717 89.0143 91.0612 90.3639 89.7186C91.7135 88.376 93.4329 87.4617 95.3048 87.0913C97.1768 86.7209 99.1171 86.911 100.88 87.6376C102.644 88.3642 104.151 89.5947 105.211 91.1734C106.272 92.7521 106.837 94.6081 106.837 96.5068C106.837 99.0529 105.821 101.495 104.011 103.295C102.201 105.095 99.7468 106.107 97.1875 106.107Z" fill="#CBF396"/>
<path d="M186.762 87.339C186.431 84.1091 185.926 80.8992 185.25 77.723C186.952 76.5656 188.235 74.8951 188.91 72.9577C189.585 71.0203 189.617 68.9183 189.001 66.9614C188.385 65.0045 187.154 63.2961 185.488 62.088C183.823 60.8799 181.811 60.236 179.75 60.251H179.553C178.23 57.2783 176.746 54.3791 175.108 51.5662C176.127 50.2459 176.783 48.6848 177.012 47.0361C177.241 45.3873 177.036 43.7077 176.416 42.1618C175.795 40.616 174.782 39.2572 173.474 38.2187C172.167 37.1802 170.61 36.4977 168.958 36.2382C167.366 35.9809 165.734 36.1363 164.22 36.6894C162.049 34.2857 159.752 31.9977 157.339 29.835C158.041 27.8873 158.09 25.7659 157.478 23.7884C156.867 21.8109 155.627 20.0837 153.946 18.8654C152.265 17.6472 150.233 17.0034 148.153 17.0305C146.074 17.0576 144.059 17.7541 142.411 19.0158C139.581 17.3841 136.664 15.9057 133.674 14.587C133.733 12.5191 133.117 10.488 131.919 8.79745C130.72 7.10695 129.003 5.84808 127.026 5.20928C125.048 4.57048 122.915 4.58612 120.947 5.25385C118.979 5.92158 117.281 7.20548 116.108 8.91337C112.921 8.23904 109.699 7.73591 106.458 7.40617C105.874 5.41824 104.658 3.67217 102.993 2.4299C101.327 1.18762 99.3014 0.516113 97.2196 0.516113C95.1379 0.516113 93.1122 1.18762 91.4465 2.4299C89.7809 3.67217 88.565 5.41824 87.9814 7.40617C84.7347 7.73583 81.5081 8.23788 78.3153 8.91017C77.1421 7.20255 75.4446 5.91879 73.4768 5.25102C71.509 4.58324 69.3767 4.56735 67.3991 5.20573C65.4215 5.84411 63.7049 7.10243 62.5061 8.79238C61.3073 10.4823 60.6909 12.513 60.7491 14.5806C57.7637 15.897 54.8516 17.3722 52.0255 18.9998C50.6983 17.9863 49.1291 17.3335 47.4718 17.1055C45.8144 16.8775 44.126 17.082 42.5722 17.699C41.0183 18.3161 39.6524 19.3244 38.6085 20.6251C37.5645 21.9258 36.8785 23.4741 36.6176 25.1182C36.3602 26.7021 36.5164 28.3252 37.0712 29.8318C34.6508 31.9877 32.3466 34.2693 30.1682 36.667C28.2104 35.9688 26.078 35.9203 24.0902 36.5287C22.1024 37.1372 20.3662 38.3698 19.1416 40.0421C17.9169 41.7144 17.2698 43.7364 17.297 45.8052C17.3243 47.874 18.0244 49.8784 19.2927 51.5182C17.6525 54.3334 16.1664 57.2347 14.8408 60.2094C12.7622 60.1508 10.7204 60.7635 9.02113 61.9558C7.32182 63.1481 6.0564 64.8558 5.41427 66.8234C4.77214 68.7909 4.78786 70.9125 5.45907 72.8704C6.13028 74.8283 7.42087 76.5173 9.13765 77.6846C8.45981 80.8552 7.95406 84.0598 7.6226 87.2846C5.62432 87.8652 3.86915 89.0748 2.62041 90.7318C1.37166 92.3888 0.696655 94.404 0.696655 96.475C0.696655 98.546 1.37166 100.561 2.62041 102.218C3.86915 103.875 5.62432 105.085 7.6226 105.665C7.95455 108.89 8.45921 112.094 9.13443 115.265C7.42158 116.44 6.1351 118.134 5.46586 120.093C4.79661 122.053 4.78024 124.176 5.41918 126.145C6.05366 128.114 7.31633 129.822 9.01554 131.012C10.7147 132.202 12.7577 132.808 14.8344 132.737C16.1576 135.707 17.6405 138.604 19.2766 141.416C18.2579 142.736 17.6017 144.297 17.3724 145.946C17.1432 147.595 17.3488 149.274 17.9691 150.82C18.5893 152.366 19.6029 153.725 20.9104 154.763C22.2178 155.802 23.7742 156.484 25.4269 156.744C27.0188 157.005 28.6517 156.849 30.165 156.293C32.3316 158.707 34.6251 161.006 37.0358 163.179C36.334 165.127 36.2852 167.248 36.8968 169.226C37.5085 171.203 38.7475 172.93 40.4285 174.148C42.1095 175.367 44.142 176.011 46.2216 175.983C48.3012 175.956 50.316 175.26 51.9644 173.998C54.7943 175.63 57.7107 177.108 60.7008 178.427C60.6419 180.495 61.2578 182.526 62.4563 184.216C63.6548 185.907 65.3715 187.166 67.3493 187.805C69.3271 188.443 71.4596 188.428 73.4278 187.76C75.3959 187.092 77.0937 185.808 78.267 184.101C81.4542 184.775 84.6755 185.278 87.917 185.608C88.5007 187.596 89.7166 189.342 91.3822 190.584C93.0479 191.826 95.0735 192.498 97.1553 192.498C99.2371 192.498 101.263 191.826 102.928 190.584C104.594 189.342 105.81 187.596 106.394 185.608C109.635 185.278 112.856 184.775 116.044 184.104C117.217 185.811 118.914 187.095 120.882 187.763C122.85 188.431 124.982 188.447 126.96 187.808C128.937 187.17 130.654 185.912 131.853 184.222C133.052 182.532 133.668 180.501 133.61 178.433C136.595 177.117 139.507 175.642 142.333 174.014C143.988 175.269 146.004 175.961 148.084 175.989C150.164 176.016 152.198 175.376 153.884 174.165C154.912 173.426 155.783 172.492 156.445 171.416C157.108 170.341 157.549 169.145 157.744 167.899C158.002 166.314 157.846 164.69 157.291 163.182C159.716 161.027 162.024 158.745 164.207 156.347C165.727 156.892 167.363 157.042 168.958 156.782C170.606 156.524 172.158 155.843 173.461 154.806C174.765 153.77 175.775 152.414 176.391 150.871C177.008 149.329 177.21 147.653 176.979 146.009C176.747 144.365 176.089 142.81 175.069 141.496C176.714 138.681 178.204 135.78 179.534 132.805C181.613 132.863 183.655 132.25 185.354 131.058C187.053 129.866 188.319 128.158 188.961 126.191C189.603 124.223 189.587 122.101 188.916 120.144C188.245 118.186 186.954 116.497 185.237 115.329C185.915 112.159 186.421 108.954 186.752 105.729C188.751 105.149 190.506 103.939 191.755 102.282C193.003 100.625 193.678 98.61 193.678 96.539C193.678 94.468 193.003 92.4528 191.755 90.7958C190.506 89.1388 188.751 87.9292 186.752 87.3486L186.762 87.339ZM184.037 99.707H183.774C182.96 99.7048 182.175 100.01 181.578 100.56C180.981 101.111 180.616 101.866 180.557 102.673C180.222 107.262 179.505 111.816 178.412 116.286C178.266 117.108 178.425 117.954 178.859 118.667C179.293 119.381 179.973 119.913 180.773 120.165C181.583 120.427 182.256 120.999 182.643 121.754C183.03 122.509 183.1 123.387 182.838 124.193C182.695 124.608 182.469 124.99 182.174 125.315C181.879 125.641 181.522 125.904 181.122 126.089C180.723 126.274 180.29 126.377 179.85 126.392C179.409 126.406 178.97 126.332 178.559 126.174C177.787 125.924 176.948 125.974 176.211 126.315C175.474 126.655 174.894 127.26 174.587 128.008C172.834 132.267 170.729 136.374 168.292 140.286C167.896 141.022 167.784 141.877 167.976 142.69C168.167 143.503 168.65 144.218 169.334 144.702C169.852 145.073 170.248 145.589 170.47 146.185C170.693 146.781 170.732 147.428 170.583 148.046C170.434 148.664 170.103 149.224 169.634 149.654C169.164 150.084 168.576 150.366 167.945 150.462C167.484 150.524 167.016 150.492 166.569 150.369C166.121 150.245 165.704 150.032 165.342 149.742C164.686 149.268 163.874 149.058 163.069 149.154C162.264 149.25 161.525 149.645 161 150.261C158.014 153.765 154.746 157.022 151.227 159.998C150.625 160.58 150.256 161.36 150.187 162.193C150.119 163.026 150.358 163.855 150.858 164.526C151.107 164.866 151.287 165.252 151.387 165.662C151.487 166.072 151.504 166.497 151.438 166.913C151.372 167.329 151.224 167.729 151.002 168.088C150.781 168.447 150.49 168.759 150.147 169.006C149.787 169.258 149.381 169.435 148.951 169.527C148.522 169.619 148.078 169.624 147.646 169.542C147.215 169.46 146.804 169.292 146.439 169.049C146.074 168.806 145.762 168.492 145.521 168.126C145.047 167.465 144.337 167.009 143.537 166.849C142.736 166.689 141.905 166.838 141.211 167.265C137.278 169.69 133.15 171.784 128.868 173.528C128.117 173.891 127.524 174.512 127.198 175.277C126.873 176.042 126.838 176.899 127.099 177.688C127.363 178.494 127.294 179.372 126.907 180.128C126.521 180.884 125.848 181.457 125.037 181.72C124.615 181.848 124.17 181.89 123.731 181.843C123.291 181.796 122.866 181.662 122.48 181.448C122.094 181.233 121.755 180.944 121.485 180.596C121.214 180.249 121.016 179.851 120.904 179.425C120.651 178.66 120.117 178.018 119.41 177.628C118.702 177.237 117.872 177.126 117.086 177.317C112.592 178.404 108.015 179.118 103.402 179.451C102.565 179.565 101.799 179.98 101.247 180.616C100.695 181.252 100.395 182.067 100.404 182.907C100.404 183.756 100.065 184.57 99.462 185.17C98.8588 185.77 98.0406 186.107 97.1875 186.107C96.7449 186.099 96.3085 186.002 95.9046 185.821C95.5008 185.641 95.1377 185.381 94.8372 185.058C94.5368 184.734 94.3051 184.354 94.1562 183.939C94.0074 183.525 93.9443 183.084 93.9708 182.645C93.973 181.835 93.6665 181.054 93.1132 180.461C92.5598 179.867 91.8007 179.504 90.989 179.445C86.3762 179.111 81.7992 178.398 77.3053 177.31C77.0885 177.257 76.866 177.23 76.6426 177.23C75.919 177.26 75.2215 177.508 74.6433 177.942C74.0651 178.376 73.6337 178.975 73.4067 179.659C73.143 180.465 72.5684 181.135 71.809 181.52C71.0497 181.905 70.1678 181.975 69.3569 181.713C68.9401 181.571 68.5566 181.347 68.2291 181.053C67.9017 180.76 67.6371 180.404 67.4512 180.007C67.2653 179.609 67.1619 179.179 67.1472 178.741C67.1325 178.303 67.2069 177.866 67.3658 177.457C67.6169 176.689 67.5665 175.854 67.2246 175.121C66.8827 174.388 66.2747 173.811 65.5226 173.505C61.2411 171.762 57.1127 169.667 53.1803 167.243C52.44 166.85 51.5812 166.739 50.7644 166.929C49.9475 167.12 49.2284 167.6 48.7413 168.28C48.3682 168.795 47.8493 169.189 47.2507 169.41C46.6521 169.631 46.0008 169.67 45.3798 169.522C44.7588 169.374 44.1962 169.045 43.7638 168.578C43.3313 168.11 43.0484 167.525 42.9513 166.897C42.8879 166.44 42.9194 165.974 43.0439 165.528C43.1684 165.083 43.3832 164.668 43.675 164.309C44.1516 163.656 44.3627 162.848 44.266 162.047C44.1694 161.246 43.7722 160.511 43.1539 159.989C39.6308 157.018 36.3571 153.767 33.3656 150.267C32.7807 149.667 31.9967 149.299 31.1594 149.231C30.3221 149.164 29.4886 149.401 28.814 149.899C28.1193 150.387 27.2606 150.585 26.4208 150.453C26.0035 150.388 25.6033 150.241 25.2433 150.022C24.8833 149.802 24.5707 149.513 24.3235 149.173C24.0705 148.815 23.8924 148.411 23.7998 147.983C23.7072 147.556 23.7021 147.114 23.7846 146.685C23.8671 146.256 24.0357 145.847 24.2803 145.484C24.5248 145.121 24.8404 144.81 25.2081 144.571C25.8724 144.099 26.3314 143.393 26.492 142.597C26.6527 141.801 26.5031 140.974 26.0734 140.283C23.6365 136.371 21.5309 132.264 19.7784 128.005C19.4143 127.257 18.7895 126.666 18.0202 126.342C17.251 126.019 16.3898 125.984 15.5967 126.245C14.7858 126.507 13.9034 126.438 13.1434 126.054C12.3834 125.669 11.808 125 11.5437 124.193C11.4149 123.773 11.3728 123.331 11.4198 122.894C11.4668 122.456 11.602 122.033 11.8174 121.649C12.0327 121.265 12.3238 120.928 12.673 120.659C13.0223 120.39 13.4226 120.193 13.8501 120.081C14.619 119.83 15.2643 119.299 15.6572 118.595C16.0501 117.891 16.1618 117.065 15.9699 116.283C14.8768 111.812 14.1592 107.259 13.8243 102.67C13.7047 101.839 13.2847 101.079 12.6429 100.534C12.0011 99.9887 11.1815 99.6946 10.3375 99.707C9.48435 99.707 8.66618 99.3698 8.06294 98.7697C7.4597 98.1696 7.1208 97.3557 7.1208 96.507C7.12911 96.0667 7.22681 95.6326 7.40803 95.2308C7.58925 94.829 7.85025 94.4678 8.17534 94.1689C8.50043 93.87 8.88291 93.6396 9.2998 93.4915C9.71668 93.3433 10.1594 93.2806 10.6012 93.307C11.4152 93.3091 12.1997 93.0042 12.7966 92.4538C13.3935 91.9033 13.7585 91.1481 13.8179 90.3406C14.1527 85.7517 14.8704 81.1984 15.9634 76.7278C16.1089 75.9069 15.9501 75.0614 15.5165 74.3482C15.0829 73.635 14.4039 73.1024 13.6056 72.8494C12.7945 72.5877 12.121 72.0163 11.7331 71.2609C11.3453 70.5054 11.2749 69.6277 11.5373 68.8206C11.6779 68.4084 11.9004 68.0286 12.1915 67.7037C12.4827 67.3788 12.8366 67.1155 13.2322 66.9295C13.6277 66.7435 14.0569 66.6386 14.494 66.621C14.9312 66.6033 15.3675 66.6734 15.7769 66.827C16.5528 67.0888 17.3999 67.0462 18.1454 66.7078C18.8908 66.3694 19.4783 65.7608 19.788 65.0062C21.5405 60.7468 23.6461 56.6399 26.0831 52.7278C26.4787 51.9915 26.5912 51.137 26.3993 50.3242C26.2075 49.5114 25.7246 48.796 25.0409 48.3118C24.526 47.9404 24.1333 47.4254 23.9125 46.8321C23.6917 46.2387 23.6527 45.5935 23.8004 44.9781C23.9481 44.3627 24.2758 43.8046 24.7422 43.3745C25.2087 42.9443 25.7928 42.6614 26.4208 42.5614C26.881 42.498 27.3494 42.5291 27.797 42.653C28.2446 42.7768 28.6619 42.9907 29.0231 43.2814C29.6793 43.7555 30.4913 43.9655 31.2965 43.8694C32.1018 43.7732 32.8408 43.3781 33.3656 42.763C36.3591 39.2537 39.636 35.9938 43.1636 33.0158C43.766 32.4336 44.1355 31.6537 44.2035 30.8209C44.2716 29.9881 44.0335 29.1591 43.5335 28.4878C43.2835 28.1475 43.1036 27.7615 43.0041 27.3519C42.9045 26.9423 42.8873 26.5171 42.9533 26.1009C43.0194 25.6846 43.1674 25.2854 43.389 24.9262C43.6105 24.567 43.9012 24.2549 44.2444 24.0078C44.6037 23.7561 45.0102 23.5789 45.4398 23.4868C45.8693 23.3947 46.3132 23.3895 46.7448 23.4716C47.1764 23.5538 47.587 23.7215 47.9521 23.9647C48.3172 24.208 48.6293 24.5219 48.8699 24.8878C49.3445 25.5486 50.0538 26.0052 50.8542 26.165C51.6546 26.3249 52.4861 26.176 53.1803 25.7486C57.1127 23.3243 61.2411 21.2296 65.5226 19.4862C66.2738 19.1234 66.8672 18.5018 67.1926 17.7367C67.518 16.9717 67.5532 16.1151 67.2918 15.3262C67.0281 14.5195 67.0971 13.6416 67.4838 12.8856C67.8704 12.1295 68.543 11.5571 69.3537 11.2942C69.7764 11.1674 70.2205 11.1265 70.6595 11.1739C71.0985 11.2213 71.5234 11.3561 71.909 11.5701C72.2946 11.7842 72.633 12.0731 72.9041 12.4199C73.1752 12.7666 73.3735 13.1641 73.4871 13.5886C73.74 14.3535 74.2736 14.9955 74.9813 15.3864C75.689 15.7772 76.5189 15.8883 77.3053 15.6974C81.7992 14.61 86.3762 13.8961 90.989 13.563C91.8229 13.445 92.5853 13.0293 93.1339 12.3934C93.6825 11.7576 93.98 10.9449 93.9708 10.107C93.9708 9.25828 94.3097 8.44435 94.9129 7.84423C95.5162 7.24412 96.3344 6.90697 97.1875 6.90697C97.6301 6.91524 98.0664 7.01243 98.4703 7.19271C98.8742 7.37299 99.2373 7.63264 99.5377 7.95605C99.8382 8.27946 100.07 8.65995 100.219 9.07468C100.368 9.4894 100.431 9.92978 100.404 10.3694C100.402 11.1791 100.708 11.9595 101.262 12.5534C101.815 13.1472 102.574 13.5103 103.386 13.5694C107.999 13.9025 112.576 14.6164 117.07 15.7038C117.895 15.8448 118.744 15.6849 119.46 15.2534C120.176 14.8219 120.712 14.1478 120.968 13.355C121.232 12.5486 121.807 11.8794 122.566 11.4942C123.325 11.109 124.207 11.0394 125.018 11.3006C125.435 11.4429 125.818 11.6674 126.146 11.9606C126.473 12.2538 126.738 12.6098 126.924 13.0072C127.11 13.4045 127.213 13.8352 127.228 14.2732C127.242 14.7113 127.168 15.1478 127.009 15.5566C126.758 16.3251 126.808 17.1597 127.15 17.8928C127.492 18.6259 128.1 19.2031 128.852 19.5086C133.134 21.252 137.262 23.3467 141.195 25.771C141.934 26.1667 142.794 26.2797 143.612 26.0887C144.429 25.8978 145.148 25.416 145.634 24.7342C146.007 24.2185 146.526 23.825 147.124 23.6038C147.723 23.3825 148.374 23.3436 148.995 23.4918C149.616 23.6401 150.179 23.9689 150.611 24.4363C151.044 24.9037 151.327 25.4887 151.424 26.1166C151.487 26.5744 151.456 27.0402 151.331 27.4855C151.207 27.9307 150.992 28.3458 150.7 28.7054C150.223 29.3582 150.012 30.166 150.109 30.967C150.206 31.7681 150.603 32.5033 151.221 33.0254C154.749 36.0034 158.025 39.2633 161.019 42.7726C161.604 43.3731 162.388 43.7416 163.225 43.8093C164.063 43.877 164.896 43.6393 165.571 43.1406C166.258 42.644 167.114 42.436 167.954 42.5614C168.371 42.6262 168.772 42.7727 169.132 42.9924C169.492 43.2121 169.804 43.5007 170.051 43.8414C170.304 44.1988 170.483 44.6032 170.575 45.0306C170.668 45.4579 170.673 45.8995 170.59 46.3288C170.508 46.7582 170.339 47.1667 170.095 47.5299C169.85 47.8931 169.535 48.2036 169.167 48.443C168.503 48.9151 168.044 49.6207 167.883 50.417C167.722 51.2132 167.872 52.0404 168.302 52.731C170.738 56.6431 172.844 60.75 174.597 65.0094C174.96 65.758 175.584 66.3493 176.354 66.6727C177.124 66.9961 177.986 67.0293 178.778 66.7662C179.18 66.6359 179.604 66.5856 180.025 66.6184C180.447 66.6511 180.858 66.7662 181.234 66.957C181.611 67.1478 181.946 67.4106 182.221 67.7303C182.495 68.0501 182.704 68.4206 182.834 68.8206C182.963 69.2412 183.005 69.6832 182.957 70.1202C182.91 70.5572 182.775 70.9803 182.56 71.3641C182.344 71.7479 182.053 72.0846 181.704 72.3541C181.355 72.6236 180.955 72.8204 180.528 72.9326C179.759 73.1842 179.114 73.715 178.721 74.4191C178.328 75.1231 178.216 75.9487 178.408 76.731C179.501 81.2016 180.219 85.7549 180.554 90.3438C180.673 91.1745 181.093 91.9334 181.734 92.4788C182.375 93.0241 183.194 93.3186 184.037 93.307C184.891 93.307 185.709 93.6441 186.312 94.2442C186.915 94.8443 187.254 95.6583 187.254 96.507C187.254 97.3557 186.915 98.1696 186.312 98.7697C185.709 99.3698 184.891 99.707 184.037 99.707Z" fill="#CBF396"/>
</g>
<defs>
<clipPath id="clip0_414_12503">
<rect width="193" height="192" fill="white" transform="translate(0.6875 0.506836)"/>
</clipPath>
</defs>
</svg>
