<svg width="24" height="25" viewBox="0 0 24 25" fill="none" xmlns="http://www.w3.org/2000/svg">
<path fill-rule="evenodd" clip-rule="evenodd" d="M11.3336 0.553437C11.716 0.11719 12.3444 0.129673 12.7046 0.599427L23.7171 13.1547C23.8956 13.3653 23.9972 13.6506 23.9999 13.9492C24.0027 14.2477 23.9064 14.5356 23.7319 14.7509C23.5573 14.9661 23.3184 15.0914 23.0667 15.0998C22.8149 15.1082 22.5705 14.9991 22.386 14.7959L12.0003 2.95477L1.61401 14.7959C1.42954 14.999 1.18516 15.1082 0.933488 15.0998C0.681813 15.0914 0.442971 14.9662 0.268388 14.7512C0.0938043 14.5361 -0.00255697 14.2483 5.16141e-05 13.9499C0.0026602 13.6514 0.10403 13.3661 0.282335 13.1553C3.9659 8.95579 7.65113 4.751 11.3325 0.554094L11.3336 0.553437Z" fill="#6D747B"/>
<path fill-rule="evenodd" clip-rule="evenodd" d="M11.3812 8.21847C11.7359 7.81376 12.32 7.82427 12.6536 8.26052L20.903 17.6648C21.0651 17.8612 21.1563 18.1248 21.1573 18.3996C21.1582 18.6744 21.0689 18.9389 20.9082 19.137C20.7475 19.335 20.528 19.4511 20.2964 19.4605C20.0647 19.47 19.839 19.3722 19.6672 19.1877L11.9997 10.4477L4.3333 19.1877C4.16145 19.3722 3.93578 19.47 3.70411 19.4605C3.47244 19.4511 3.25299 19.335 3.09228 19.137C2.93157 18.9389 2.84223 18.6744 2.84321 18.3996C2.84418 18.1248 2.93539 17.8612 3.0975 17.6648C5.85837 14.5165 8.62091 11.3642 11.3807 8.21847H11.3812Z" fill="#6D747B"/>
<path fill-rule="evenodd" clip-rule="evenodd" d="M11.4234 15.4824C11.7542 15.1053 12.2973 15.1145 12.6082 15.5205L18.7855 22.5635C18.9347 22.747 19.018 22.9918 19.0181 23.2465C19.0183 23.5013 18.9351 23.7462 18.7861 23.9298C18.6371 24.1134 18.4339 24.2214 18.2192 24.2311C18.0045 24.2409 17.7949 24.1516 17.6345 23.982L12.0003 17.5579L6.36548 23.982C6.20533 24.1537 5.99511 24.2447 5.77934 24.2357C5.56357 24.2268 5.35922 24.1186 5.20958 23.9341C5.05993 23.7496 4.97676 23.5033 4.97767 23.2473C4.97858 22.9914 5.06351 22.7459 5.21447 22.5629C7.28429 20.2036 9.35523 17.8404 11.4234 15.4824Z" fill="#6D747B"/>
</svg>
