<svg width="24" height="25" viewBox="0 0 24 25" fill="none" xmlns="http://www.w3.org/2000/svg">
<path d="M17.6569 16.9069C16.7202 17.8435 14.7616 19.8021 13.4138 21.1499C12.6327 21.931 11.3677 21.9314 10.5866 21.1503C9.26234 19.826 7.34159 17.9053 6.34315 16.9069C3.21895 13.7827 3.21895 8.71734 6.34315 5.59315C9.46734 2.46895 14.5327 2.46895 17.6569 5.59315C20.781 8.71734 20.781 13.7827 17.6569 16.9069Z" stroke="#6D747B" stroke-width="2" stroke-linecap="round" stroke-linejoin="round"/>
<path d="M15 11.25C15 12.9069 13.6569 14.25 12 14.25C10.3431 14.25 9 12.9069 9 11.25C9 9.59315 10.3431 8.25 12 8.25C13.6569 8.25 15 9.59315 15 11.25Z" stroke="#6D747B" stroke-width="2" stroke-linecap="round" stroke-linejoin="round"/>
</svg>
