<svg width="20" height="24" viewBox="0 0 20 24" fill="none" xmlns="http://www.w3.org/2000/svg">
<path d="M16.1903 15.1971L16.2312 14.9972C16.348 14.4276 16.912 14.3991 17.3532 14.1486C17.6577 14.013 17.9046 13.7742 18.0502 13.4743C18.1957 13.1744 18.2306 12.8328 18.1488 12.5096L17.9648 11.7795C17.8229 11.2159 18.3186 10.9455 18.6076 10.5281C18.8231 10.2738 18.9418 9.9516 18.9429 9.61827C18.9439 9.28495 18.8271 8.96198 18.6132 8.70637C18.3304 8.29237 17.833 8.01375 17.9785 7.45106L18.166 6.72206C18.2498 6.39944 18.217 6.05758 18.0733 5.75682C17.9296 5.45606 17.6842 5.21573 17.3806 5.07825C16.9448 4.82719 16.3767 4.79212 16.264 4.22269L16.1176 3.48412C16.0533 3.15699 15.8754 2.86312 15.6154 2.65444C15.3554 2.44577 15.03 2.33572 14.6967 2.34375L13.9439 2.36062C13.3587 2.36962 13.207 1.82587 12.8671 1.45556C12.6671 1.18914 12.3795 1.00184 12.055 0.926655C11.7305 0.851469 11.3899 0.893223 11.0931 1.04456L10.4221 1.38637C9.90362 1.64981 9.53031 1.227 9.05912 1.03837C8.76323 0.884638 8.42252 0.84044 8.09719 0.913589C7.77186 0.986738 7.48286 1.17253 7.28125 1.43812L6.82544 2.03644C6.47312 2.49881 5.95262 2.28019 5.44656 2.31412C5.11338 2.30469 4.78754 2.41306 4.52638 2.62017C4.26522 2.82728 4.08546 3.11986 4.01875 3.44644L3.86762 4.18387C3.75081 4.75312 3.18719 4.78181 2.74562 5.0325C2.44112 5.1681 2.19431 5.40692 2.04875 5.70678C1.90319 6.00665 1.86824 6.3483 1.95006 6.67144C2.02506 7.16756 2.35206 7.63425 1.97744 8.07769L1.49144 8.65275C1.27604 8.90696 1.15734 9.22908 1.15627 9.56228C1.15521 9.89548 1.27185 10.2183 1.48562 10.4739L1.96825 11.052C2.34044 11.4981 2.01119 11.9569 1.93206 12.4582C1.84815 12.7809 1.88092 13.1228 2.0246 13.4236C2.16828 13.7244 2.41363 13.9648 2.71731 14.1022C3.1525 14.3529 3.72081 14.3882 3.83387 14.9578L3.86181 15.0982L0.75475 20.8191C0.722698 20.8784 0.709713 20.9463 0.717562 21.0133C0.72541 21.0803 0.753712 21.1433 0.798617 21.1937C0.843522 21.2441 0.902852 21.2794 0.96854 21.2948C1.03423 21.3103 1.10309 21.3052 1.16575 21.2801L4.29231 20.0205L4.9375 23.328C4.95051 23.3943 4.98364 23.4549 5.03238 23.5017C5.08111 23.5484 5.14308 23.579 5.20983 23.5893C5.27658 23.5995 5.34487 23.5889 5.40539 23.5589C5.4659 23.529 5.5157 23.4811 5.548 23.4217L8.33256 18.2899C8.56609 18.2951 8.79728 18.2424 9.0055 18.1365L9.67619 17.7949C9.7837 17.7402 9.90268 17.7118 10.0233 17.7122C10.1439 17.7125 10.2628 17.7416 10.3699 17.7969L11.0395 18.1427C11.2352 18.2439 11.4518 18.298 11.6721 18.3006L14.4516 23.4217C14.4839 23.4811 14.5337 23.529 14.5942 23.5589C14.6548 23.5889 14.723 23.5995 14.7898 23.5893C14.8565 23.579 14.9185 23.5484 14.9672 23.5017C15.016 23.4549 15.0491 23.3943 15.0621 23.328L15.7077 20.0205L18.8342 21.2801C18.8969 21.3052 18.9658 21.3103 19.0315 21.2948C19.0971 21.2794 19.1565 21.2441 19.2014 21.1937C19.2463 21.1433 19.2746 21.0803 19.2824 21.0133C19.2903 20.9463 19.2773 20.8784 19.2452 20.8191L16.1903 15.1971ZM5.40625 22.3061L4.8595 19.5049C4.85024 19.4574 4.83061 19.4126 4.802 19.3736C4.77339 19.3346 4.73652 19.3024 4.69402 19.2793C4.65153 19.2563 4.60445 19.2429 4.55617 19.2401C4.50789 19.2373 4.4596 19.2453 4.41475 19.2634L1.76631 20.3302L4.09656 16.0416C4.21481 16.2853 4.40067 16.49 4.63198 16.6311C4.8633 16.7722 5.13031 16.8438 5.40119 16.8373C5.90087 16.8748 6.42925 16.659 6.77837 17.1236L7.23081 17.7253C7.35149 17.8857 7.50488 18.0187 7.68081 18.1153L5.40625 22.3061ZM10.6722 17.2138C10.4723 17.1107 10.2507 17.0566 10.0258 17.0558C9.80088 17.0551 9.579 17.1079 9.37844 17.2097L8.70756 17.5515C8.54827 17.6329 8.36535 17.6554 8.19108 17.615C8.01681 17.5747 7.86239 17.4741 7.75506 17.331L7.30262 16.7293C6.7 15.9276 5.79475 16.227 5.3875 16.1812C5.20889 16.1845 5.03479 16.125 4.8955 16.0132C4.75621 15.9013 4.66053 15.7442 4.62512 15.5691L4.4785 14.8307C4.2835 13.8482 3.33475 13.7218 2.98975 13.5054C2.82697 13.4317 2.69544 13.3029 2.61833 13.1417C2.54123 12.9804 2.52349 12.7972 2.56825 12.6242C2.61569 12.2274 3.11425 11.4017 2.473 10.6331L1.99037 10.0551C1.8756 9.91788 1.81297 9.74457 1.81351 9.5657C1.81406 9.38684 1.87776 9.21391 1.99337 9.07744L2.47956 8.50237C3.12606 7.73719 2.63312 6.91687 2.58737 6.51206C2.54346 6.33863 2.56223 6.15525 2.64038 5.99431C2.71853 5.83337 2.85104 5.70523 3.0145 5.6325C3.35462 5.42212 4.31031 5.29725 4.5115 4.31662C4.618 4.04962 4.549 2.93569 5.42894 2.97187C5.83112 2.92931 6.74144 3.23231 7.34856 2.43581L7.80494 1.83581C7.91313 1.69342 8.06814 1.59381 8.24261 1.55456C8.41709 1.51532 8.59982 1.53896 8.75856 1.62131C9.13356 1.75575 9.82881 2.4255 10.7209 1.97137L11.3909 1.62956C11.5502 1.54795 11.7332 1.5253 11.9076 1.56561C12.0819 1.60593 12.2365 1.70662 12.3438 1.84987C12.6293 2.14087 12.964 3.04425 13.9598 3.01669L14.7126 2.99981C14.8911 2.99669 15.0651 3.05615 15.2043 3.16787C15.3436 3.27958 15.4393 3.43651 15.475 3.61144L15.6214 4.35C15.8166 5.3325 16.7663 5.45925 17.1104 5.67525C17.2732 5.74896 17.4047 5.87778 17.4818 6.039C17.559 6.20022 17.5767 6.38349 17.5319 6.5565L17.3431 7.28644C17.0922 8.25619 17.893 8.78269 18.1094 9.12656C18.2242 9.26367 18.2869 9.43697 18.2864 9.61583C18.2858 9.79469 18.2221 9.9676 18.1064 10.104C17.8915 10.4415 17.0841 10.9686 17.3284 11.9392L17.5124 12.6694C17.8249 13.9108 15.8877 13.4044 15.5884 14.865L15.5249 15.1746C15.5185 15.2029 15.4437 15.5711 15.4371 15.6026C15.4021 15.7782 15.3059 15.9356 15.1655 16.0468C15.0252 16.1581 14.8499 16.2158 14.671 16.2097C14.2773 16.2512 13.357 15.9501 12.7512 16.7458L12.2948 17.3449C12.1866 17.4873 12.0316 17.5869 11.8572 17.6262C11.6827 17.6654 11.5 17.6419 11.3412 17.5596L10.6722 17.2138ZM15.5847 19.2634C15.5398 19.2453 15.4915 19.2373 15.4433 19.2401C15.395 19.2429 15.3479 19.2563 15.3054 19.2793C15.2629 19.3024 15.226 19.3346 15.1974 19.3736C15.1688 19.4126 15.1492 19.4574 15.1399 19.5049L14.5938 22.3063L12.3346 18.1453C12.5235 18.0491 12.6884 17.9115 12.817 17.7429L13.2732 17.1439C13.6264 16.6798 14.1377 16.9001 14.6522 16.8662C14.9157 16.8725 15.1758 16.8056 15.4035 16.673C15.6312 16.5403 15.8177 16.3471 15.9422 16.1149L18.2327 20.3302L15.5847 19.2634Z" fill="#2F3942"/>
<path d="M15.9456 10.1847C16.0631 9.01846 15.8322 7.84358 15.282 6.80862C14.7318 5.77366 13.887 4.92511 12.8545 4.37028C11.822 3.81545 10.6482 3.57926 9.48146 3.69158C8.31473 3.80391 7.20751 4.2597 6.29983 5.00132C5.39215 5.74293 4.72478 6.73706 4.38212 7.85798C4.03946 8.9789 4.0369 10.1763 4.37476 11.2986C4.71263 12.421 5.37574 13.418 6.28024 14.1635C7.18474 14.909 8.29 15.3695 9.45624 15.4868C9.65728 15.5071 9.85923 15.5173 10.0613 15.5174C11.5281 15.5141 12.9416 14.967 14.0284 13.982C15.1153 12.9971 15.7984 11.6441 15.9456 10.1847ZM13.3834 13.6722C12.7299 14.2058 11.9577 14.5747 11.1319 14.7478C10.3062 14.921 9.45089 14.8933 8.63803 14.6672C7.82517 14.441 7.07849 14.023 6.46078 13.4483C5.84306 12.8735 5.37238 12.1589 5.08831 11.3644C4.80424 10.5699 4.71508 9.71884 4.82833 8.88275C4.94158 8.04665 5.25394 7.24996 5.73912 6.55968C6.22431 5.86941 6.86815 5.30572 7.61649 4.91602C8.36484 4.52632 9.19582 4.322 10.0395 4.32024C10.2183 4.32024 10.3977 4.32924 10.5777 4.34724C11.6147 4.45175 12.5974 4.86141 13.4016 5.52442C14.2058 6.18744 14.7953 7.07403 15.0956 8.07208C15.396 9.07014 15.3936 10.1348 15.0888 11.1315C14.784 12.1282 14.1906 13.0122 13.3834 13.6716V13.6722Z" fill="#2F3942"/>
<path d="M10.7018 5.70636C10.5421 5.62157 10.3621 5.58216 10.1816 5.59241C10.001 5.60266 9.82666 5.66217 9.67752 5.76448L8.16045 6.80117C7.95084 6.94967 7.80687 7.17356 7.75875 7.4259C7.71062 7.67824 7.76209 7.93941 7.90234 8.15463C8.04259 8.36985 8.26074 8.52239 8.51102 8.58026C8.7613 8.63814 9.02427 8.59685 9.24477 8.46504V12.5966C9.24028 12.7298 9.26265 12.8626 9.31055 12.987C9.35844 13.1115 9.43088 13.225 9.52355 13.3208C9.61621 13.4166 9.72722 13.4929 9.84995 13.5449C9.97269 13.597 10.1046 13.6238 10.238 13.6238C10.3713 13.6238 10.5032 13.597 10.626 13.5449C10.7487 13.4929 10.8597 13.4166 10.9524 13.3208C11.045 13.225 11.1175 13.1115 11.1654 12.987C11.2133 12.8626 11.2356 12.7298 11.2311 12.5966V6.58461C11.2314 6.40386 11.1822 6.22648 11.0889 6.07168C10.9956 5.91687 10.8618 5.79054 10.7018 5.70636ZM10.5749 12.5966C10.5775 12.6425 10.5708 12.6884 10.5551 12.7316C10.5393 12.7748 10.5149 12.8143 10.4834 12.8477C10.4518 12.8812 10.4138 12.9078 10.3716 12.926C10.3294 12.9442 10.2839 12.9536 10.238 12.9536C10.192 12.9536 10.1465 12.9442 10.1043 12.926C10.0621 12.9078 10.0241 12.8812 9.99252 12.8477C9.96097 12.8143 9.93658 12.7748 9.92085 12.7316C9.90511 12.6884 9.89836 12.6425 9.90102 12.5966V7.84461C9.90104 7.78488 9.88475 7.72627 9.85392 7.67511C9.82308 7.62396 9.77887 7.58219 9.72604 7.55431C9.67322 7.52643 9.61378 7.5135 9.55415 7.51691C9.49451 7.52032 9.43694 7.53995 9.38764 7.57367L8.91083 7.89936C8.83698 7.94424 8.74873 7.95908 8.66426 7.94082C8.57979 7.92257 8.50554 7.87261 8.45682 7.80124C8.40809 7.72987 8.3886 7.64252 8.40236 7.55721C8.41611 7.47189 8.46208 7.39511 8.53077 7.34267L10.048 6.30598C10.0987 6.27162 10.1578 6.2517 10.2189 6.24835C10.2801 6.245 10.341 6.25834 10.3951 6.28695C10.4492 6.31556 10.4946 6.35836 10.5262 6.41076C10.5579 6.46316 10.5747 6.52319 10.5749 6.58442V12.5966Z" fill="#2F3942"/>
</svg>
