<svg width="245" height="220" viewBox="0 0 245 220" fill="none" xmlns="http://www.w3.org/2000/svg">
<path d="M202.75 73.1657V56.953H225.625C226.429 56.9479 227.21 56.69 227.858 56.2162C228.505 55.7424 228.986 55.077 229.231 54.3148C229.476 53.5527 229.474 52.7329 229.223 51.9725C228.973 51.2121 228.487 50.5499 227.836 50.0807C199.624 29.9952 200.119 29.4636 197.336 30.7166C194.553 31.9696 195.125 32.0455 195.125 71.4191C178.791 68.0678 162.22 65.9859 145.562 65.1922V60.7499H153.188C154.199 60.7499 155.168 60.3498 155.883 59.6378C156.598 58.9257 157 57.96 157 56.953V34.1717C157 33.1648 156.598 32.199 155.883 31.487C155.168 30.7749 154.199 30.3749 153.188 30.3749H92.1875C91.1764 30.3749 90.2066 30.7749 89.4917 31.487C88.7767 32.199 88.375 33.1648 88.375 34.1717V56.953C88.375 57.96 88.7767 58.9257 89.4917 59.6378C90.2066 60.3498 91.1764 60.7499 92.1875 60.7499H99.8125V65.1922C83.1546 65.9859 66.5839 68.0678 50.25 71.4191C50.25 32.2733 51.0506 32.2733 48.1912 30.7925C45.3319 29.3117 45.4081 30.223 17.6912 50.0807C17.0338 50.549 16.5429 51.2133 16.2893 51.9777C16.0358 52.7421 16.0327 53.5669 16.2806 54.3332C17.4244 57.8263 18.6825 56.953 42.9681 56.953V73.1657C19.9788 78.9369 4.5 87.5558 4.5 98.7186V178.453C4.5 224.015 240.875 223.37 240.875 178.453V98.7186C240.875 87.5558 225.396 78.9369 202.75 73.1657ZM202.75 49.3592V41.5377L213.73 49.3592H202.75ZM31.645 49.3592L42.625 41.5377V49.3592H31.645ZM233.25 111.514V140.484C233.25 162.696 104.387 179.023 34.6187 155.672C20.5125 151.191 12.125 145.458 12.125 140.484V111.514C49.1825 140.484 197.184 139.573 233.25 111.514ZM188.911 119.601C145.09 127.177 100.285 127.177 56.4644 119.601C100.284 112.008 145.091 112.008 188.911 119.601ZM96 37.9686H149.375V53.1561H96V37.9686ZM107.438 60.7499H137.938V64.8505C127.606 64.4708 117.808 64.4328 107.438 64.8505V60.7499ZM122.688 72.1405C196.726 72.1405 276.408 95.3774 205.647 115.653C196.47 113.228 187.149 111.376 177.74 110.109L194.019 93.8966C194.375 93.5426 194.657 93.1223 194.849 92.6598C195.042 92.1972 195.141 91.7015 195.141 91.2008C195.141 90.7002 195.042 90.2044 194.849 89.7419C194.657 89.2793 194.375 88.859 194.019 88.505C193.664 88.151 193.242 87.8702 192.777 87.6786C192.313 87.487 191.815 87.3884 191.312 87.3884C190.81 87.3884 190.312 87.487 189.848 87.6786C189.383 87.8702 188.961 88.151 188.606 88.505L168.209 108.856C154.358 107.302 140.437 106.453 126.5 106.312V83.5311C126.5 82.5241 126.098 81.5584 125.383 80.8463C124.668 80.1343 123.699 79.7342 122.688 79.7342C121.676 79.7342 120.707 80.1343 119.992 80.8463C119.277 81.5584 118.875 82.5241 118.875 83.5311V106.312C104.94 106.415 91.0186 107.226 77.1662 108.742L56.7694 88.3911C56.0515 87.6762 55.0778 87.2745 54.0625 87.2745C53.0472 87.2745 52.0735 87.6762 51.3556 88.3911C50.6377 89.1061 50.2344 90.0758 50.2344 91.0869C50.2344 92.098 50.6377 93.0677 51.3556 93.7827L67.635 110.109C58.224 111.401 48.9033 113.278 39.7275 115.729C-31.0706 95.3394 48.6106 72.1405 122.688 72.1405ZM141.75 204.575C129.207 205.145 118.265 205.221 103.625 204.575V189.844H141.75V204.575ZM233.25 178.453C233.25 188.401 201.263 200.817 149.375 204.158V186.047C149.375 185.04 148.973 184.074 148.258 183.362C147.543 182.65 146.574 182.25 145.562 182.25H99.8125C98.8014 182.25 97.8316 182.65 97.1167 183.362C96.4017 184.074 96 185.04 96 186.047V204.158C44.1119 200.817 12.125 188.401 12.125 178.453V153.356C48.8775 181.756 196.688 181.642 233.25 153.356V178.453Z" fill="#CBF396"/>
<path d="M118.875 146.18V157.57C118.875 158.577 119.277 159.543 119.992 160.255C120.707 160.967 121.676 161.367 122.688 161.367C123.699 161.367 124.668 160.967 125.383 160.255C126.098 159.543 126.5 158.577 126.5 157.57V146.18C126.5 145.173 126.098 144.207 125.383 143.495C124.668 142.783 123.699 142.383 122.688 142.383C121.676 142.383 120.707 142.783 119.992 143.495C119.277 144.207 118.875 145.173 118.875 146.18ZM157 144.281V155.672C157 156.679 157.402 157.645 158.117 158.357C158.832 159.069 159.801 159.469 160.812 159.469C161.824 159.469 162.793 159.069 163.508 158.357C164.223 157.645 164.625 156.679 164.625 155.672V144.281C164.625 143.274 164.223 142.309 163.508 141.596C162.793 140.884 161.824 140.484 160.812 140.484C159.801 140.484 158.832 140.884 158.117 141.596C157.402 142.309 157 143.274 157 144.281ZM80.75 144.281V155.672C80.75 156.679 81.1517 157.645 81.8667 158.357C82.5816 159.069 83.5514 159.469 84.5625 159.469C85.5736 159.469 86.5434 159.069 87.2583 158.357C87.9733 157.645 88.375 156.679 88.375 155.672V144.281C88.375 143.274 87.9733 142.309 87.2583 141.596C86.5434 140.884 85.5736 140.484 84.5625 140.484C83.5514 140.484 82.5816 140.884 81.8667 141.596C81.1517 142.309 80.75 143.274 80.75 144.281ZM46.4375 136.688V148.078C46.4375 149.085 46.8392 150.051 47.5542 150.763C48.2691 151.475 49.2389 151.875 50.25 151.875C51.2611 151.875 52.2309 151.475 52.9458 150.763C53.6608 150.051 54.0625 149.085 54.0625 148.078V136.688C54.0625 135.681 53.6608 134.715 52.9458 134.003C52.2309 133.291 51.2611 132.891 50.25 132.891C49.2389 132.891 48.2691 133.291 47.5542 134.003C46.8392 134.715 46.4375 135.681 46.4375 136.688ZM19.75 129.094V140.484C19.75 141.491 20.1517 142.457 20.8667 143.169C21.5816 143.881 22.5514 144.281 23.5625 144.281C24.5736 144.281 25.5434 143.881 26.2583 143.169C26.9733 142.457 27.375 141.491 27.375 140.484V129.094C27.375 128.087 26.9733 127.121 26.2583 126.409C25.5434 125.697 24.5736 125.297 23.5625 125.297C22.5514 125.297 21.5816 125.697 20.8667 126.409C20.1517 127.121 19.75 128.087 19.75 129.094ZM191.312 136.688V148.078C191.312 149.085 191.714 150.051 192.429 150.763C193.144 151.475 194.114 151.875 195.125 151.875C196.136 151.875 197.106 151.475 197.821 150.763C198.536 150.051 198.938 149.085 198.938 148.078V136.688C198.938 135.681 198.536 134.715 197.821 134.003C197.106 133.291 196.136 132.891 195.125 132.891C194.114 132.891 193.144 133.291 192.429 134.003C191.714 134.715 191.312 135.681 191.312 136.688ZM218 129.094V140.484C218 141.491 218.402 142.457 219.117 143.169C219.832 143.881 220.801 144.281 221.812 144.281C222.824 144.281 223.793 143.881 224.508 143.169C225.223 142.457 225.625 141.491 225.625 140.484V129.094C225.625 128.087 225.223 127.121 224.508 126.409C223.793 125.697 222.824 125.297 221.812 125.297C220.801 125.297 219.832 125.697 219.117 126.409C218.402 127.121 218 128.087 218 129.094Z" fill="#CBF396"/>
</svg>
