<svg width="25" height="25" viewBox="0 0 25 25" fill="none" xmlns="http://www.w3.org/2000/svg">
<g clip-path="url(#clip0_13_4417)">
<path d="M12.5 24.584C5.883 24.584 0.5 19.201 0.5 12.584C0.5 5.96698 5.883 0.583984 12.5 0.583984C19.117 0.583984 24.5 5.96698 24.5 12.584C24.5 19.201 19.117 24.584 12.5 24.584ZM12.5 2.58398C6.986 2.58398 2.5 7.06998 2.5 12.584C2.5 18.098 6.986 22.584 12.5 22.584C18.014 22.584 22.5 18.098 22.5 12.584C22.5 7.06998 18.014 2.58398 12.5 2.58398ZM17.5 12.584C17.5 12.031 17.053 11.584 16.5 11.584H13.5V6.58398C13.5 6.03098 13.052 5.58398 12.5 5.58398C11.948 5.58398 11.5 6.03098 11.5 6.58398V12.584C11.5 13.137 11.948 13.584 12.5 13.584H16.5C17.053 13.584 17.5 13.137 17.5 12.584Z" fill="#545F71"/>
</g>
<defs>
<clipPath id="clip0_13_4417">
<rect width="24" height="24" fill="white" transform="translate(0.5 0.583984)"/>
</clipPath>
</defs>
</svg>
