<svg width="18" height="19" viewBox="0 0 18 19" fill="none" xmlns="http://www.w3.org/2000/svg">
<path d="M15.875 10.2921C15.6871 10.2921 15.507 10.3711 15.3741 10.5117C15.2413 10.6524 15.1667 10.8432 15.1667 11.0421V14.2018C15.1661 14.756 14.9579 15.2873 14.5878 15.6792C14.2177 16.0711 13.7159 16.2915 13.1925 16.2921H4.39079C3.86739 16.2915 3.36559 16.0711 2.9955 15.6792C2.6254 15.2873 2.41723 14.756 2.41667 14.2018V11.0421C2.41667 10.8432 2.34204 10.6524 2.2092 10.5117C2.07636 10.3711 1.89619 10.2921 1.70833 10.2921C1.52047 10.2921 1.3403 10.3711 1.20747 10.5117C1.07463 10.6524 1 10.8432 1 11.0421V14.2018C1.00094 15.1537 1.35848 16.0663 1.99418 16.7394C2.62987 17.4125 3.49179 17.7911 4.39079 17.7921H13.1925C14.0915 17.7911 14.9535 17.4125 15.5892 16.7394C16.2249 16.0663 16.5824 15.1537 16.5833 14.2018V11.0421C16.5833 10.8432 16.5087 10.6524 16.3759 10.5117C16.243 10.3711 16.0629 10.2921 15.875 10.2921Z" fill="#37434A"/>
<path d="M5.04222 7.07233L8.08309 3.85258V13.2921C8.08309 13.491 8.15772 13.6818 8.29056 13.8224C8.4234 13.9631 8.60356 14.0421 8.79143 14.0421C8.97929 14.0421 9.15945 13.9631 9.29229 13.8224C9.42513 13.6818 9.49976 13.491 9.49976 13.2921V3.85258L12.5406 7.07233C12.6742 7.20894 12.8532 7.28454 13.0389 7.28283C13.2246 7.28112 13.4023 7.20225 13.5336 7.06319C13.6649 6.92413 13.7394 6.73602 13.741 6.53938C13.7426 6.34273 13.6712 6.15328 13.5422 6.01183L9.29222 1.51183C9.15939 1.37122 8.97925 1.29224 8.79143 1.29224C8.6036 1.29224 8.42347 1.37122 8.29063 1.51183L4.04063 6.01183C3.91161 6.15328 3.84021 6.34273 3.84182 6.53938C3.84344 6.73602 3.91793 6.92413 4.04926 7.06319C4.18059 7.20225 4.35825 7.28112 4.54398 7.28283C4.7297 7.28454 4.90862 7.20894 5.04222 7.07233Z" fill="#37434A"/>
</svg>
