<svg width="784" height="784" viewBox="0 0 784 784" fill="none" xmlns="http://www.w3.org/2000/svg">
<path opacity="0.1" d="M716.697 357.532L717.674 357.413L717.571 356.434C709.755 282.007 676.617 212.521 623.703 159.601C570.789 106.681 501.307 73.5359 426.88 65.711L425.902 65.6081L425.783 66.585C421.005 105.937 425.241 145.859 438.171 183.332C451.101 220.804 472.385 254.845 500.414 282.876C528.442 310.908 562.48 332.197 599.951 345.131C637.423 358.065 677.345 362.305 716.697 357.532ZM66.9628 425.373L65.9859 425.491L66.0887 426.47C73.9052 500.897 107.042 570.383 159.957 623.303C212.871 676.224 282.353 709.369 356.779 717.193L357.758 717.296L357.876 716.319C362.655 676.968 358.419 637.045 345.489 599.572C332.559 562.1 311.274 528.06 283.246 500.028C255.217 471.996 221.179 450.708 183.708 437.774C146.237 424.84 106.315 420.599 66.9628 425.373ZM422.782 717.62C497.93 710.683 568.321 677.906 621.984 624.914V625.015L623.69 623.314C677.638 569.534 711.071 498.574 718.193 422.732L718.306 421.53L717.104 421.643C706.737 422.621 696.373 423.143 686.044 423.143C640.643 423.164 595.741 413.686 554.222 395.317C512.704 376.949 475.487 350.098 444.966 316.488C414.444 282.879 391.292 243.255 376.997 200.164C362.703 157.072 357.583 111.467 361.965 66.279L362.082 65.0749L360.878 65.1868C284.937 72.2432 213.846 105.605 159.89 159.508C105.933 213.41 72.5007 284.467 65.3684 360.401L65.255 361.608L66.462 361.49C114.26 356.786 162.506 362.737 207.729 378.914C252.952 395.09 294.027 421.09 327.998 455.042C361.969 488.994 387.991 530.055 404.193 575.269C420.394 620.483 426.371 668.726 421.694 716.526L421.577 717.731L422.782 717.62ZM468.252 7.85123C544.106 22.9119 613.792 60.1232 668.501 114.781C741.772 188.216 782.921 287.716 782.921 391.452C782.921 495.188 741.772 594.688 668.501 668.123C613.792 722.781 544.106 759.993 468.252 775.053C392.398 790.114 313.782 782.348 242.341 752.736C170.9 723.125 109.842 672.998 66.885 608.692C23.9277 544.385 1 468.787 1 391.452C1 314.118 23.9277 238.519 66.885 174.213C109.842 109.906 170.9 59.7794 242.341 30.1681C313.782 0.556787 392.398 -7.20941 468.252 7.85123Z" fill="#96E72B" fill-opacity="0.1" stroke="#B6EE6B" stroke-width="2"/>
</svg>
