<svg width="49" height="49" viewBox="0 0 49 49" fill="none" xmlns="http://www.w3.org/2000/svg">
<rect x="0.522461" y="0.438263" width="47.6201" height="47.6201" rx="23.8101" fill="#F2FCE6"/>
<g clip-path="url(#clip0_457_19026)">
<path d="M23.9434 13.2909V35.1168" stroke="#96E72B" stroke-width="1.98417" stroke-linecap="round" stroke-linejoin="round"/>
<path d="M28.9051 17.2612H21.4645C20.5436 17.2612 19.6604 17.627 19.0092 18.2782C18.358 18.9294 17.9922 19.8126 17.9922 20.7335C17.9922 21.6544 18.358 22.5376 19.0092 23.1888C19.6604 23.8399 20.5436 24.2058 21.4645 24.2058H26.4249C27.3458 24.2058 28.229 24.5716 28.8802 25.2228C29.5314 25.874 29.8972 26.7572 29.8972 27.6781C29.8972 28.599 29.5314 29.4822 28.8802 30.1334C28.229 30.7845 27.3458 31.1504 26.4249 31.1504H17.9922" stroke="#96E72B" stroke-width="1.98417" stroke-linecap="round" stroke-linejoin="round"/>
</g>
<defs>
<clipPath id="clip0_457_19026">
<rect width="23.8101" height="23.8101" fill="white" transform="translate(12.04 12.2997)"/>
</clipPath>
</defs>
</svg>
