<svg width="49" height="50" viewBox="0 0 49 50" fill="none" xmlns="http://www.w3.org/2000/svg">
<circle cx="24.6515" cy="25.047" r="24.0792" fill="#F2FCE6"/>
<g clip-path="url(#clip0_1_6740)">
<path d="M30.2888 26.6492C33.3972 23.5418 33.3972 18.4855 30.2888 15.378C27.1803 12.2705 22.1225 12.2705 19.014 15.378C15.9055 18.4855 15.9055 23.5418 19.014 26.6492C20.3298 27.9646 21.9948 28.723 23.7134 28.9248V31.5931H21.8375C21.3195 31.5931 20.8996 32.0129 20.8996 32.5307C20.8996 33.0486 21.3195 33.4684 21.8375 33.4684H23.7134V36.1097C23.7134 36.6275 24.1333 37.0473 24.6514 37.0473C25.1694 37.0473 25.5893 36.6275 25.5893 36.1097V33.4684H27.4652C27.9832 33.4684 28.4031 33.0486 28.4031 32.5307C28.4031 32.0129 27.9832 31.5931 27.4652 31.5931H25.5893V28.9249C27.3079 28.723 28.973 27.9646 30.2888 26.6492ZM20.3404 25.3232C17.9634 22.9469 17.9634 19.0803 20.3404 16.704C22.7175 14.3278 26.5852 14.3276 28.9623 16.704C31.3394 19.0803 31.3394 22.9469 28.9623 25.3232C26.5853 27.6995 22.7175 27.6995 20.3404 25.3232Z" fill="#81E200"/>
</g>
<defs>
<clipPath id="clip0_1_6740">
<rect width="24" height="24" fill="white" transform="translate(12.6514 13.0474)"/>
</clipPath>
</defs>
</svg>
