<svg width="49" height="49" viewBox="0 0 49 49" fill="none" xmlns="http://www.w3.org/2000/svg">
<circle cx="24.6515" cy="24.3634" r="24.0792" fill="#F2FCE6"/>
<path fill-rule="evenodd" clip-rule="evenodd" d="M23.9577 14.5182C24.3557 14.1506 25.0097 14.1611 25.3845 14.557L36.845 25.1371C37.0308 25.3146 37.1365 25.5551 37.1394 25.8067C37.1423 26.0583 37.0421 26.3009 36.8604 26.4822C36.6788 26.6636 36.4302 26.7692 36.1682 26.7763C35.9062 26.7834 35.6518 26.6914 35.4597 26.5201L24.6515 16.5418L13.8428 26.5201C13.6508 26.6913 13.3965 26.7833 13.1345 26.7763C12.8726 26.7692 12.6241 26.6637 12.4424 26.4825C12.2607 26.3012 12.1604 26.0588 12.1631 25.8072C12.1659 25.5557 12.2713 25.3153 12.4569 25.1377C16.2903 21.5988 20.1255 18.0554 23.9566 14.5188L23.9577 14.5182Z" fill="#81E200"/>
<path fill-rule="evenodd" clip-rule="evenodd" d="M24.0074 20.9778C24.3765 20.6367 24.9844 20.6456 25.3316 21.0132L33.9166 28.9381C34.0853 29.1036 34.1802 29.3258 34.1812 29.5573C34.1822 29.7889 34.0892 30.0118 33.922 30.1787C33.7547 30.3456 33.5264 30.4434 33.2853 30.4514C33.0442 30.4593 32.8093 30.3769 32.6305 30.2215L24.6511 22.8563L16.6728 30.2215C16.494 30.3769 16.2591 30.4593 16.018 30.4514C15.7769 30.4434 15.5485 30.3456 15.3813 30.1787C15.214 30.0118 15.1211 29.7889 15.1221 29.5573C15.1231 29.3258 15.218 29.1036 15.3867 28.9381C18.2599 26.285 21.1348 23.6286 24.0069 20.9778H24.0074Z" fill="#81E200"/>
<path fill-rule="evenodd" clip-rule="evenodd" d="M24.0512 27.0988C24.3955 26.781 24.9607 26.7888 25.2842 27.1309L31.7129 33.066C31.8681 33.2206 31.9548 33.4269 31.9549 33.6416C31.955 33.8563 31.8685 34.0626 31.7135 34.2174C31.5584 34.3721 31.3469 34.4631 31.1235 34.4713C30.9 34.4795 30.6819 34.4043 30.515 34.2614L24.6516 28.8478L18.7875 34.2614C18.6209 34.406 18.4021 34.4827 18.1776 34.4752C17.953 34.4676 17.7403 34.3765 17.5846 34.221C17.4289 34.0655 17.3423 33.8579 17.3433 33.6422C17.3442 33.4266 17.4326 33.2197 17.5897 33.0655C19.7437 31.0773 21.8989 29.0859 24.0512 27.0988Z" fill="#81E200"/>
</svg>
