<svg width="49" height="49" viewBox="0 0 49 49" fill="none" xmlns="http://www.w3.org/2000/svg">
<circle cx="24.6515" cy="24.2052" r="24.0792" fill="#F2FCE6"/>
<path fill-rule="evenodd" clip-rule="evenodd" d="M35.1568 28.358C35.1568 30.5535 33.3708 32.3367 31.1781 32.3367H18.1244C15.9316 32.3367 14.1456 30.5535 14.1456 28.358V20.0521C14.1451 19.3444 14.3346 18.6497 14.6945 18.0404L21.0639 24.4098C22.0168 25.3655 23.2928 25.8921 24.6526 25.8921C26.0095 25.8921 27.2856 25.3655 28.2385 24.4098L34.6079 18.0404C34.9677 18.6497 35.1573 19.3444 35.1568 20.0521V28.358H35.1568ZM31.178 16.0733H18.1244C17.2189 16.0733 16.3829 16.3798 15.7143 16.8897L22.1477 23.3259C22.8137 23.989 23.7024 24.3568 24.6526 24.3568C25.5999 24.3568 26.4887 23.989 27.1546 23.3259L33.5881 16.8897C32.9194 16.3798 32.0836 16.0733 31.178 16.0733ZM31.178 14.5381H18.1244C15.0846 14.5381 12.6104 17.0123 12.6104 20.0521V28.358C12.6104 31.4006 15.0846 33.872 18.1244 33.872H31.178C34.2178 33.872 36.692 31.4006 36.692 28.358V20.0521C36.692 17.0122 34.2178 14.5381 31.178 14.5381Z" fill="#81E200"/>
</svg>
