<svg width="28" height="29" viewBox="0 0 28 29" fill="none" xmlns="http://www.w3.org/2000/svg">
<g clip-path="url(#clip0_1_7067)">
<path d="M10.5233 24.7788H2.91667C2.1434 24.7779 1.40208 24.4703 0.855295 23.9235C0.308515 23.3767 0.00092625 22.6354 0 21.8621L0 3.19548C0 1.58664 1.309 0.278809 2.91667 0.278809H16.9167C18.5243 0.278809 19.8333 1.58664 19.8333 3.19548V10.2655C19.8333 10.4202 19.7719 10.5686 19.6625 10.678C19.5531 10.7873 19.4047 10.8488 19.25 10.8488C19.0953 10.8488 18.9469 10.7873 18.8375 10.678C18.7281 10.5686 18.6667 10.4202 18.6667 10.2655V3.19548C18.6667 2.23064 17.8815 1.44548 16.9167 1.44548H2.91667C1.95183 1.44548 1.16667 2.23064 1.16667 3.19548V21.8621C1.16667 22.827 1.95183 23.6121 2.91667 23.6121H10.5233C10.678 23.6121 10.8264 23.6736 10.9358 23.783C11.0452 23.8924 11.1067 24.0408 11.1067 24.1955C11.1067 24.3502 11.0452 24.4986 10.9358 24.608C10.8264 24.7174 10.678 24.7788 10.5233 24.7788Z" fill="#004077"/>
<path d="M15.75 10.7788H4.08333C3.92862 10.7788 3.78025 10.7173 3.67085 10.6079C3.56146 10.4985 3.5 10.3502 3.5 10.1955C3.5 10.0408 3.56146 9.89238 3.67085 9.78299C3.78025 9.67359 3.92862 9.61213 4.08333 9.61213H15.75C15.9047 9.61213 16.0531 9.67359 16.1625 9.78299C16.2719 9.89238 16.3333 10.0408 16.3333 10.1955C16.3333 10.3502 16.2719 10.4985 16.1625 10.6079C16.0531 10.7173 15.9047 10.7788 15.75 10.7788ZM9.91667 6.11213H4.08333C3.92862 6.11213 3.78025 6.05067 3.67085 5.94128C3.56146 5.83188 3.5 5.68351 3.5 5.5288C3.5 5.37409 3.56146 5.22572 3.67085 5.11632C3.78025 5.00692 3.92862 4.94547 4.08333 4.94547H9.91667C10.0714 4.94547 10.2197 5.00692 10.3291 5.11632C10.4385 5.22572 10.5 5.37409 10.5 5.5288C10.5 5.68351 10.4385 5.83188 10.3291 5.94128C10.2197 6.05067 10.0714 6.11213 9.91667 6.11213ZM20.4167 28.2788C16.2353 28.2788 12.8333 24.8768 12.8333 20.6955C12.8333 16.5141 16.2353 13.1121 20.4167 13.1121C24.598 13.1121 28 16.5141 28 20.6955C28 24.8768 24.598 28.2788 20.4167 28.2788ZM20.4167 14.2788C16.8782 14.2788 14 17.1581 14 20.6955C14 24.2328 16.8782 27.1121 20.4167 27.1121C23.9552 27.1121 26.8333 24.2328 26.8333 20.6955C26.8333 17.1581 23.9552 14.2788 20.4167 14.2788Z" fill="#004077"/>
<path d="M20.4168 24.7788C20.2621 24.7788 20.1137 24.7174 20.0044 24.608C19.895 24.4986 19.8335 24.3502 19.8335 24.1955V17.1955C19.8335 17.0408 19.895 16.8924 20.0044 16.783C20.1137 16.6736 20.2621 16.6122 20.4168 16.6122C20.5715 16.6122 20.7199 16.6736 20.8293 16.783C20.9387 16.8924 21.0002 17.0408 21.0002 17.1955V24.1955C21.0002 24.3502 20.9387 24.4986 20.8293 24.608C20.7199 24.7174 20.5715 24.7788 20.4168 24.7788Z" fill="#004077"/>
<path d="M23.9168 21.2788H16.9168C16.7621 21.2788 16.6137 21.2174 16.5044 21.108C16.395 20.9986 16.3335 20.8502 16.3335 20.6955C16.3335 20.5408 16.395 20.3924 16.5044 20.283C16.6137 20.1736 16.7621 20.1122 16.9168 20.1122H23.9168C24.0715 20.1122 24.2199 20.1736 24.3293 20.283C24.4387 20.3924 24.5002 20.5408 24.5002 20.6955C24.5002 20.8502 24.4387 20.9986 24.3293 21.108C24.2199 21.2174 24.0715 21.2788 23.9168 21.2788Z" fill="#004077"/>
</g>
<defs>
<clipPath id="clip0_1_7067">
<rect width="28" height="28" fill="white" transform="translate(0 0.278809)"/>
</clipPath>
</defs>
</svg>
