<svg width="34" height="35" viewBox="0 0 34 35" fill="none" xmlns="http://www.w3.org/2000/svg">
<g clip-path="url(#clip0_1_6839)">
<path fill-rule="evenodd" clip-rule="evenodd" d="M16.99 28.5445C10.8951 28.5445 5.93555 23.5849 5.93555 17.49C5.93555 11.3951 10.8951 6.43555 16.99 6.43555C23.0849 6.43555 28.0445 11.3951 28.0445 17.49C28.0445 23.5849 23.0849 28.5445 16.99 28.5445Z" fill="#FFC107"/>
<path fill-rule="evenodd" clip-rule="evenodd" d="M16.99 4.76245C16.7112 4.76245 16.4722 4.54335 16.4722 4.24458V1.01787C16.4722 0.739016 16.7112 0.5 16.99 0.5C17.2888 0.5 17.5079 0.739016 17.5079 1.01787V4.24458C17.5079 4.54335 17.2888 4.76245 16.99 4.76245ZM23.6227 6.53515C23.5231 6.53515 23.4435 6.51523 23.3638 6.4754C23.1049 6.33597 23.0252 6.01728 23.1646 5.77827L24.7979 2.96983C24.9373 2.7109 25.256 2.63122 25.495 2.77065C25.734 2.91008 25.8336 3.22876 25.6743 3.4877L24.0609 6.27622C23.9613 6.45548 23.802 6.53515 23.6227 6.53515ZM28.4628 11.3951C28.2835 11.3951 28.1043 11.2955 28.0246 11.1362C27.8852 10.8773 27.9649 10.5785 28.2039 10.4192L31.0123 8.8058C31.2513 8.66637 31.57 8.74605 31.7094 9.00498C31.8489 9.244 31.7692 9.56268 31.5302 9.70211L28.7217 11.3155C28.6421 11.3752 28.5624 11.3951 28.4628 11.3951ZM33.4821 18.0079H30.2355C29.9566 18.0079 29.7176 17.7888 29.7176 17.49C29.7176 17.2112 29.9566 16.9722 30.2355 16.9722H33.4821C33.761 16.9722 34 17.2112 34 17.49C34 17.7888 33.761 18.0079 33.4821 18.0079ZM31.2712 26.254C31.1716 26.254 31.092 26.234 31.0123 26.1743L28.2039 24.5609C27.9649 24.4215 27.8852 24.1028 28.0246 23.8638C28.164 23.6049 28.4827 23.5252 28.7217 23.6646L31.5302 25.2979C31.7692 25.4373 31.8489 25.756 31.7094 25.995C31.6298 26.1544 31.4505 26.254 31.2712 26.254ZM25.2361 32.2891C25.0568 32.2891 24.8776 32.1895 24.7979 32.0302L23.1646 29.2217C23.0252 28.9827 23.1049 28.664 23.3638 28.5246C23.6028 28.3852 23.9215 28.4649 24.0609 28.7039L25.6743 31.5123C25.8336 31.7513 25.734 32.07 25.495 32.2094C25.4153 32.2692 25.3158 32.2891 25.2361 32.2891ZM16.99 34.5C16.7112 34.5 16.4722 34.261 16.4722 33.9821V30.7355C16.4722 30.4566 16.7112 30.2176 16.99 30.2176C17.2888 30.2176 17.5079 30.4566 17.5079 30.7355V33.9821C17.5079 34.261 17.2888 34.5 16.99 34.5ZM8.76391 32.2891C8.66432 32.2891 8.58465 32.2692 8.50498 32.2094C8.24605 32.07 8.16637 31.7513 8.3058 31.5123L9.91916 28.7039C10.0785 28.4649 10.3773 28.3653 10.6362 28.5246C10.8752 28.664 10.9549 28.9827 10.8155 29.2217L9.20211 32.0302C9.10252 32.1895 8.94318 32.2891 8.76391 32.2891ZM2.72876 26.254C2.5495 26.254 2.37024 26.1544 2.27065 25.995C2.13122 25.756 2.2109 25.4373 2.46983 25.2979L5.27827 23.6646C5.51728 23.5252 5.83597 23.6049 5.9754 23.8638C6.11482 24.1028 6.03515 24.4215 5.79613 24.5609L2.9877 26.1743C2.90803 26.234 2.80844 26.254 2.72876 26.254ZM3.74458 18.0079H0.517868C0.239016 18.0079 0 17.7888 0 17.49C0 17.2112 0.239016 16.9722 0.517868 16.9722H3.74458C4.04335 16.9722 4.26245 17.2112 4.26245 17.49C4.26245 17.7888 4.04335 18.0079 3.74458 18.0079ZM5.5372 11.3951C5.43761 11.3951 5.35794 11.3752 5.27827 11.3155L2.46983 9.70211C2.2109 9.56268 2.13122 9.244 2.27065 9.00498C2.41008 8.74605 2.72876 8.66637 2.9877 8.8058L5.79613 10.4192C6.03515 10.5785 6.11482 10.8773 5.9754 11.1362C5.87581 11.2955 5.69654 11.3951 5.5372 11.3951ZM10.3773 6.53515C10.198 6.53515 10.0187 6.45548 9.91916 6.29613L8.3058 3.4877C8.16637 3.22876 8.24605 2.91008 8.50498 2.77065C8.744 2.63122 9.06268 2.7109 9.20211 2.96983L10.8155 5.77827C10.9549 6.01728 10.8752 6.33597 10.6362 6.4754C10.5565 6.51523 10.4569 6.53515 10.3773 6.53515Z" fill="#FF9D05"/>
<path fill-rule="evenodd" clip-rule="evenodd" d="M20.7345 23.7638C20.6747 23.7638 20.615 23.7638 20.5552 23.7239L16.9899 22.3496L13.4445 23.7239C13.2851 23.8036 13.086 23.7638 12.9465 23.6642C12.8071 23.5646 12.7274 23.4052 12.7474 23.226L12.9665 19.4216L10.5365 16.4738C10.4369 16.3344 10.397 16.1551 10.4568 15.9758C10.5165 15.8165 10.636 15.6771 10.8153 15.6372L14.5001 14.6812L16.5716 11.4544C16.6513 11.315 16.8305 11.2354 16.9899 11.2354C17.1691 11.2354 17.3285 11.315 17.4281 11.4544L19.4996 14.6812L23.1844 15.6372C23.3437 15.6771 23.4831 15.8165 23.5429 15.9758C23.6027 16.1551 23.5628 16.3344 23.4433 16.4738L21.0332 19.4216L21.2523 23.226C21.2523 23.4052 21.1727 23.5646 21.0332 23.6642C20.9536 23.7438 20.8341 23.7638 20.7345 23.7638Z" fill="white"/>
</g>
<defs>
<clipPath id="clip0_1_6839">
<rect width="34" height="34" fill="white" transform="translate(0 0.5)"/>
</clipPath>
</defs>
</svg>
