<svg width="43" height="25" viewBox="0 0 43 25" fill="none" xmlns="http://www.w3.org/2000/svg">
<g clip-path="url(#clip0_1_7073)">
<path d="M11.7823 7.77881V12.3648L9.07531 15.0718C8.9798 15.1641 8.90361 15.2744 8.85121 15.3964C8.7988 15.5184 8.77121 15.6496 8.77006 15.7824C8.7689 15.9152 8.79421 16.0469 8.84449 16.1698C8.89477 16.2927 8.96902 16.4043 9.06291 16.4982C9.15681 16.5921 9.26846 16.6663 9.39135 16.7166C9.51425 16.7669 9.64593 16.7922 9.77871 16.7911C9.91149 16.7899 10.0427 16.7623 10.1647 16.7099C10.2867 16.6575 10.3971 16.5813 10.4893 16.4858L13.4893 13.4858C13.6769 13.2983 13.7823 13.044 13.7823 12.7788V7.77881C13.7823 7.51359 13.677 7.25924 13.4894 7.0717C13.3019 6.88417 13.0475 6.77881 12.7823 6.77881C12.5171 6.77881 12.2627 6.88417 12.0752 7.0717C11.8877 7.25924 11.7823 7.51359 11.7823 7.77881Z" fill="#004077"/>
<path d="M15.5104 22.4028C13.3839 23.0022 11.1186 22.8793 9.06937 22.0534C7.02014 21.2275 5.3027 19.7453 4.18602 17.8389C3.06934 15.9325 2.6165 13.7095 2.8984 11.5182C3.18031 9.32686 4.18105 7.29091 5.74389 5.72921C7.30673 4.1675 9.3434 3.16824 11.5349 2.88792C13.7265 2.6076 15.9491 3.06206 17.8547 4.18012C19.7603 5.29818 21.2413 7.0167 22.0657 9.06652C22.8901 11.1163 22.738 11.1168 22.4104 12.6953C22.3698 12.8231 22.3552 12.9578 22.3677 13.0914C22.3802 13.2249 22.4194 13.3546 22.483 13.4727C22.5466 13.5908 22.6333 13.6949 22.738 13.7788C22.8426 13.8627 22.9631 13.9246 23.0922 13.961C23.2213 13.9974 23.3564 14.0074 23.4895 13.9905C23.6225 13.9736 23.7508 13.93 23.8667 13.8625C23.9826 13.795 24.0838 13.7049 24.1641 13.5975C24.2445 13.49 24.3024 13.3676 24.3344 13.2373C24.675 10.4886 24.9099 10.7762 23.9196 8.31477C22.9292 5.85335 21.1504 3.78998 18.8616 2.44789C16.5729 1.1058 13.9037 0.560815 11.2721 0.898315C8.64042 1.23581 6.19508 2.43673 4.31911 4.31293C2.44314 6.18913 1.24251 8.63462 0.905333 11.2663C0.568151 13.898 1.11346 16.5671 2.45582 18.8557C3.79819 21.1442 5.86178 22.9229 8.32332 23.9129C10.7849 24.903 13.5053 25.0486 16.0584 24.3268C16.1876 24.2936 16.3087 24.2349 16.4149 24.1542C16.521 24.0735 16.6099 23.9724 16.6764 23.8568C16.7428 23.7412 16.7855 23.6135 16.8019 23.4811C16.8182 23.3488 16.808 23.2145 16.7717 23.0862C16.7354 22.9579 16.6739 22.8382 16.5906 22.734C16.5074 22.6299 16.4041 22.5434 16.287 22.4797C16.1699 22.416 16.0412 22.3764 15.9085 22.3632C15.7758 22.35 15.6418 22.3635 15.5144 22.4028H15.5104Z" fill="#004077"/>
</g>
<path d="M28.1558 8.89744L30.7659 11.5075M29.2632 7.79008C29.9839 7.06932 31.1525 7.06932 31.8732 7.79008C32.594 8.51083 32.594 9.6794 31.8732 10.4002L21.7093 20.5641H19.1255V17.9278L29.2632 7.79008Z" stroke="#004077" stroke-width="1.47648" stroke-linecap="round" stroke-linejoin="round"/>
<defs>
<clipPath id="clip0_1_7073">
<rect width="24" height="24" fill="white" transform="translate(0.782227 0.778809)"/>
</clipPath>
</defs>
</svg>
