<svg width="92" height="89" viewBox="0 0 92 89" fill="none" xmlns="http://www.w3.org/2000/svg">
<path d="M75.6284 36.1691C75.9593 35.5904 76.1676 34.9536 76.2412 34.2961C76.3147 33.6387 76.252 32.9736 76.0567 32.3398C75.8614 31.706 75.5375 31.1162 75.1038 30.6049C74.6702 30.0935 74.1355 29.6709 73.531 29.3617C71.987 28.5841 70.0552 28.2 67.7217 28.2H67.6862C66.7526 28.2088 65.8398 28.468 65.0494 28.9486C64.259 29.4293 63.622 30.1126 63.2092 30.9225L61.7989 33.653C62.7365 31.9767 64.9572 30.892 67.7217 30.892C72.0435 30.892 74.2249 32.2894 75.0711 35.62C75.105 35.7512 75.1746 35.8713 75.2725 35.9678C75.3705 36.0643 75.4934 36.1338 75.6284 36.1691ZM31.8636 66.9987H25.4547C24.5992 66.9987 23.7613 67.2339 23.0388 67.6769C22.3162 68.12 21.7388 68.7525 21.3739 69.5008L21.3208 69.6098H35.9958C35.6438 68.8334 35.0656 68.173 34.3317 67.7093C33.5979 67.2456 32.7403 66.9987 31.8636 66.9987Z" fill="#EBECED"/>
<path d="M48.6873 61.8036C48.2011 60.6745 47.9103 59.5835 47.5948 57.7985C47.5626 57.6161 47.5697 57.4292 47.6156 57.2495C47.6615 57.0699 47.7452 56.9012 47.8614 56.7542C47.9777 56.6072 48.124 56.485 48.2913 56.3951C48.4586 56.3052 48.6433 56.2497 48.8338 56.2319L55.4188 55.6197L66.1581 37.8856C66.2346 37.7593 66.2722 37.6145 66.2666 37.4683C66.261 37.322 66.2123 37.1803 66.1263 37.0599C66.0403 36.9394 65.9206 36.8452 65.7811 36.7883C65.6417 36.7314 65.4883 36.7141 65.3391 36.7385L53.879 38.6121L69.0911 8.70898C69.161 8.57157 69.187 8.41709 69.1656 8.26532C69.1442 8.11356 69.0764 7.97143 68.971 7.85714C68.8655 7.74286 68.7272 7.66162 68.5737 7.62383C68.4202 7.58605 68.2586 7.59345 68.1094 7.64507L47.0287 14.9372C46.9102 14.9782 46.8035 15.0458 46.7173 15.1345C46.6311 15.2231 46.5679 15.3303 46.5328 15.4472L35.4099 52.5495C35.3717 52.6767 35.3682 52.8112 35.3996 52.9401C35.4311 53.069 35.4964 53.1879 35.5892 53.2852C35.6821 53.3825 35.7994 53.455 35.9297 53.4956C36.0601 53.5363 36.199 53.5437 36.3332 53.5171L47.2518 51.3567L38.3716 80.7731C38.3172 80.9532 38.3328 81.1464 38.4155 81.3162C38.4981 81.486 38.6421 81.6207 38.8203 81.695C38.9985 81.7692 39.1986 81.778 39.383 81.7195C39.5674 81.661 39.7233 81.5393 39.8214 81.3774L50.0404 64.5022C49.4975 63.6486 49.0443 62.7446 48.6875 61.8037L48.6873 61.8036Z" fill="#81E200"/>
<path d="M88.8096 56.3692L88.3343 56.5442C87.6727 56.7879 87.0856 57.1895 86.6278 57.7117C86.1699 58.234 85.8562 58.8598 85.7159 59.5309C85.2353 61.8321 84.1972 63.7762 82.6472 65.2428C79.654 68.0375 74.9575 69.4542 68.6886 69.4542C64.016 69.4542 59.3837 68.4942 56.5995 66.9483L56.5737 66.9342L56.5071 66.8979C55.832 66.5224 55.0627 66.3346 54.2841 66.3555C53.5056 66.3764 52.7482 66.605 52.0957 67.0162C53.0234 67.9056 54.0723 68.6683 55.2135 69.2831C58.4767 71.0946 63.5523 72.1463 68.6885 72.1463C75.7582 72.1463 81.0756 70.4516 84.5806 67.1795C87.3722 64.5383 88.8231 60.7771 88.8101 56.3696L88.8096 56.3692Z" fill="#EBECED"/>
<path d="M41.6903 20.649H40.6001C40.2533 20.6496 39.9187 20.773 39.6596 20.9958C39.4004 21.2187 39.2346 21.5256 39.1935 21.8586C38.9914 23.4846 38.6141 24.9402 37.8989 27.3877L29.1371 55.4944L29.1311 55.5149C28.9814 56.0652 28.8767 56.4265 28.7184 56.9732L28.5975 57.391C28.4262 56.7805 28.3064 56.3894 28.0321 55.4944L19.2711 27.3899C18.6989 25.5624 18.2522 23.7004 17.9338 21.816C17.8846 21.4909 17.7159 21.1939 17.4584 20.9796C17.201 20.7652 16.8723 20.6478 16.5326 20.649H4.29377C4.05961 20.649 3.82911 20.7052 3.62287 20.8124C3.41662 20.9196 3.24105 21.0745 3.11184 21.2634C2.98263 21.4522 2.9038 21.6691 2.8824 21.8946C2.861 22.12 2.89769 22.3472 2.9892 22.5556C3.78545 24.3677 4.37801 25.8869 5.33849 28.58L18.2089 63.7575C18.9295 65.7251 19.4462 67.3038 19.7885 68.5835C19.9338 69.124 20.2607 69.6024 20.7178 69.9437C21.1749 70.285 21.7363 70.4698 22.3137 70.469H34.865C35.4407 70.4693 36.0004 70.2853 36.4568 69.9458C36.9131 69.6063 37.2405 69.1304 37.3879 68.5921C37.7313 67.3306 38.2458 65.7478 38.9603 63.7564L41.9623 55.5124C42.0146 55.3626 42.0038 55.1987 41.9322 55.0565C41.8606 54.9143 41.7339 54.805 41.5796 54.7525C41.4252 54.6999 41.2557 54.7083 41.1077 54.7757C40.9597 54.8432 40.8452 54.9643 40.7889 55.1128L37.7859 63.3594C37.0598 65.3829 36.5362 66.9942 36.1846 68.2859C36.1073 68.5671 35.936 68.8158 35.6973 68.993C35.4586 69.1703 35.1659 69.2662 34.865 69.2659H22.3137C22.012 69.2666 21.7185 69.1704 21.4795 68.9924C21.2404 68.8144 21.0693 68.5646 20.993 68.2822C20.6416 66.9683 20.1146 65.3569 19.3818 63.356L6.51296 28.1831C5.5436 25.4649 4.94357 23.9261 4.13434 22.085C4.12325 22.0595 4.11883 22.0318 4.12147 22.0043C4.12412 21.9768 4.13374 21.9504 4.1495 21.9273C4.16526 21.9043 4.18665 21.8854 4.21179 21.8722C4.23693 21.8591 4.26503 21.8522 4.29359 21.8521L16.5326 21.8519C16.5744 21.8521 16.6148 21.8669 16.6463 21.8936C16.6778 21.9203 16.6983 21.957 16.7041 21.9972C17.0312 23.9369 17.4906 25.8537 18.0792 27.7349L26.8401 55.8388C27.3207 57.4075 27.3207 57.4075 27.9827 59.8523C28.0174 59.9805 28.0949 60.094 28.2031 60.1752C28.3114 60.2565 28.4443 60.3009 28.5813 60.3016H28.5845C28.721 60.3015 28.8537 60.2581 28.9621 60.178C29.0705 60.0978 29.1487 59.9855 29.1846 59.8581C29.5468 58.5742 29.7581 57.8446 29.9165 57.2977C30.0754 56.7487 30.1808 56.3851 30.3315 55.8313L39.0931 27.7247C39.8136 25.2593 40.2182 23.6972 40.4288 22.0021C40.4334 21.9612 40.4534 21.9233 40.485 21.8957C40.5166 21.868 40.5575 21.8525 40.6001 21.8521H41.6903C41.8553 21.8521 42.0135 21.7887 42.1302 21.6759C42.2469 21.5631 42.3124 21.4101 42.3124 21.2505C42.3124 21.091 42.2469 20.938 42.1302 20.8252C42.0135 20.7124 41.8553 20.649 41.6903 20.649ZM82.6165 43.9984C80.247 42.5514 77.2584 41.5313 72.6191 40.5868C70.7492 40.219 69.2724 39.9285 68.2115 39.714C68.1315 39.6979 68.0491 39.6971 67.9688 39.7117C67.8885 39.7264 67.812 39.7562 67.7436 39.7994C67.6753 39.8427 67.6164 39.8985 67.5703 39.9638C67.5243 40.029 67.492 40.1024 67.4752 40.1797C67.4585 40.2571 67.4577 40.3368 67.4728 40.4144C67.488 40.4921 67.5188 40.5661 67.5635 40.6322C67.6082 40.6983 67.666 40.7552 67.7335 40.7998C67.8009 40.8443 67.8768 40.8756 67.9568 40.8917C69.0207 41.1069 70.4993 41.3977 72.3671 41.765C76.8487 42.6775 79.7152 43.6495 81.9546 45.0171C86.1492 47.5522 88.1881 51.2848 88.1881 56.4277C88.1881 60.6781 86.7902 64.2475 84.1484 66.7467C80.7384 69.9305 75.5372 71.5448 68.6885 71.5448C63.5842 71.5448 58.6625 70.5042 55.5172 68.7582C52.5767 67.1656 50.475 64.7557 49.271 61.5956C49.268 61.5878 49.2648 61.58 49.2615 61.5722C48.8059 60.5149 48.5203 59.4645 48.2078 57.6971C48.1901 57.5963 48.1941 57.4929 48.2195 57.3936C48.2449 57.2943 48.2912 57.201 48.3555 57.1198C48.4198 57.0385 48.5008 56.9709 48.5933 56.9212C48.6858 56.8715 48.7879 56.8408 48.8932 56.8309L58.6675 55.922C58.8571 55.9042 59.0467 55.955 59.1997 56.0647C59.3527 56.1743 59.4582 56.335 59.4958 56.5155C59.697 57.743 60.2143 58.9019 61.0001 59.8855L61.012 59.9004C62.5974 61.817 65.2808 62.8726 68.5677 62.8726C73.5357 62.8726 76.6221 60.6269 76.6221 57.0119C76.6221 54.9502 75.5112 53.1736 73.7296 52.3783C72.3859 51.7597 70.7538 51.3268 64.5381 49.9396C64.3783 49.9062 64.2114 49.9351 64.0734 50.0198C63.9355 50.1045 63.8375 50.2383 63.8008 50.3923C63.764 50.5463 63.7914 50.7081 63.877 50.8427C63.9627 50.9774 64.0996 51.074 64.2583 51.1118C70.3653 52.4747 71.9521 52.8926 73.2016 53.4676C74.5438 54.067 75.3779 55.4251 75.3779 57.0119C75.3779 59.9283 72.8319 61.6695 68.5677 61.6695C65.7129 61.6695 63.3158 60.7534 61.9895 59.156C61.3221 58.3214 60.8849 57.3365 60.7187 56.2938C60.6272 55.8163 60.3531 55.3897 59.9509 55.0988C59.5488 54.808 59.0481 54.6743 58.5486 54.7244L48.7741 55.6331C48.4985 55.6588 48.2313 55.7392 47.9893 55.8692C47.7472 55.9993 47.5354 56.1762 47.3672 56.3888C47.199 56.6015 47.0779 56.8455 47.0116 57.1055C46.9452 57.3654 46.935 57.6358 46.9815 57.8998C47.3103 59.759 47.616 60.8784 48.1081 62.0234C49.4182 65.454 51.7065 68.0734 54.9036 69.8047C58.2232 71.6476 63.3764 72.7479 68.6885 72.7479C75.8704 72.7479 81.3628 71.0199 85.0154 67.6095C87.905 64.876 89.4321 61.0093 89.4321 56.4277C89.4321 50.8361 87.2021 46.77 82.6165 43.9984ZM61.5027 34.1821C61.6478 34.2579 61.8181 34.275 61.9762 34.2294C62.1343 34.1839 62.2672 34.0795 62.3457 33.9392C63.1896 32.4307 65.2494 31.4934 67.7215 31.4934C71.7422 31.4934 73.6964 32.7306 74.4669 35.7635C74.5502 36.0842 74.7506 36.3649 75.0312 36.5538C75.3119 36.7427 75.6537 36.8271 75.9936 36.7913L87.1957 35.616C87.3967 35.5948 87.5907 35.5322 87.7647 35.4325C87.9387 35.3329 88.0886 35.1984 88.2045 35.0381C88.3203 34.8778 88.3994 34.6954 88.4364 34.5032C88.4735 34.311 88.4676 34.1133 88.4192 33.9234C87.6791 31.0239 86.915 29.3558 85.5084 27.5602C82.1418 23.0387 76.1585 20.6488 68.2049 20.6488C68.0399 20.6488 67.8817 20.7122 67.765 20.825C67.6484 20.9378 67.5828 21.0908 67.5828 21.2504C67.5828 21.4099 67.6484 21.5629 67.765 21.6757C67.8817 21.7885 68.0399 21.8519 68.2049 21.8519C75.7416 21.8519 81.3759 24.0689 84.5076 28.2749C85.809 29.9364 86.5164 31.49 87.2109 34.2116C87.217 34.2351 87.2178 34.2595 87.2132 34.2832C87.2086 34.3069 87.1987 34.3294 87.1843 34.3491C87.1703 34.3688 87.1521 34.3853 87.1309 34.3976C87.1097 34.4098 87.086 34.4174 87.0615 34.4199L75.8594 35.5951C75.8191 35.6 75.7782 35.5907 75.7444 35.5689C75.7105 35.5472 75.6859 35.5143 75.6749 35.4765C74.7638 31.8898 72.3109 30.2905 67.7215 30.2905C64.7921 30.2905 62.3128 31.4692 61.2516 33.3669C61.1731 33.5072 61.1555 33.6719 61.2026 33.8248C61.2497 33.9776 61.3577 34.1062 61.5027 34.1821Z" fill="#2B608E"/>
<path d="M66.2093 81.858C66.1059 81.8581 66.004 81.8333 65.913 81.7857C65.822 81.7382 65.7448 81.6694 65.6882 81.5857L63.1542 77.8406C63.1095 77.7744 63.0787 77.7005 63.0635 77.6228C63.0484 77.5452 63.0492 77.4655 63.0659 77.3881C63.0826 77.3108 63.1149 77.2374 63.161 77.1722C63.207 77.1069 63.2659 77.0511 63.3343 77.0078C63.4026 76.9646 63.4791 76.9348 63.5594 76.9201C63.6397 76.9055 63.7221 76.9062 63.8021 76.9224C63.8821 76.9386 63.958 76.9698 64.0254 77.0144C64.0929 77.0589 64.1507 77.1158 64.1954 77.1819L66.7292 80.9269C66.7905 81.0176 66.8254 81.1227 66.8301 81.231C66.8348 81.3392 66.8092 81.4468 66.7559 81.5421C66.7026 81.6375 66.6237 81.7172 66.5275 81.7728C66.4313 81.8284 66.3214 81.8578 66.2093 81.858ZM48.1296 83.7154C48.0303 83.7153 47.9324 83.6923 47.8442 83.6482C47.7559 83.6041 47.6799 83.5402 47.6224 83.4618C47.5649 83.3835 47.5277 83.293 47.5138 83.1979C47.4998 83.1028 47.5096 83.0059 47.5424 82.9152L49.0693 78.6901C49.0963 78.6156 49.1381 78.5469 49.1926 78.4879C49.247 78.429 49.3129 78.381 49.3864 78.3467C49.46 78.3124 49.5399 78.2925 49.6215 78.288C49.703 78.2836 49.7847 78.2947 49.8618 78.3208C49.9389 78.3468 50.01 78.3874 50.0709 78.44C50.1318 78.4926 50.1815 78.5563 50.2169 78.6275C50.2524 78.6986 50.273 78.7759 50.2776 78.8547C50.2822 78.9336 50.2707 79.0126 50.2438 79.0872L48.7168 83.312C48.6743 83.4299 48.5949 83.532 48.4897 83.6042C48.3845 83.6765 48.2587 83.7154 48.1296 83.7154ZM31.6488 17.2209C31.5239 17.221 31.4018 17.1844 31.2987 17.1161L27.4762 14.593C27.4075 14.5489 27.3485 14.4922 27.3027 14.4259C27.2569 14.3597 27.2252 14.2853 27.2093 14.2071C27.1935 14.1289 27.1939 14.0484 27.2105 13.9704C27.2271 13.8923 27.2596 13.8182 27.306 13.7524C27.3525 13.6866 27.412 13.6303 27.4811 13.5869C27.5503 13.5436 27.6276 13.5139 27.7087 13.4996C27.7898 13.4854 27.873 13.4869 27.9534 13.504C28.0339 13.5211 28.1101 13.5535 28.1775 13.5994L32 16.1225C32.1099 16.195 32.1928 16.2996 32.2367 16.421C32.2805 16.5424 32.283 16.6742 32.2437 16.7971C32.2044 16.9199 32.1255 17.0274 32.0184 17.1037C31.9113 17.1799 31.7818 17.221 31.6488 17.2209ZM44.0567 10.7638C43.8978 10.7636 43.7451 10.7047 43.6297 10.5992C43.5144 10.4936 43.4451 10.3494 43.4362 10.1961L43.176 5.72765C43.1667 5.56833 43.2232 5.41197 43.3332 5.29297C43.4431 5.17397 43.5974 5.10207 43.7621 5.09309C43.9269 5.08411 44.0886 5.13878 44.2116 5.24509C44.3347 5.35139 44.4091 5.50061 44.4183 5.65993L44.6784 10.1283C44.683 10.2072 44.6714 10.2862 44.6445 10.3608C44.6175 10.4353 44.5756 10.504 44.5211 10.5629C44.4667 10.6218 44.4008 10.6698 44.3272 10.7041C44.2536 10.7384 44.1738 10.7583 44.0922 10.7627C44.0804 10.7634 44.0685 10.7637 44.0567 10.7638Z" fill="#6B90B0"/>
</svg>
