<svg width="24" height="24" viewBox="0 0 24 24" fill="none" xmlns="http://www.w3.org/2000/svg">
<mask id="path-1-inside-1_7_4367" fill="white">
<path fill-rule="evenodd" clip-rule="evenodd" d="M1.8202 22.0279C1.8202 22.3696 1.90562 22.7113 2.16189 22.8822C2.41817 23.053 2.67444 23.1384 3.10157 23.053L6.60398 21.6008C10.021 23.651 14.3776 23.5656 17.7946 21.5154C23.0055 18.3546 24.714 11.5207 21.5533 6.30976C18.3926 1.09885 11.5586 -0.524225 6.34771 2.55107C1.1368 5.62636 -0.571698 12.4603 2.58902 17.6712L1.8202 22.0279ZM7.03111 19.9777C6.94568 19.8923 6.77483 19.8069 6.60398 19.8069H6.17686L3.69954 20.832L4.21209 17.6712C4.29751 17.5004 4.21209 17.2441 4.12666 17.0733C2.16189 13.998 2.16189 9.98302 4.12666 6.90773C6.94568 2.46564 12.7546 1.35512 17.1112 4.08871C21.4679 6.8223 22.7493 12.7166 20.0157 17.0733C17.2821 21.4299 11.4732 22.7967 7.03111 19.9777ZM12.0708 15.3649C11.5582 15.3649 11.2166 15.0232 11.2166 14.5106C11.302 13.4001 11.8999 12.4604 12.7542 11.777C13.2667 11.2645 13.7793 10.7519 13.7793 10.2394C13.7793 9.29971 13.0105 8.53088 12.0708 8.53088C11.1311 8.53088 10.3623 9.29971 10.3623 10.2394C10.3623 10.7519 10.0206 11.0936 9.50806 11.0936C8.99551 11.0936 8.65381 10.7519 8.65381 10.2394C8.65381 8.36003 10.1915 6.82239 12.0708 6.82239C13.9501 6.82239 15.4878 8.36003 15.4878 10.2394C15.4024 11.3499 14.8044 12.2896 13.9501 12.973L13.9501 12.973C13.4376 13.4855 12.925 13.9981 12.925 14.5106C12.925 15.0232 12.5833 15.3649 12.0708 15.3649ZM12.071 17.9276C12.5428 17.9276 12.9253 17.5452 12.9253 17.0734C12.9253 16.6016 12.5428 16.2191 12.071 16.2191C11.5993 16.2191 11.2168 16.6016 11.2168 17.0734C11.2168 17.5452 11.5993 17.9276 12.071 17.9276Z"/>
</mask>
<path fill-rule="evenodd" clip-rule="evenodd" d="M1.8202 22.0279C1.8202 22.3696 1.90562 22.7113 2.16189 22.8822C2.41817 23.053 2.67444 23.1384 3.10157 23.053L6.60398 21.6008C10.021 23.651 14.3776 23.5656 17.7946 21.5154C23.0055 18.3546 24.714 11.5207 21.5533 6.30976C18.3926 1.09885 11.5586 -0.524225 6.34771 2.55107C1.1368 5.62636 -0.571698 12.4603 2.58902 17.6712L1.8202 22.0279ZM7.03111 19.9777C6.94568 19.8923 6.77483 19.8069 6.60398 19.8069H6.17686L3.69954 20.832L4.21209 17.6712C4.29751 17.5004 4.21209 17.2441 4.12666 17.0733C2.16189 13.998 2.16189 9.98302 4.12666 6.90773C6.94568 2.46564 12.7546 1.35512 17.1112 4.08871C21.4679 6.8223 22.7493 12.7166 20.0157 17.0733C17.2821 21.4299 11.4732 22.7967 7.03111 19.9777ZM12.0708 15.3649C11.5582 15.3649 11.2166 15.0232 11.2166 14.5106C11.302 13.4001 11.8999 12.4604 12.7542 11.777C13.2667 11.2645 13.7793 10.7519 13.7793 10.2394C13.7793 9.29971 13.0105 8.53088 12.0708 8.53088C11.1311 8.53088 10.3623 9.29971 10.3623 10.2394C10.3623 10.7519 10.0206 11.0936 9.50806 11.0936C8.99551 11.0936 8.65381 10.7519 8.65381 10.2394C8.65381 8.36003 10.1915 6.82239 12.0708 6.82239C13.9501 6.82239 15.4878 8.36003 15.4878 10.2394C15.4024 11.3499 14.8044 12.2896 13.9501 12.973L13.9501 12.973C13.4376 13.4855 12.925 13.9981 12.925 14.5106C12.925 15.0232 12.5833 15.3649 12.0708 15.3649ZM12.071 17.9276C12.5428 17.9276 12.9253 17.5452 12.9253 17.0734C12.9253 16.6016 12.5428 16.2191 12.071 16.2191C11.5993 16.2191 11.2168 16.6016 11.2168 17.0734C11.2168 17.5452 11.5993 17.9276 12.071 17.9276Z" fill="#737C81"/>
<path d="M2.16189 22.8822L-6.71328 36.195L-6.71328 36.195L2.16189 22.8822ZM1.8202 22.0279L-13.9363 19.2473L-14.1798 20.627V22.0279H1.8202ZM3.10157 23.053L6.23941 38.7423L7.77924 38.4343L9.22981 37.8329L3.10157 23.053ZM6.60398 21.6008L14.8359 7.8809L7.92288 3.73307L0.475735 6.82091L6.60398 21.6008ZM17.7946 21.5154L26.0266 35.2353L26.0595 35.2155L26.0924 35.1955L17.7946 21.5154ZM21.5533 6.30976L7.87316 14.6076L7.87316 14.6076L21.5533 6.30976ZM6.34771 2.55107L-1.78435 -11.2283L6.34771 2.55107ZM2.58902 17.6712L18.3456 20.4518L19.392 14.5219L16.2692 9.37345L2.58902 17.6712ZM7.03111 19.9777L-4.2826 31.2914L-3.03354 32.5405L-1.54209 33.487L7.03111 19.9777ZM6.17686 19.8069V3.80687H2.99725L0.0592313 5.0226L6.17686 19.8069ZM3.69954 20.832L-12.0941 18.2708L-16.6853 46.5828L9.81717 35.6162L3.69954 20.832ZM4.21209 17.6712L-10.0987 10.5158L-11.1907 12.6998L-11.5816 15.1101L4.21209 17.6712ZM4.12666 17.0733L18.4375 9.9179L18.0619 9.16675L17.6098 8.45904L4.12666 17.0733ZM4.12666 6.90773L17.6098 15.522L17.6229 15.5015L17.6359 15.4809L4.12666 6.90773ZM17.1112 4.08871L8.60737 17.6417L17.1112 4.08871ZM20.0157 17.0733L33.5687 25.5771V25.5771L20.0157 17.0733ZM11.2166 14.5106L-4.73632 13.2835L-4.78345 13.8961V14.5106H11.2166ZM12.7542 11.777L22.7493 24.2709L23.4413 23.7173L24.0679 23.0907L12.7542 11.777ZM15.4878 10.2394L31.4407 11.4665L31.4878 10.8539V10.2394H15.4878ZM13.9501 12.973L3.95502 0.479074L3.26304 1.03265L2.63644 1.65926L13.9501 12.973ZM11.0371 9.56934C14.485 11.868 16.1844 14.958 16.9628 17.1377C17.7097 19.229 17.8202 21.0038 17.8202 22.0279H-14.1798C-14.1798 23.6456 -13.9836 31.3481 -6.71328 36.195L11.0371 9.56934ZM-0.0362786 7.36371C1.39905 7.07665 3.48826 6.89773 5.92016 7.41885C8.35724 7.94109 10.1057 8.94845 11.0371 9.56934L-6.71328 36.195C-5.52567 36.9867 -3.52091 38.1222 -0.784839 38.7085C1.94605 39.2937 4.37696 39.1148 6.23941 38.7423L-0.0362786 7.36371ZM0.475735 6.82091L-3.02668 8.27314L9.22981 37.8329L12.7322 36.3807L0.475735 6.82091ZM9.5627 7.79547C10.9761 6.94746 12.9537 6.75158 14.8359 7.8809L-1.62795 35.3207C7.08823 40.5504 17.7792 40.1837 26.0266 35.2353L9.5627 7.79547ZM7.87316 14.6076C6.40453 12.1863 7.22946 9.2105 9.49683 7.83521L26.0924 35.1955C38.7816 27.4988 43.0235 10.855 35.2335 -1.98804L7.87316 14.6076ZM14.4798 16.3304C12.3193 17.6054 9.36009 17.059 7.87316 14.6076L35.2335 -1.98804C27.4251 -14.8613 10.798 -18.6539 -1.78435 -11.2283L14.4798 16.3304ZM16.2692 9.37345C17.6966 11.7268 17 14.843 14.4798 16.3304L-1.78435 -11.2283C-14.7264 -3.59033 -18.84 13.1939 -11.0911 25.969L16.2692 9.37345ZM17.5767 24.8085L18.3456 20.4518L-13.1675 14.8907L-13.9363 19.2473L17.5767 24.8085ZM6.60398 35.8069C4.11544 35.8069 2.05194 35.2116 0.546891 34.5666C-0.889566 33.951 -2.63296 32.9411 -4.2826 31.2914L18.3448 8.66401C15.4608 5.77998 11.2957 3.80687 6.60398 3.80687V35.8069ZM6.17686 35.8069H6.60398V3.80687H6.17686V35.8069ZM9.81717 35.6162L12.2945 34.5911L0.0592313 5.0226L-2.41809 6.04769L9.81717 35.6162ZM-11.5816 15.1101L-12.0941 18.2708L19.4932 23.3931L20.0058 20.2324L-11.5816 15.1101ZM-10.1842 24.2286C-10.5431 23.5109 -11.1114 22.2322 -11.4558 20.5101C-11.7346 19.1164 -12.3635 15.0452 -10.0987 10.5158L18.5229 24.8267C20.8731 20.1264 20.2442 15.8417 19.9227 14.2344C19.5356 12.2987 18.8818 10.8065 18.4375 9.9179L-10.1842 24.2286ZM-9.35648 -1.7065C-14.6771 6.62137 -14.6771 17.3596 -9.35648 25.6875L17.6098 8.45904C19.0008 10.6363 19.0008 13.3447 17.6098 15.522L-9.35648 -1.7065ZM25.6151 -9.46431C14.2207 -16.6137 -1.58436 -13.9536 -9.38261 -1.66546L17.6359 15.4809C15.4757 18.8849 11.2884 19.324 8.60737 17.6417L25.6151 -9.46431ZM33.5687 25.5771C40.8886 13.911 37.6313 -1.92473 25.6151 -9.46431L8.60737 17.6417C5.30449 15.5693 4.60988 11.5223 6.46265 8.56942L33.5687 25.5771ZM-1.54209 33.487C10.4135 41.0742 26.1376 37.4204 33.5687 25.5771L6.46265 8.56942C8.42654 5.43946 12.5328 4.51925 15.6043 6.46845L-1.54209 33.487ZM-4.78345 14.5106C-4.78345 18.4028 -3.41621 22.8897 0.137761 26.4437C3.69173 29.9976 8.17857 31.3649 12.0708 31.3649V-0.635136C15.4505 -0.635136 19.5102 0.561255 22.7652 3.81624C26.0202 7.07122 27.2166 11.1309 27.2166 14.5106H-4.78345ZM2.75908 -0.716879C-0.791775 2.1238 -4.24261 6.86526 -4.73632 13.2835L27.1694 15.7378C26.8466 19.9349 24.5917 22.797 22.7493 24.2709L2.75908 -0.716879ZM-2.22071 10.2394C-2.22071 5.27488 0.161777 2.0711 0.658951 1.4082C1.2823 0.577063 1.90589 -0.00209129 1.44049 0.463315L24.0679 23.0907C24.115 23.0436 25.2512 21.9519 26.259 20.6082C27.1405 19.4328 29.7793 15.7164 29.7793 10.2394H-2.22071ZM12.0708 24.5309C4.17391 24.5309 -2.22071 18.1363 -2.22071 10.2394H29.7793C29.7793 0.463155 21.847 -7.46912 12.0708 -7.46912V24.5309ZM26.3623 10.2394C26.3623 18.1363 19.9677 24.5309 12.0708 24.5309V-7.46912C2.29458 -7.46912 -5.6377 0.463138 -5.6377 10.2394H26.3623ZM9.50806 27.0936C13.4003 27.0936 17.8871 25.7264 21.4411 22.1724C24.9951 18.6185 26.3623 14.1316 26.3623 10.2394H-5.6377C-5.6377 6.85969 -4.4413 2.79998 -1.18632 -0.455001C2.06865 -3.70998 6.12837 -4.90637 9.50806 -4.90637V27.0936ZM-7.34619 10.2394C-7.34619 14.1316 -5.97894 18.6185 -2.42498 22.1724C1.12899 25.7264 5.61582 27.0936 9.50806 27.0936V-4.90637C12.8877 -4.90637 16.9475 -3.70998 20.2024 -0.455006C23.4574 2.79997 24.6538 6.85969 24.6538 10.2394H-7.34619ZM12.0708 -9.17761C1.3549 -9.17761 -7.34619 -0.476524 -7.34619 10.2394H24.6538C24.6538 17.1966 19.028 22.8224 12.0708 22.8224V-9.17761ZM31.4878 10.2394C31.4878 -0.476524 22.7867 -9.17761 12.0708 -9.17761V22.8224C5.11359 22.8224 -0.51221 17.1966 -0.51221 10.2394H31.4878ZM23.9453 25.4669C27.4961 22.6262 30.9469 17.8847 31.4407 11.4665L-0.465082 9.01223C-0.142221 4.81507 2.11266 1.95296 3.95502 0.479074L23.9453 25.4669ZM25.2638 24.2867L25.2639 24.2867L2.63644 1.65926L2.63643 1.65927L25.2638 24.2867ZM28.925 14.5106C28.925 19.4751 26.5426 22.6789 26.0454 23.3418C25.422 24.1729 24.7984 24.7521 25.2638 24.2867L2.63643 1.65927C2.58929 1.70641 1.45315 2.79811 0.445386 4.1418C-0.436202 5.31725 -3.07495 9.03357 -3.07495 14.5106H28.925ZM12.0708 31.3649C15.963 31.3649 20.4499 29.9976 24.0038 26.4436C27.5578 22.8897 28.925 18.4028 28.925 14.5106H-3.07495C-3.07495 11.1309 -1.87856 7.07122 1.37642 3.81624C4.63139 0.56126 8.69111 -0.635136 12.0708 -0.635136V31.3649ZM-3.07471 17.0734C-3.07471 8.70861 3.70626 1.92761 12.071 1.92761V33.9276C21.3794 33.9276 28.9253 26.3817 28.9253 17.0734H-3.07471ZM12.071 32.2191C3.70628 32.2191 -3.07471 25.4381 -3.07471 17.0734H28.9253C28.9253 7.76502 21.3794 0.219116 12.071 0.219116V32.2191ZM27.2168 17.0734C27.2168 25.4381 20.4358 32.2191 12.071 32.2191V0.219116C2.76271 0.219116 -4.7832 7.76501 -4.7832 17.0734H27.2168ZM12.071 1.92761C20.4358 1.92761 27.2168 8.7086 27.2168 17.0734H-4.7832C-4.7832 26.3817 2.7627 33.9276 12.071 33.9276V1.92761Z" fill="#81E200" mask="url(#path-1-inside-1_7_4367)"/>
</svg>
