<svg width="24" height="25" viewBox="0 0 24 25" fill="none" xmlns="http://www.w3.org/2000/svg">
<path d="M17.6569 17.143C16.7202 18.0796 14.7616 20.0383 13.4138 21.3861C12.6327 22.1671 11.3677 22.1676 10.5866 21.3865C9.26234 20.0622 7.34159 18.1415 6.34315 17.143C3.21895 14.0188 3.21895 8.95352 6.34315 5.82932C9.46734 2.70513 14.5327 2.70513 17.6569 5.82932C20.781 8.95352 20.781 14.0188 17.6569 17.143Z" stroke="white" stroke-width="2" stroke-linecap="round" stroke-linejoin="round"/>
<path d="M15 11.4862C15 13.143 13.6569 14.4862 12 14.4862C10.3431 14.4862 9 13.143 9 11.4862C9 9.82932 10.3431 8.48618 12 8.48618C13.6569 8.48618 15 9.82932 15 11.4862Z" stroke="white" stroke-width="2" stroke-linecap="round" stroke-linejoin="round"/>
</svg>
