<svg width="24" height="25" viewBox="0 0 24 25" fill="none" xmlns="http://www.w3.org/2000/svg">
<path d="M3 19.4862V10.5565C3 9.88784 3.3342 9.26337 3.8906 8.89244L10.8906 4.22578C11.5624 3.77791 12.4376 3.77791 13.1094 4.22578L20.1094 8.89244C20.6658 9.26337 21 9.88784 21 10.5565V19.4862M3 19.4862C3 20.5907 3.89543 21.4862 5 21.4862H19C20.1046 21.4862 21 20.5907 21 19.4862M3 19.4862L9.75 14.9862M21 19.4862L14.25 14.9862M3 10.4862L9.75 14.9862M21 10.4862L14.25 14.9862M14.25 14.9862L13.1094 15.7466C12.4376 16.1944 11.5624 16.1944 10.8906 15.7466L9.75 14.9862" stroke="white" stroke-width="2" stroke-linecap="round" stroke-linejoin="round"/>
</svg>
