<svg width="24" height="25" viewBox="0 0 24 25" fill="none" xmlns="http://www.w3.org/2000/svg">
<path d="M3 5.48618C3 4.38161 3.89543 3.48618 5 3.48618H8.27924C8.70967 3.48618 9.09181 3.76161 9.22792 4.16995L10.7257 8.66339C10.8831 9.1355 10.6694 9.65149 10.2243 9.87404L7.96701 11.0027C9.06925 13.4474 11.0388 15.4169 13.4835 16.5192L14.6121 14.2619C14.8347 13.8168 15.3507 13.6031 15.8228 13.7604L20.3162 15.2583C20.7246 15.3944 21 15.7765 21 16.2069V19.4862C21 20.5907 20.1046 21.4862 19 21.4862H18C9.71573 21.4862 3 14.7704 3 6.48618V5.48618Z" stroke="white" stroke-width="2" stroke-linecap="round" stroke-linejoin="round"/>
</svg>
