<svg width="49" height="49" viewBox="0 0 49 49" fill="none" xmlns="http://www.w3.org/2000/svg">
<circle cx="24.5452" cy="24.2828" r="24.0792" fill="#F2FCE6"/>
<g clip-path="url(#clip0_776_954)">
<path d="M34.7221 14.1056C33.5472 12.9299 31.9841 12.2827 30.3223 12.2827C28.6604 12.2827 27.0973 12.9299 25.9224 14.1056C24.7471 15.2805 24.0996 16.8436 24.0996 18.5054C24.0996 20.1673 24.7471 21.7303 25.9224 22.9052C27.0973 24.0809 28.6604 24.7281 30.3223 24.7281C31.9841 24.7281 33.5472 24.0809 34.7221 22.9052C35.8974 21.7303 36.5449 20.1673 36.5449 18.5054C36.5449 16.8436 35.8974 15.2805 34.7221 14.1056ZM26.4724 14.6555C27.3326 13.7952 28.4313 13.264 29.6183 13.1111C29.5961 13.6513 29.6731 14.5563 30.3223 15.2054C30.7878 15.671 31.312 15.8954 31.8192 16.1128C32.2789 16.31 32.7129 16.4959 33.0727 16.8552C33.7377 17.5207 34.0232 19.2047 32.5224 20.7055C31.0215 22.2064 29.3379 21.9205 28.6725 21.2554C28.3127 20.8957 28.1268 20.4617 27.9296 20.002C27.7122 19.4948 27.4878 18.9706 27.0223 18.505C26.3732 17.8555 25.4682 17.7785 24.928 17.8007C25.0804 16.6141 25.6121 15.5154 26.4724 14.6555ZM34.1722 22.3553C33.1439 23.384 31.7764 23.9503 30.3223 23.9503C28.8681 23.9503 27.5007 23.384 26.4724 22.3553C25.4623 21.3453 24.9011 20.0078 24.8813 18.5828C25.2667 18.5571 25.9983 18.5816 26.4724 19.0553C26.8317 19.4151 27.0176 19.8487 27.2148 20.3084C27.4322 20.816 27.657 21.3402 28.1225 21.8058C28.6067 22.29 29.3293 22.5719 30.1329 22.5719C31.0849 22.5719 32.1513 22.1768 33.0723 21.2558C34.7707 19.5574 34.6801 17.3635 33.6226 16.3053C33.1571 15.8398 32.6328 15.6154 32.1257 15.398C31.666 15.2008 31.2319 15.0149 30.8722 14.6555C30.3985 14.1814 30.374 13.4502 30.3996 13.0644C31.8246 13.0843 33.1621 13.6455 34.1722 14.6555C35.2005 15.6838 35.7671 17.0512 35.7671 18.5054C35.7671 19.9596 35.2005 21.327 34.1722 22.3553ZM13.6635 34.6136L24.9908 23.2863L25.5408 23.8363L14.2134 35.1636L13.6635 34.6136ZM13.0948 36.2808L12.5448 35.7308L13.1259 35.1496L13.6759 35.6997L13.0948 36.2808ZM23.0466 20.1737L23.5965 20.7237L20.3524 23.9679L19.8024 23.4179L23.0466 20.1737ZM17.991 25.2309L18.541 25.7809L16.5159 27.806L15.9659 27.256L17.991 25.2309ZM15.4358 27.7837L15.9858 28.3337L15.4283 28.8911L14.8784 28.3412L15.4358 27.7837ZM19.3446 35.0889L18.7946 34.5389L28.1023 25.2312L28.6522 25.7812L19.3446 35.0889ZM18.1506 36.2829L17.6006 35.7329L18.1817 35.1518L18.7317 35.7018L18.1506 36.2829Z" fill="#81E200"/>
</g>
<defs>
<clipPath id="clip0_776_954">
<rect width="24" height="24" fill="white" transform="translate(12.5452 12.2827)"/>
</clipPath>
</defs>
</svg>
