<svg width="189" height="189" viewBox="0 0 189 189" fill="none" xmlns="http://www.w3.org/2000/svg">
<path d="M157.212 83.9009C165.23 78.46 175.253 77.8873 180.694 77.8873C167.234 120.269 112.253 129.433 85.3345 96.2145C71.3027 79.3191 68.7254 57.5554 77.889 38.0827C87.6254 17.4645 109.389 3.71908 133.444 6.29635C127.43 22.9054 113.971 27.4873 107.957 32.3554C92.2072 42.9509 86.7663 63.5691 95.6436 79.6054C105.953 97.6463 128.862 102.515 145.471 91.6327L157.212 83.9009Z" fill="#E6ECF1"/>
<path d="M182.125 72.1601C175.825 71.8737 164.084 72.4464 154.062 79.0328L142.607 86.7646C128.575 95.9283 109.389 91.6328 100.798 76.7419C93.0663 63.2828 97.6481 46.101 111.107 37.2237C116.834 32.3555 132.584 27.201 139.171 7.15552C168.666 13.1692 188.139 42.0919 182.125 72.1601ZM66.7208 64.1419C56.1254 70.1555 28.0617 89.6282 11.4526 134.301C10.0208 138.024 4.86628 136.019 6.01173 132.296C25.1981 80.751 58.4163 61.5646 66.7208 57.5555V64.1419ZM78.1754 96.501C69.0117 101.083 32.9299 123.133 16.3208 181.551C15.7481 183.269 14.0299 184.128 12.8845 183.556C11.4526 183.269 10.5936 181.551 10.8799 180.119C27.7754 120.269 64.1436 97.3601 75.0254 91.9192C75.8845 93.351 77.0299 95.0692 78.1754 96.501ZM105.953 118.265C100.225 121.128 73.3072 135.446 54.4072 173.819C53.8345 175.251 52.1163 175.824 50.6845 175.251C49.2527 174.392 48.6799 172.96 49.2527 171.528C66.1481 137.165 89.0572 121.128 99.3663 115.401C101.657 116.26 103.662 117.406 105.953 118.265Z" fill="#E6ECF1"/>
</svg>
