<svg width="49" height="49" viewBox="0 0 49 49" fill="none" xmlns="http://www.w3.org/2000/svg">
<circle cx="24.1718" cy="24.2828" r="24.0792" fill="#F2FCE6"/>
<g clip-path="url(#clip0_776_943)">
<path d="M29.1719 22.3217C25.3129 22.3217 22.1719 25.4617 22.1719 29.3217C22.1719 33.1597 25.3129 36.2827 29.1719 36.2827C33.0309 36.2827 36.1719 33.1427 36.1719 29.2827C36.1719 25.4447 33.0309 22.3217 29.1719 22.3217ZM29.1719 34.2827C26.4149 34.2827 24.1719 32.0567 24.1719 29.3217C24.1719 26.5647 26.4149 24.3217 29.1719 24.3217C31.9289 24.3217 34.1719 26.5477 34.1719 29.2827C34.1719 32.0397 31.9289 34.2827 29.1719 34.2827ZM30.8789 29.5757C31.0664 29.7632 31.1717 30.0175 31.1717 30.2827C31.1717 30.5479 31.0664 30.8022 30.8789 30.9897C30.6914 31.1772 30.4371 31.2826 30.1719 31.2826C29.9067 31.2826 29.6524 31.1772 29.4649 30.9897L28.4649 29.9897C28.2773 29.8022 28.1719 29.5479 28.1719 29.2827V27.2827C28.1719 27.0175 28.2772 26.7631 28.4648 26.5756C28.6523 26.3881 28.9067 26.2827 29.1719 26.2827C29.4371 26.2827 29.6914 26.3881 29.879 26.5756C30.0665 26.7631 30.1719 27.0175 30.1719 27.2827V28.8687L30.8789 29.5757ZM36.1719 19.2827V21.2827C36.1719 21.5479 36.0665 21.8023 35.879 21.9898C35.6914 22.1774 35.4371 22.2827 35.1719 22.2827C34.9067 22.2827 34.6523 22.1774 34.4648 21.9898C34.2772 21.8023 34.1719 21.5479 34.1719 21.2827V19.2827C34.1719 17.6287 32.8259 16.2827 31.1719 16.2827H17.1719C15.5179 16.2827 14.1719 17.6287 14.1719 19.2827V20.2827H23.1719C23.4371 20.2827 23.6914 20.3881 23.879 20.5756C24.0665 20.7631 24.1719 21.0175 24.1719 21.2827C24.1719 21.5479 24.0665 21.8023 23.879 21.9898C23.6914 22.1774 23.4371 22.2827 23.1719 22.2827H14.1719V31.2827C14.1719 32.9367 15.5179 34.2827 17.1719 34.2827H21.1719C21.4371 34.2827 21.6914 34.3881 21.879 34.5756C22.0665 34.7631 22.1719 35.0175 22.1719 35.2827C22.1719 35.5479 22.0665 35.8023 21.879 35.9898C21.6914 36.1774 21.4371 36.2827 21.1719 36.2827H17.1719C14.4149 36.2827 12.1719 34.0397 12.1719 31.2827V19.2827C12.1719 16.5257 14.4149 14.2827 17.1719 14.2827H18.1719V13.2827C18.1719 13.0175 18.2772 12.7631 18.4648 12.5756C18.6523 12.3881 18.9067 12.2827 19.1719 12.2827C19.4371 12.2827 19.6914 12.3881 19.879 12.5756C20.0665 12.7631 20.1719 13.0175 20.1719 13.2827V14.2827H28.1719V13.2827C28.1719 13.0175 28.2772 12.7631 28.4648 12.5756C28.6523 12.3881 28.9067 12.2827 29.1719 12.2827C29.4371 12.2827 29.6914 12.3881 29.879 12.5756C30.0665 12.7631 30.1719 13.0175 30.1719 13.2827V14.2827H31.1719C33.9289 14.2827 36.1719 16.5257 36.1719 19.2827Z" fill="#81E200"/>
</g>
<defs>
<clipPath id="clip0_776_943">
<rect width="24" height="24" fill="white" transform="translate(12.1719 12.2827)"/>
</clipPath>
</defs>
</svg>
