<svg width="24" height="25" viewBox="0 0 24 25" fill="none" xmlns="http://www.w3.org/2000/svg">
<path d="M14.6581 18.7251C14.8504 18.7251 15.0348 18.6461 15.1708 18.5054C15.3067 18.3648 15.3831 18.174 15.3831 17.9751V10.4751C15.3831 10.2762 15.3067 10.0854 15.1708 9.94477C15.0348 9.80412 14.8504 9.7251 14.6581 9.7251C14.4658 9.7251 14.2814 9.80412 14.1455 9.94477C14.0095 10.0854 13.9331 10.2762 13.9331 10.4751V17.9751C13.9331 18.174 14.0095 18.3648 14.1455 18.5054C14.2814 18.6461 14.4658 18.7251 14.6581 18.7251ZM9.58311 18.7251C9.77539 18.7251 9.95979 18.6461 10.0958 18.5054C10.2317 18.3648 10.3081 18.174 10.3081 17.9751V10.4751C10.3081 10.2762 10.2317 10.0854 10.0958 9.94477C9.95979 9.80412 9.77539 9.7251 9.58311 9.7251C9.39082 9.7251 9.20642 9.80412 9.07045 9.94477C8.93449 10.0854 8.85811 10.2762 8.85811 10.4751V17.9751C8.85811 18.174 8.93449 18.3648 9.07045 18.5054C9.20642 18.6461 9.39082 18.7251 9.58311 18.7251ZM15.0206 4.1001C15.2129 4.1001 15.3973 4.02108 15.5333 3.88043C15.6692 3.73978 15.7456 3.54901 15.7456 3.3501C15.7456 3.15119 15.6692 2.96042 15.5333 2.81977C15.3973 2.67912 15.2129 2.6001 15.0206 2.6001H9.22061C9.02832 2.6001 8.84392 2.67912 8.70795 2.81977C8.57199 2.96042 8.49561 3.15119 8.49561 3.3501C8.49561 3.54901 8.57199 3.73978 8.70795 3.88043C8.84392 4.02108 9.02832 4.1001 9.22061 4.1001H15.0206Z" fill="#E46B6B"/>
<path d="M4.14541 4.8501C3.95313 4.8501 3.76872 4.92912 3.63276 5.06977C3.49679 5.21042 3.42041 5.40119 3.42041 5.6001C3.42041 5.79901 3.49679 5.98978 3.63276 6.13043C3.76872 6.27108 3.95313 6.3501 4.14541 6.3501H4.87041V20.1501C4.87041 21.8451 6.20441 23.2251 7.84291 23.2251H16.3979C18.0364 23.2251 19.3704 21.8451 19.3704 20.1501V6.3501H20.0954C20.2877 6.3501 20.4721 6.27108 20.6081 6.13043C20.744 5.98978 20.8204 5.79901 20.8204 5.6001C20.8204 5.40119 20.744 5.21042 20.6081 5.06977C20.4721 4.92912 20.2877 4.8501 20.0954 4.8501H5.59541H4.14541ZM17.9204 6.3501V20.1501C17.9204 20.5678 17.76 20.9684 17.4745 21.2638C17.189 21.5592 16.8017 21.7251 16.3979 21.7251H7.84291C7.43912 21.7251 7.05186 21.5592 6.76634 21.2638C6.48082 20.9684 6.32041 20.5678 6.32041 20.1501V6.3501H17.9204Z" fill="#E46B6B"/>
</svg>
