<svg width="25" height="24" viewBox="0 0 25 24" fill="none" xmlns="http://www.w3.org/2000/svg">
<g clip-path="url(#clip0_78_2861)">
<path d="M15.7793 17.8439L19.6583 13.9649C19.8404 13.7763 19.9412 13.5237 19.9389 13.2615C19.9366 12.9993 19.8315 12.7485 19.6461 12.5631C19.4607 12.3777 19.2099 12.2725 18.9477 12.2702C18.6855 12.268 18.4329 12.3687 18.2443 12.5509L14.3653 16.4299C14.2477 16.5451 14.1168 16.6459 13.9753 16.7299C13.9753 16.7149 13.9833 16.7029 13.9833 16.6879L13.9513 1.00391C13.9513 0.738689 13.8459 0.484336 13.6584 0.296799C13.4708 0.109263 13.2165 0.00390596 12.9513 0.00390594C12.686 0.00390593 12.4317 0.109263 12.2441 0.296799C12.0566 0.484336 11.9513 0.738689 11.9513 1.00391L11.9833 16.6819C11.9833 16.7099 11.9973 16.7329 11.9993 16.7599C11.8301 16.6712 11.6745 16.5587 11.5373 16.4259L7.65825 12.5469C7.56601 12.4514 7.45566 12.3752 7.33366 12.3228C7.21165 12.2704 7.08043 12.2428 6.94765 12.2417C6.81487 12.2405 6.6832 12.2658 6.5603 12.3161C6.4374 12.3664 6.32575 12.4406 6.23186 12.5345C6.13796 12.6284 6.06371 12.7401 6.01343 12.8629C5.96315 12.9858 5.93785 13.1175 5.939 13.2503C5.94016 13.3831 5.96774 13.5143 6.02015 13.6363C6.07256 13.7583 6.14874 13.8687 6.24425 13.9609L10.1233 17.8399C10.8734 18.5898 11.8906 19.011 12.9513 19.011C14.0119 19.011 15.0291 18.5898 15.7793 17.8399L15.7793 17.8439Z" fill="white"/>
<path d="M22.9268 17L22.9268 19C22.9268 19.7956 22.6107 20.5587 22.0481 21.1213C21.4855 21.6839 20.7224 22 19.9268 22L5.92676 22C5.13111 22 4.36805 21.6839 3.80544 21.1213C3.24283 20.5587 2.92676 19.7956 2.92676 19L2.92676 17C2.92676 16.7348 2.8214 16.4804 2.63386 16.2929C2.44633 16.1054 2.19197 16 1.92676 16C1.66154 16 1.40719 16.1054 1.21965 16.2929C1.03211 16.4804 0.926757 16.7348 0.926758 17L0.926758 19C0.928346 20.3256 1.45564 21.5964 2.39298 22.5338C3.33032 23.4711 4.60116 23.9984 5.92676 24L19.9268 24C21.2524 23.9984 22.5232 23.4711 23.4605 22.5338C24.3979 21.5964 24.9252 20.3256 24.9268 19L24.9268 17C24.9268 16.7348 24.8214 16.4804 24.6339 16.2929C24.4463 16.1054 24.192 16 23.9268 16C23.6615 16 23.4072 16.1054 23.2196 16.2929C23.0321 16.4804 22.9268 16.7348 22.9268 17Z" fill="white"/>
</g>
<defs>
<clipPath id="clip0_78_2861">
<rect width="24" height="24" fill="white" transform="translate(0.926758 24) rotate(-90)"/>
</clipPath>
</defs>
</svg>
