<svg width="49" height="49" viewBox="0 0 49 49" fill="none" xmlns="http://www.w3.org/2000/svg">
<circle cx="24.1713" cy="24.3619" r="24.0792" fill="#F2FCE6"/>
<path fill-rule="evenodd" clip-rule="evenodd" d="M23.4778 14.517C23.8757 14.1494 24.5297 14.1599 24.9046 14.5557L36.365 25.1359C36.5508 25.3134 36.6565 25.5538 36.6594 25.8054C36.6623 26.057 36.5621 26.2996 36.3804 26.481C36.1988 26.6624 35.9502 26.768 35.6882 26.7751C35.4262 26.7822 35.1718 26.6902 34.9798 26.5189L24.1716 16.5406L13.3628 26.5189C13.1708 26.6901 12.9165 26.7821 12.6546 26.775C12.3927 26.768 12.1441 26.6625 11.9624 26.4813C11.7807 26.3 11.6804 26.0575 11.6832 25.806C11.6859 25.5545 11.7914 25.3141 11.9769 25.1365C15.8103 21.5976 19.6455 18.0542 23.4766 14.5175L23.4778 14.517Z" fill="#81E200"/>
<path fill-rule="evenodd" clip-rule="evenodd" d="M23.5275 20.9763C23.8966 20.6353 24.5044 20.6441 24.8516 21.0118L33.4366 28.9366C33.6053 29.1022 33.7002 29.3243 33.7012 29.5559C33.7022 29.7875 33.6093 30.0103 33.442 30.1772C33.2748 30.3441 33.0464 30.4419 32.8053 30.4499C32.5642 30.4579 32.3293 30.3754 32.1505 30.22L24.1711 22.8548L16.1928 30.22C16.014 30.3754 15.7791 30.4579 15.538 30.4499C15.2969 30.4419 15.0686 30.3441 14.9013 30.1772C14.7341 30.0103 14.6411 29.7875 14.6421 29.5559C14.6431 29.3243 14.738 29.1022 14.9067 28.9366C17.7799 26.2836 20.6548 23.6272 23.5269 20.9763H23.5275Z" fill="#81E200"/>
<path fill-rule="evenodd" clip-rule="evenodd" d="M23.5712 27.0974C23.9155 26.7796 24.4807 26.7873 24.8042 27.1295L31.2329 33.0646C31.3881 33.2191 31.4748 33.4254 31.475 33.6401C31.4751 33.8548 31.3885 34.0612 31.2335 34.2159C31.0784 34.3706 30.867 34.4616 30.6435 34.4698C30.42 34.478 30.2019 34.4028 30.035 34.2599L24.1716 28.8463L18.3076 34.2599C18.1409 34.4045 17.9221 34.4812 17.6976 34.4737C17.473 34.4662 17.2604 34.375 17.1046 34.2195C16.9489 34.064 16.8623 33.8565 16.8633 33.6408C16.8642 33.4251 16.9526 33.2182 17.1097 33.064C19.2638 31.0759 21.4189 29.0844 23.5712 27.0974Z" fill="#81E200"/>
</svg>
