<svg width="49" height="49" viewBox="0 0 49 49" fill="none" xmlns="http://www.w3.org/2000/svg">
<circle cx="24.545" cy="24.3619" r="24.0792" fill="#F2FCE6"/>
<g clip-path="url(#clip0_776_949)">
<path d="M24.545 18.3618C23.7539 18.3618 22.9806 18.5964 22.3228 19.0359C21.665 19.4755 21.1523 20.1002 20.8495 20.8311C20.5468 21.562 20.4676 22.3663 20.6219 23.1422C20.7762 23.9181 21.1572 24.6308 21.7166 25.1902C22.276 25.7497 22.9888 26.1306 23.7647 26.285C24.5406 26.4393 25.3449 26.3601 26.0758 26.0573C26.8067 25.7546 27.4314 25.2419 27.8709 24.5841C28.3105 23.9263 28.545 23.1529 28.545 22.3618C28.545 21.301 28.1236 20.2835 27.3735 19.5334C26.6233 18.7832 25.6059 18.3618 24.545 18.3618ZM24.545 24.3618C24.1495 24.3618 23.7628 24.2445 23.4339 24.0248C23.105 23.805 22.8487 23.4926 22.6973 23.1272C22.5459 22.7617 22.5063 22.3596 22.5835 21.9716C22.6606 21.5837 22.8511 21.2273 23.1308 20.9476C23.4105 20.6679 23.7669 20.4774 24.1549 20.4002C24.5428 20.3231 24.945 20.3627 25.3104 20.5141C25.6759 20.6654 25.9882 20.9218 26.208 21.2507C26.4277 21.5796 26.545 21.9663 26.545 22.3618C26.545 22.8922 26.3343 23.401 25.9593 23.776C25.5842 24.1511 25.0755 24.3618 24.545 24.3618Z" fill="#81E200"/>
<path d="M24.545 36.3619C23.7029 36.3662 22.8721 36.1687 22.1221 35.7859C21.372 35.4032 20.7246 34.8463 20.234 34.1619C16.423 28.9049 14.49 24.9529 14.49 22.4149C14.49 19.7481 15.5494 17.1906 17.435 15.3049C19.3207 13.4192 21.8782 12.3599 24.545 12.3599C27.2117 12.3599 29.7693 13.4192 31.6549 15.3049C33.5406 17.1906 34.6 19.7481 34.6 22.4149C34.6 24.9529 32.667 28.9049 28.856 34.1619C28.3654 34.8463 27.718 35.4032 26.9679 35.7859C26.2179 36.1687 25.387 36.3662 24.545 36.3619ZM24.545 14.5429C22.4574 14.5452 20.456 15.3756 18.9799 16.8517C17.5037 18.3279 16.6734 20.3293 16.671 22.4169C16.671 24.4269 18.564 28.1439 22 32.8829C22.2917 33.2846 22.6744 33.6117 23.1167 33.8371C23.559 34.0626 24.0485 34.1802 24.545 34.1802C25.0415 34.1802 25.5309 34.0626 25.9733 33.8371C26.4156 33.6117 26.7983 33.2846 27.09 32.8829C30.526 28.1439 32.419 24.4269 32.419 22.4169C32.4166 20.3293 31.5863 18.3279 30.1101 16.8517C28.634 15.3756 26.6326 14.5452 24.545 14.5429Z" fill="#81E200"/>
</g>
<defs>
<clipPath id="clip0_776_949">
<rect width="24" height="24" fill="white" transform="translate(12.545 12.3618)"/>
</clipPath>
</defs>
</svg>
