<svg width="24" height="25" viewBox="0 0 24 25" fill="none" xmlns="http://www.w3.org/2000/svg">
<path d="M12 5.1543L12 5.1643M12 12.1543L12 12.1643M12 19.1543L12 19.1643M12 6.1543C11.4477 6.1543 11 5.70658 11 5.1543C11 4.60201 11.4477 4.1543 12 4.1543C12.5523 4.1543 13 4.60201 13 5.1543C13 5.70658 12.5523 6.1543 12 6.1543ZM12 13.1543C11.4477 13.1543 11 12.7066 11 12.1543C11 11.602 11.4477 11.1543 12 11.1543C12.5523 11.1543 13 11.602 13 12.1543C13 12.7066 12.5523 13.1543 12 13.1543ZM12 20.1543C11.4477 20.1543 11 19.7066 11 19.1543C11 18.602 11.4477 18.1543 12 18.1543C12.5523 18.1543 13 18.602 13 19.1543C13 19.7066 12.5523 20.1543 12 20.1543Z" stroke="#737C81" stroke-width="2" stroke-linecap="round" stroke-linejoin="round"/>
</svg>
