<svg width="335" height="331" viewBox="0 0 335 331" fill="none" xmlns="http://www.w3.org/2000/svg">
<g clip-path="url(#clip0_50_5343)">
<path d="M213.982 140.919C213.775 140.824 213.573 140.717 213.379 140.598C211.619 139.523 210.661 137.705 210.68 135.48C210.682 135.253 210.729 135.03 210.818 134.822C210.907 134.614 211.037 134.426 211.199 134.268C211.362 134.111 211.554 133.986 211.765 133.903C211.976 133.82 212.202 133.778 212.43 133.782C212.89 133.789 213.33 133.978 213.652 134.306C213.974 134.634 214.153 135.076 214.149 135.533C214.14 136.522 214.487 137.239 215.181 137.662C215.995 138.159 217.215 138.196 218.078 137.747C218.87 137.334 219.463 136.518 219.626 135.615C219.73 135.039 219.699 134.179 218.965 133.357C216.777 130.908 213.137 130.62 208.922 130.285C201.288 129.679 191.786 128.924 187.641 114.114L185.924 107.98C185.752 107.373 185.703 106.739 185.78 106.114C185.857 105.49 186.057 104.887 186.371 104.342C186.681 103.796 187.097 103.316 187.596 102.932C188.095 102.548 188.667 102.267 189.277 102.105C190.936 101.661 192.681 101.623 194.363 101.995C196.044 102.367 197.613 103.139 198.934 104.243L200.543 105.588C200.964 105.94 201.465 106.186 202.001 106.304C202.538 106.422 203.094 106.409 203.623 106.266L210.521 104.397C210.962 104.282 211.432 104.346 211.829 104.574C212.227 104.801 212.518 105.175 212.641 105.614C212.764 106.052 212.708 106.52 212.485 106.916C212.263 107.311 211.892 107.603 211.452 107.726L204.555 109.594C203.485 109.884 202.358 109.91 201.272 109.671C200.187 109.432 199.174 108.935 198.321 108.222L196.712 106.877C195.821 106.133 194.764 105.613 193.63 105.362C192.496 105.111 191.319 105.136 190.201 105.436C190.031 105.481 189.871 105.559 189.732 105.667C189.593 105.774 189.477 105.907 189.39 106.06C189.303 106.212 189.247 106.38 189.225 106.554C189.204 106.728 189.217 106.905 189.265 107.075L190.982 113.208C194.473 125.678 201.615 126.245 209.176 126.846C213.725 127.207 218.429 127.58 221.552 131.074C222.851 132.528 223.379 134.364 223.041 136.244C222.689 138.195 221.441 139.9 219.702 140.805C217.972 141.705 215.755 141.734 213.982 140.919ZM254.913 129.792C254.074 129.408 253.325 128.853 252.714 128.163C251.44 126.721 250.934 124.879 251.288 122.976C252.138 118.4 255.977 115.699 259.69 113.088C265.86 108.747 271.688 104.647 268.162 92.1876L266.427 86.0585C266.379 85.8891 266.298 85.7305 266.189 85.592C266.08 85.4535 265.944 85.3378 265.789 85.2516C265.635 85.1643 265.466 85.1083 265.29 85.0868C265.115 85.0654 264.937 85.0789 264.768 85.1266C263.652 85.4355 262.63 86.0089 261.788 86.798C260.947 87.587 260.312 88.5682 259.937 89.6576L259.261 91.6243C258.902 92.6673 258.294 93.6063 257.488 94.3607C256.681 95.1151 255.701 95.6623 254.632 95.9551L247.74 97.8431C247.521 97.9033 247.292 97.9198 247.066 97.8917C246.839 97.8636 246.621 97.7915 246.422 97.6795C246.223 97.5676 246.048 97.4179 245.907 97.239C245.766 97.0602 245.662 96.8557 245.6 96.6372C245.538 96.4189 245.52 96.1908 245.547 95.966C245.574 95.7413 245.645 95.5243 245.756 95.3274C245.867 95.1305 246.017 94.9576 246.196 94.8186C246.375 94.6795 246.579 94.577 246.799 94.517L253.691 92.629C254.219 92.4843 254.703 92.214 255.102 91.8412C255.5 91.4684 255.801 91.0043 255.978 90.4889L256.654 88.5223C257.21 86.9067 258.152 85.4516 259.399 84.2814C260.647 83.1111 262.163 82.2607 263.818 81.8027C265.056 81.4603 266.357 81.619 267.48 82.2507C268.034 82.5597 268.521 82.9745 268.913 83.4712C269.306 83.9679 269.595 84.5364 269.765 85.1439L271.5 91.2731C275.689 106.072 267.935 111.526 261.705 115.908C258.265 118.328 255.295 120.418 254.699 123.624C254.498 124.701 254.922 125.453 255.313 125.895C255.924 126.587 256.86 126.987 257.755 126.94C258.73 126.889 259.757 126.242 260.195 125.402C260.568 124.688 260.491 123.898 259.967 123.054C259.73 122.664 259.658 122.198 259.764 121.757C259.871 121.317 260.148 120.937 260.536 120.7C260.924 120.463 261.391 120.388 261.836 120.492C262.281 120.595 262.668 120.869 262.914 121.254C264.094 123.152 264.223 125.196 263.276 127.008C262.281 128.913 260.145 130.27 257.961 130.385C256.912 130.44 255.864 130.229 254.913 129.792Z" fill="#FF901D"/>
<path d="M234.037 181.718L223.783 177.864L186.503 196.281C186.339 196.343 186.163 196.372 185.987 196.366C185.81 196.36 185.636 196.319 185.476 196.245L152.189 180.956C151.041 180.428 151.209 178.757 152.438 178.481L217.167 156.045L234.407 144.351C237.296 142.391 241.287 143.717 242.44 147.019L254.413 169.434C256.223 172.822 254.516 176.993 250.852 178.135L239.927 181.542C238.016 182.152 235.971 182.212 234.037 181.718Z" fill="#FED9A8"/>
<path d="M254.413 169.434L251.486 163.954C251.092 166.085 249.573 167.961 247.298 168.671L236.374 172.077C234.463 172.687 232.418 172.748 230.484 172.253L220.229 168.399L166.036 190.364L188.263 197.738C188.423 197.812 188.597 197.853 188.774 197.86C188.95 197.866 189.126 197.836 189.29 197.774L223.783 177.864L234.037 181.718C235.971 182.212 238.016 182.151 239.927 181.542L250.852 178.135C254.516 176.993 256.223 172.822 254.413 169.434Z" fill="#F4C28C"/>
<path d="M244.068 155.057L245.015 157.888C243.919 157.519 243.01 156.675 242.624 155.519L241.763 152.943C242.815 153.212 243.707 153.975 244.068 155.057Z" fill="#E8D06B"/>
<path d="M260.194 182.973L243.889 187.388L232.167 130.965L240.629 128.673L260.194 182.973Z" fill="#F7BC14"/>
<path d="M202.676 96.5337L207.333 113.173C210.636 124.973 220.068 134.358 232.741 138.455L240.256 140.884L245.447 135.014C254.202 125.113 257.421 112.303 254.118 100.503L249.46 83.8636L202.676 96.5337Z" fill="#FED130"/>
<path d="M254.118 100.504L249.46 83.8643L239.425 86.5821L244.361 104.071C247.663 115.871 244.445 128.681 235.69 138.582L235.121 139.225L240.255 140.885L245.447 135.014C254.202 125.114 257.421 112.304 254.118 100.504Z" fill="#F7BC14"/>
<path d="M252.076 86.5996L201.853 100.201C201.502 100.296 201.126 100.248 200.808 100.068C200.49 99.8875 200.257 99.5897 200.159 99.2398L199.105 95.4753C199.007 95.1253 199.053 94.7519 199.232 94.4372C199.411 94.1225 199.709 93.8922 200.06 93.797L250.283 80.1961C250.635 80.101 251.01 80.1488 251.328 80.329C251.646 80.5091 251.879 80.8069 251.977 81.1569L253.031 84.9214C253.079 85.0947 253.093 85.2755 253.071 85.4537C253.05 85.6318 252.993 85.8037 252.904 85.9595C252.815 86.1154 252.697 86.2521 252.554 86.362C252.412 86.4718 252.25 86.5525 252.076 86.5996Z" fill="#FFB125"/>
<path d="M253.031 84.9219L251.977 81.1574C251.879 80.8075 251.646 80.5097 251.328 80.3295C251.01 80.1493 250.635 80.1015 250.283 80.1966L241.411 82.5993L243.203 89.0029L252.076 86.6001C252.25 86.5531 252.412 86.4723 252.555 86.3625C252.697 86.2527 252.816 86.1159 252.904 85.9601C252.993 85.8042 253.05 85.6323 253.072 85.4542C253.093 85.2761 253.079 85.0952 253.031 84.9219Z" fill="#FF901D"/>
<path d="M230.304 104.322L235.506 110.132C235.539 110.168 235.58 110.197 235.626 110.214C235.672 110.231 235.722 110.237 235.771 110.231L243.505 109.294C243.754 109.264 243.932 109.532 243.806 109.748L239.889 116.427C239.839 116.513 239.835 116.618 239.877 116.708L243.211 123.738C243.319 123.965 243.119 124.215 242.873 124.161L235.25 122.479C235.202 122.468 235.152 122.47 235.105 122.483C235.057 122.495 235.014 122.52 234.978 122.553L229.304 127.835C229.121 128.006 228.819 127.892 228.794 127.643L227.999 119.924C227.994 119.875 227.977 119.829 227.95 119.788C227.923 119.747 227.886 119.713 227.843 119.689L221.003 115.923C220.782 115.801 220.795 115.481 221.026 115.382L228.157 112.293C228.202 112.273 228.241 112.243 228.272 112.205C228.303 112.167 228.323 112.122 228.333 112.074L229.778 104.464C229.825 104.219 230.136 104.135 230.304 104.322Z" fill="white"/>
<path d="M269.409 186.182L238.782 194.477C237.452 194.837 236.104 193.935 235.933 192.572L234.984 184.989C234.917 184.454 235.046 183.915 235.346 183.469C235.646 183.022 236.098 182.699 236.619 182.558L265.065 174.855C265.586 174.713 266.143 174.763 266.633 174.996C267.122 175.228 267.513 175.627 267.734 176.12L270.865 183.113C271.428 184.369 270.739 185.822 269.409 186.182Z" fill="#FFB125"/>
<path d="M270.865 183.112L267.734 176.12C267.514 175.627 267.123 175.228 266.633 174.995C266.143 174.763 265.586 174.713 265.065 174.854L256.765 177.102L261.758 188.254L269.409 186.182C270.739 185.822 271.428 184.369 270.865 183.112Z" fill="#FF901D"/>
<path d="M246.975 175.962C247.739 178.253 250.222 179.506 252.521 178.76L259.63 176.453C261.928 175.708 263.171 173.248 262.407 170.958C261.643 168.667 259.159 167.415 256.861 168.16L249.751 170.467C247.454 171.213 246.211 173.672 246.975 175.962Z" fill="#F4C28C"/>
<path d="M249.751 170.467L256.861 168.16C259.159 167.415 261.643 168.668 262.407 170.958C262.85 172.287 262.616 173.672 261.895 174.747C260.965 172.765 258.674 171.736 256.541 172.428L249.432 174.734C248.504 175.034 247.707 175.635 247.167 176.441C247.094 176.285 247.029 176.125 246.975 175.962C246.211 173.673 247.454 171.213 249.751 170.467Z" fill="#FED9A8"/>
<path d="M246.252 166.983C247.028 169.309 249.549 170.581 251.882 169.823L258.866 167.557C261.198 166.801 262.459 164.304 261.684 161.979C260.908 159.654 258.387 158.382 256.054 159.139L249.071 161.405C246.739 162.162 245.477 164.659 246.252 166.983Z" fill="#F4C28C"/>
<path d="M249.071 161.405L256.054 159.139C258.388 158.382 260.908 159.654 261.684 161.979C262.128 163.311 261.903 164.7 261.191 165.785C260.26 163.746 257.916 162.682 255.736 163.389L248.752 165.655C247.796 165.964 246.975 166.589 246.427 167.427C246.361 167.282 246.303 167.134 246.252 166.983C245.477 164.659 246.739 162.162 249.071 161.405Z" fill="#FED9A8"/>
<path d="M243.393 158.603C244.169 160.928 246.69 162.2 249.023 161.443L256.006 159.177C258.338 158.42 259.6 155.923 258.825 153.599C258.049 151.274 255.528 150.002 253.195 150.759L246.211 153.025C243.879 153.782 242.618 156.279 243.393 158.603Z" fill="#F4C28C"/>
<path d="M246.211 153.025L253.195 150.759C255.529 150.002 258.049 151.274 258.825 153.599C258.879 153.76 258.921 153.921 258.956 154.082C258.005 153.722 256.96 153.696 255.996 154.01L249.013 156.276C246.842 156.981 245.599 159.194 246.063 161.371C244.845 160.911 243.835 159.929 243.393 158.603C242.618 156.279 243.879 153.782 246.211 153.025Z" fill="#FED9A8"/>
<path d="M240.839 150.098C241.614 152.424 244.135 153.696 246.469 152.939L253.452 150.673C255.784 149.916 257.046 147.419 256.271 145.095C255.495 142.769 252.974 141.497 250.641 142.255L243.657 144.521C241.325 145.277 240.064 147.774 240.839 150.098Z" fill="#F4C28C"/>
<path d="M243.657 144.521L250.641 142.255C252.974 141.497 255.495 142.769 256.271 145.095C256.715 146.425 256.49 147.812 255.78 148.897C254.85 146.855 252.505 145.79 250.323 146.498L243.339 148.764C242.381 149.073 241.56 149.7 241.012 150.539C240.947 150.395 240.889 150.248 240.839 150.099C240.064 147.774 241.325 145.277 243.657 144.521Z" fill="#FED9A8"/>
<path d="M248.804 157.479L247.509 157.9C245.471 158.561 243.285 157.495 242.624 155.52L241.455 152.024C240.883 150.312 238.984 149.395 237.223 149.979C233.052 160.878 217.167 156.046 217.167 156.046L230.639 143.468C231.567 142.489 232.724 141.754 234.009 141.329L240.456 139.191C243.591 138.151 246.971 139.783 247.992 142.828L251.299 152.697C251.963 154.675 250.845 156.817 248.804 157.479Z" fill="#FED9A8"/>
</g>
<path fill-rule="evenodd" clip-rule="evenodd" d="M87.1928 100.265C83.954 98.1111 79.5151 100.015 78.8437 103.846L75.4473 123.19L66.0641 122.149C61.3619 121.628 58.2563 126.937 61.0711 130.675L75.1762 149.394C75.4889 149.805 75.9307 150.099 76.4307 150.23C76.9307 150.36 77.46 150.319 77.9338 150.113L121.347 131.488C121.823 131.287 122.218 130.931 122.468 130.479C122.718 130.027 122.809 129.504 122.726 128.994L118.88 105.878C118.111 101.254 112.125 99.8496 109.262 103.616L103.55 111.13L87.1928 100.265Z" fill="#F7DE06"/>
<g opacity="0.489853">
<path d="M208.666 10.4972C208.666 15.9491 204.246 20.3689 198.794 20.3689C193.343 20.3689 188.923 15.9491 188.923 10.4972C188.923 5.04571 193.343 0.626221 198.794 0.626221C204.246 0.626221 208.666 5.04571 208.666 10.4972Z" fill="#7F3E98"/>
</g>
<g opacity="0.853641">
<path d="M130.468 36.0959L124.606 39.4804C123.544 40.0933 122.187 39.7295 121.574 38.6683L110.989 20.3335C110.376 19.2724 110.74 17.9153 111.801 17.3028L117.664 13.9179C118.725 13.3054 120.082 13.6689 120.695 14.73L131.28 33.0648C131.893 34.1263 131.529 35.483 130.468 36.0959Z" fill="#59A1C9"/>
</g>
<g opacity="0.853641">
<path d="M31.4216 72.0296L32.7402 72.4769C34.2353 72.984 35.8844 72.7227 37.15 71.7783L38.2661 70.9455C41.4527 68.5675 45.9834 70.8757 45.9327 74.8518L45.9149 76.2441C45.8945 77.823 46.6523 79.3107 47.9414 80.2224L49.0785 81.0264C52.325 83.3224 51.5294 88.3441 47.7325 89.5245L46.4026 89.9379C44.8948 90.4065 43.7147 91.5873 43.246 93.095L42.8324 94.4249C41.6523 98.2218 36.6302 99.0171 34.3343 95.7707L33.53 94.6339C32.6183 93.3447 31.1305 92.5866 29.5519 92.607L28.1593 92.6245C24.1835 92.6753 21.8753 88.1452 24.2534 84.9582L25.0865 83.8421C26.0309 82.5769 26.2919 80.9278 25.7848 79.4323L25.3375 78.1137C24.0606 74.3479 27.6557 70.7528 31.4216 72.0296Z" fill="#59A1C9"/>
</g>
<g opacity="0.853641">
<path d="M25.1581 142.332L26.6387 148.937C26.9069 150.133 26.1549 151.32 24.9589 151.587L4.30068 156.218C3.10501 156.486 1.9184 155.734 1.64996 154.539L0.169359 147.933C-0.0984296 146.737 0.653514 145.551 1.84919 145.283L22.5077 140.652C23.7034 140.384 24.89 141.136 25.1581 142.332Z" fill="#00AD8B"/>
</g>
<g opacity="0.853641">
<path d="M45.4009 223.577C45.4009 229.028 40.9814 233.448 35.5299 233.448C30.0781 233.448 25.6589 229.028 25.6589 223.577C25.6589 218.125 30.0781 213.706 35.5299 213.706C40.9814 213.706 45.4009 218.125 45.4009 223.577Z" fill="#F65A5B"/>
</g>
<g opacity="0.853641">
<path d="M31.3811 275.044L32.6997 275.492C34.1948 275.998 35.8439 275.737 37.1094 274.793L38.2255 273.96C41.4122 271.582 45.9429 273.89 45.8921 277.867L45.8744 279.259C45.854 280.838 46.6117 282.325 47.9009 283.237L49.038 284.041C52.2845 286.337 51.4889 291.359 47.692 292.539L46.3621 292.953C44.8543 293.421 43.6742 294.602 43.2055 296.11L42.7919 297.439C41.6117 301.237 36.5897 302.032 34.2938 298.785L33.4894 297.649C32.5777 296.359 31.09 295.601 29.5114 295.621L28.1188 295.64C24.143 295.69 21.8348 291.16 24.2129 287.973L25.046 286.857C25.9904 285.591 26.2514 283.943 25.7443 282.447L25.297 281.129C24.0201 277.363 27.6152 273.768 31.3811 275.044Z" fill="#FFA000"/>
</g>
<g opacity="0.853641">
<path d="M285.467 62.6152C282.475 58.7164 283.401 52.9089 287.519 49.7497C291.636 46.5906 297.486 47.1989 300.477 51.0977C300.483 51.1052 300.488 51.1126 300.494 51.1197" stroke="#F65A5B" stroke-width="6.46833" stroke-linecap="round" stroke-linejoin="round"/>
</g>
<g opacity="0.853641">
<path d="M310.09 117.367L311.409 117.814C312.904 118.321 314.553 118.06 315.818 117.115L316.935 116.283C320.122 113.905 324.652 116.213 324.601 120.189L324.583 121.581C324.563 123.16 325.321 124.648 326.61 125.56L327.747 126.364C330.994 128.66 330.199 133.681 326.402 134.862L325.071 135.275C323.563 135.744 322.383 136.924 321.915 138.432L321.501 139.762C320.321 143.559 315.299 144.354 313.003 141.108L312.199 139.971C311.287 138.682 309.8 137.924 308.221 137.944L306.828 137.962C302.852 138.012 300.544 133.482 302.922 130.296L303.755 129.18C304.699 127.914 304.961 126.265 304.453 124.769L304.006 123.451C302.729 119.685 306.324 116.09 310.09 117.367Z" fill="#FFD428"/>
</g>
<g opacity="0.853641">
<path d="M321.307 233.379C328.019 234.263 332.775 240.824 331.841 247.912C330.908 255.001 324.616 260.107 317.905 259.222C317.892 259.221 317.879 259.219 317.866 259.217" stroke="#F65A5B" stroke-width="4.85125" stroke-linecap="round" stroke-linejoin="round"/>
</g>
<g opacity="0.853641">
<path d="M300.16 316.656L294.297 320.041C293.236 320.653 291.879 320.29 291.267 319.229L280.681 300.894C280.068 299.832 280.432 298.476 281.493 297.863L287.356 294.478C288.417 293.865 289.774 294.229 290.386 295.29L300.972 313.625C301.585 314.686 301.221 316.043 300.16 316.656Z" fill="#59A1C9"/>
</g>
<g opacity="0.853641">
<path d="M108.03 327.353C103.908 321.982 105.184 313.98 110.857 309.628C116.529 305.276 124.588 306.114 128.709 311.485L128.733 311.516" stroke="#7F3E98" stroke-width="6.46833" stroke-linecap="round" stroke-linejoin="round"/>
</g>
<defs>
<clipPath id="clip0_50_5343">
<rect width="117" height="133.784" fill="white" transform="translate(205.892 53.9438) rotate(24.6703)"/>
</clipPath>
</defs>
</svg>
