<svg width="262" height="232" viewBox="0 0 262 232" fill="none" xmlns="http://www.w3.org/2000/svg">
<path d="M96.967 113.485C96.967 118.937 92.5472 123.357 87.0957 123.357C81.6439 123.357 77.2244 118.937 77.2244 113.485C77.2244 108.034 81.6439 103.614 87.0957 103.614C92.5472 103.614 96.967 108.034 96.967 113.485Z" fill="#7F3E98"/>
<path d="M87.702 129.622L81.8398 133.007C80.7783 133.62 79.4213 133.256 78.8084 132.195L68.223 113.86C67.6101 112.799 67.974 111.442 69.0351 110.829L74.8977 107.445C75.9588 106.832 77.3158 107.195 77.9287 108.257L88.5141 126.591C89.127 127.653 88.7632 129.01 87.702 129.622Z" fill="#59A1C9"/>
<path d="M57.9099 95.264L59.2285 95.7113C60.7236 96.2184 62.3727 95.9571 63.6382 95.0127L64.7544 94.1799C67.941 91.8018 72.4717 94.1101 72.4209 98.0861L72.4032 99.4784C72.3828 101.057 73.1406 102.545 74.4297 103.457L75.5668 104.261C78.8133 106.557 78.0177 111.578 74.2208 112.759L72.8909 113.172C71.3831 113.641 70.203 114.822 69.7343 116.329L69.3207 117.659C68.1405 121.456 63.1185 122.252 60.8226 119.005L60.0182 117.868C59.1065 116.579 57.6188 115.821 56.0402 115.841L54.6476 115.859C50.6718 115.91 48.3636 111.38 50.7417 108.193L51.5748 107.076C52.5192 105.811 52.7802 104.162 52.2731 102.667L51.8258 101.348C50.5489 97.5823 54.144 93.9872 57.9099 95.264Z" fill="#59A1C9"/>
<path d="M83.9619 115.157L85.4425 121.762C85.7106 122.958 84.9586 124.145 83.7626 124.413L63.1044 129.044C61.9087 129.311 60.7221 128.56 60.4537 127.364L58.9731 120.758C58.7053 119.562 59.4572 118.376 60.6529 118.108L81.3115 113.477C82.5071 113.209 83.6937 113.961 83.9619 115.157Z" fill="#00AD8B"/>
<path d="M81.4932 129.251C81.4932 134.702 77.0737 139.122 71.6222 139.122C66.1704 139.122 61.7512 134.702 61.7512 129.251C61.7512 123.799 66.1704 119.38 71.6222 119.38C77.0737 119.38 81.4932 123.799 81.4932 129.251Z" fill="#F65A5B"/>
<path d="M26.1616 154.282L27.4802 154.729C28.9753 155.236 30.6244 154.975 31.89 154.031L33.0061 153.198C36.1927 150.82 40.7234 153.128 40.6727 157.104L40.6549 158.497C40.6345 160.076 41.3923 161.563 42.6814 162.475L43.8185 163.279C47.065 165.575 46.2694 170.597 42.4725 171.777L41.1426 172.19C39.6348 172.659 38.4547 173.84 37.986 175.348L37.5724 176.677C36.3922 180.474 31.3702 181.27 29.0743 178.023L28.27 176.886C27.3582 175.597 25.8705 174.839 24.2919 174.859L22.8993 174.877C18.9235 174.928 16.6153 170.398 18.9934 167.211L19.8265 166.095C20.7709 164.829 21.0319 163.18 20.5248 161.685L20.0775 160.366C18.8006 156.6 22.3957 153.005 26.1616 154.282Z" fill="#FFA000"/>
<path d="M101.481 103.289C98.4894 99.39 99.4154 93.5824 103.533 90.4233C107.65 87.2642 113.5 87.8725 116.491 91.7713C116.497 91.7787 116.502 91.7862 116.508 91.7933" stroke="#F65A5B" stroke-width="6.46833" stroke-linecap="round" stroke-linejoin="round"/>
<path d="M88.9803 108.113L90.2988 108.56C91.794 109.067 93.4434 108.806 94.7086 107.862L95.8251 107.029C99.012 104.651 103.542 106.959 103.491 110.935L103.474 112.327C103.453 113.906 104.212 115.394 105.5 116.306L106.638 117.11C109.884 119.406 109.089 124.427 105.292 125.608L103.961 126.021C102.453 126.49 101.273 127.671 100.805 129.178L100.391 130.508C99.2109 134.305 94.1889 135.1 91.8933 131.854L91.0893 130.717C90.1772 129.428 88.6898 128.67 87.1109 128.69L85.7183 128.708C81.7425 128.759 79.434 124.228 81.8124 121.042L82.6452 119.926C83.5896 118.66 83.8509 117.011 83.3434 115.516L82.8962 114.197C81.6193 110.431 85.2144 106.836 88.9803 108.113Z" fill="#FFD428"/>
<path d="M133.582 141.515C140.294 142.399 145.05 148.96 144.116 156.048C143.183 163.137 136.891 168.243 130.18 167.358C130.167 167.357 130.154 167.355 130.141 167.353" stroke="#F65A5B" stroke-width="4.85125" stroke-linecap="round" stroke-linejoin="round"/>
<path d="M122.695 179.089L116.833 182.473C115.772 183.086 114.415 182.722 113.802 181.661L103.216 163.327C102.604 162.265 102.967 160.908 104.028 160.296L109.891 156.911C110.952 156.298 112.309 156.661 112.922 157.723L123.507 176.058C124.12 177.119 123.756 178.476 122.695 179.089Z" fill="#59A1C9"/>
<path d="M38.446 189.873C34.3247 184.502 35.6006 176.5 41.273 172.148C46.9454 167.795 55.0043 168.634 59.1256 174.005L59.1492 174.035" stroke="#7F3E98" stroke-width="6.46833" stroke-linecap="round" stroke-linejoin="round"/>
<path fill-rule="evenodd" clip-rule="evenodd" d="M32.8737 74.2918C29.6349 72.1384 25.196 74.0428 24.5246 77.8738L21.1282 97.2176L11.745 96.1764C7.04285 95.6552 3.93717 100.964 6.75196 104.703L20.8571 123.421C21.1698 123.832 21.6116 124.127 22.1116 124.257C22.6116 124.388 23.1409 124.346 23.6147 124.14L67.028 105.515C67.5039 105.314 67.8985 104.959 68.1486 104.507C68.3986 104.054 68.4897 103.531 68.4072 103.021L64.5611 79.905C63.7919 75.2818 57.806 73.8769 54.9433 77.6436L49.2306 85.1578L32.8737 74.2918Z" fill="#F7DE06"/>
<g clip-path="url(#clip0_50_5406)">
<path d="M111.182 119.668C110.974 119.572 110.773 119.465 110.579 119.347C108.819 118.272 107.86 116.454 107.88 114.228C107.882 114.002 107.929 113.778 108.018 113.57C108.107 113.362 108.236 113.174 108.399 113.016C108.561 112.859 108.754 112.735 108.965 112.651C109.176 112.568 109.402 112.527 109.63 112.53C110.09 112.537 110.529 112.726 110.852 113.054C111.174 113.383 111.353 113.824 111.349 114.281C111.34 115.271 111.687 115.987 112.381 116.411C113.195 116.907 114.414 116.944 115.278 116.495C116.07 116.083 116.663 115.266 116.826 114.363C116.929 113.787 116.899 112.927 116.165 112.105C113.977 109.657 110.337 109.368 106.122 109.033C98.4878 108.427 88.9862 107.673 84.8406 92.8619L83.1237 86.7281C82.952 86.121 82.903 85.4869 82.9796 84.8624C83.0563 84.238 83.2571 83.6358 83.5703 83.0907C83.8804 82.5439 84.2971 82.0646 84.7961 81.6805C85.2951 81.2964 85.8665 81.0153 86.4772 80.8534C88.1357 80.4088 89.8805 80.3711 91.5622 80.7434C93.244 81.1158 94.8126 81.8871 96.134 82.9915L97.7424 84.3361C98.1639 84.6884 98.6644 84.9341 99.201 85.0522C99.7375 85.1702 100.294 85.1571 100.823 85.0139L107.72 83.1457C108.162 83.0308 108.632 83.0941 109.029 83.3218C109.426 83.5496 109.718 83.9234 109.841 84.362C109.963 84.8006 109.907 85.2686 109.685 85.6642C109.462 86.0597 109.091 86.3509 108.652 86.4745L101.754 88.3427C100.684 88.6323 99.5581 88.6586 98.4722 88.4196C97.3863 88.1805 96.3733 87.6831 95.5203 86.9702L93.9122 85.6257C93.0211 84.8811 91.9634 84.361 90.8294 84.11C89.6954 83.8589 88.519 83.8844 87.4006 84.1841C87.2303 84.2293 87.0709 84.3077 86.9317 84.4148C86.7925 84.522 86.6764 84.6557 86.5899 84.8082C86.5025 84.9603 86.4464 85.1283 86.425 85.3025C86.4035 85.4767 86.4172 85.6536 86.4651 85.823L88.1819 91.9568C91.6725 104.426 98.8143 104.993 106.375 105.594C110.925 105.955 115.629 106.329 118.751 109.823C120.05 111.277 120.579 113.113 120.24 114.993C119.889 116.943 118.641 118.648 116.902 119.553C115.172 120.454 112.955 120.482 111.182 119.668ZM152.113 108.541C151.274 108.156 150.525 107.601 149.914 106.911C148.64 105.47 148.133 103.628 148.487 101.724C149.338 97.148 153.177 94.4473 156.889 91.8359C163.06 87.4957 168.888 83.3957 165.361 70.9359L163.626 64.8068C163.579 64.6374 163.498 64.4788 163.389 64.3403C163.279 64.2018 163.143 64.0861 162.989 63.9999C162.835 63.9126 162.666 63.8566 162.49 63.8351C162.315 63.8136 162.137 63.8272 161.967 63.8749C160.852 64.1837 159.829 64.7572 158.988 65.5463C158.147 66.3353 157.512 67.3165 157.137 68.4059L156.461 70.3726C156.102 71.4155 155.493 72.3546 154.687 73.109C153.881 73.8634 152.901 74.4106 151.832 74.7034L144.94 76.5914C144.721 76.6516 144.491 76.668 144.265 76.64C144.039 76.6119 143.82 76.5398 143.622 76.4278C143.423 76.3158 143.248 76.1662 143.107 75.9873C142.966 75.8085 142.862 75.604 142.8 75.3855C142.738 75.1672 142.72 74.9391 142.747 74.7143C142.773 74.4896 142.845 74.2726 142.956 74.0757C143.067 73.8788 143.216 73.7059 143.395 73.5668C143.574 73.4278 143.779 73.3253 143.998 73.2653L150.89 71.3773C151.419 71.2326 151.903 70.9623 152.301 70.5895C152.7 70.2167 153 69.7526 153.178 69.2372L153.854 67.2706C154.41 65.655 155.352 64.1998 156.599 63.0296C157.847 61.8594 159.363 61.009 161.017 60.551C162.255 60.2086 163.557 60.3673 164.68 60.999C165.234 61.308 165.721 61.7228 166.113 62.2195C166.505 62.7161 166.795 63.2847 166.965 63.8921L168.7 70.0214C172.889 84.8201 165.135 90.274 158.905 94.6566C155.465 97.0761 152.494 99.1659 151.898 102.372C151.698 103.449 152.122 104.202 152.512 104.643C153.124 105.335 154.06 105.736 154.954 105.688C155.93 105.637 156.956 104.99 157.395 104.15C157.768 103.436 157.691 102.646 157.166 101.802C156.93 101.412 156.857 100.946 156.964 100.506C157.07 100.065 157.348 99.685 157.736 99.448C158.123 99.2111 158.591 99.1363 159.036 99.24C159.481 99.3437 159.868 99.6174 160.113 100.002C161.294 101.9 161.422 103.944 160.476 105.757C159.48 107.661 157.345 109.018 155.161 109.133C154.112 109.188 153.063 108.977 152.113 108.541Z" fill="#FF901D"/>
<path d="M131.237 160.466L120.983 156.613L83.7029 175.029C83.5384 175.092 83.3627 175.121 83.1863 175.115C83.0098 175.108 82.8362 175.067 82.6755 174.994L49.3891 159.704C48.2403 159.177 48.4085 157.506 49.6379 157.23L114.367 134.794L131.606 123.099C134.496 121.139 138.487 122.465 139.639 125.768L151.613 148.182C153.423 151.57 151.716 155.741 148.052 156.884L137.127 160.29C135.216 160.9 133.171 160.961 131.237 160.466Z" fill="#FED9A8"/>
<path d="M151.613 148.182L148.685 142.702C148.292 144.833 146.772 146.71 144.498 147.419L133.573 150.825C131.663 151.435 129.617 151.496 127.684 151.001L117.429 147.148L63.2361 169.112L85.4626 176.487C85.6232 176.561 85.7969 176.602 85.9733 176.608C86.1498 176.614 86.3254 176.585 86.4899 176.522L120.982 156.612L131.237 160.466C133.171 160.961 135.216 160.9 137.126 160.29L148.051 156.884C151.715 155.741 153.423 151.57 151.613 148.182Z" fill="#F4C28C"/>
<path d="M141.268 133.805L142.215 136.636C141.119 136.267 140.21 135.424 139.824 134.268L138.962 131.692C140.014 131.96 140.906 132.723 141.268 133.805Z" fill="#E8D06B"/>
<path d="M157.394 161.721L141.089 166.137L129.366 109.713L137.829 107.421L157.394 161.721Z" fill="#F7BC14"/>
<path d="M99.8755 75.282L104.533 91.9215C107.836 103.721 117.267 113.106 129.941 117.203L137.455 119.632L142.647 113.762C151.402 103.862 154.621 91.0513 151.318 79.2515L146.66 62.6119L99.8755 75.282Z" fill="#FED130"/>
<path d="M151.318 79.2521L146.66 62.6126L136.624 65.3304L141.56 82.8196C144.863 94.6194 141.645 107.43 132.889 117.33L132.321 117.973L137.455 119.633L142.647 113.763C151.402 103.862 154.62 91.052 151.318 79.2521Z" fill="#F7BC14"/>
<path d="M149.275 65.3479L99.0526 78.9489C98.7013 79.044 98.3255 78.9962 98.0078 78.816C97.6901 78.6358 97.4566 78.338 97.3586 77.9881L96.305 74.2236C96.2071 73.8736 96.2527 73.5002 96.4318 73.1855C96.611 72.8708 96.9089 72.6405 97.2602 72.5453L147.483 58.9444C147.834 58.8493 148.21 58.8971 148.528 59.0772C148.845 59.2574 149.079 59.5552 149.177 59.9052L150.231 63.6697C150.279 63.8429 150.293 64.0238 150.271 64.202C150.249 64.3801 150.193 64.552 150.104 64.7078C150.015 64.8637 149.896 65.0004 149.754 65.1102C149.612 65.2201 149.449 65.3008 149.275 65.3479Z" fill="#FFB125"/>
<path d="M150.231 63.6702L149.177 59.9057C149.079 59.5558 148.845 59.258 148.528 59.0778C148.21 58.8976 147.834 58.8498 147.483 58.9449L138.611 61.3476L140.403 67.7512L149.275 65.3484C149.449 65.3014 149.612 65.2206 149.754 65.1108C149.896 65.001 150.015 64.8642 150.104 64.7084C150.193 64.5525 150.249 64.3806 150.271 64.2025C150.293 64.0244 150.279 63.8435 150.231 63.6702Z" fill="#FF901D"/>
<path d="M127.503 83.0705L132.705 88.8799C132.738 88.9166 132.78 88.9448 132.826 88.9622C132.872 88.9796 132.922 88.9856 132.97 88.9796L140.704 88.0427C140.954 88.0125 141.132 88.2803 141.005 88.4959L137.089 95.1752C137.039 95.2608 137.034 95.366 137.077 95.4559L140.411 102.486C140.519 102.713 140.318 102.963 140.072 102.909L132.45 101.227C132.402 101.217 132.352 101.218 132.304 101.231C132.257 101.244 132.213 101.268 132.178 101.301L126.504 106.583C126.321 106.754 126.019 106.64 125.994 106.391L125.199 98.6725C125.194 98.6238 125.177 98.5769 125.15 98.5359C125.122 98.4949 125.086 98.4611 125.042 98.4373L118.202 94.6712C117.981 94.5495 117.995 94.2297 118.225 94.13L125.357 91.0412C125.402 91.0217 125.441 90.9916 125.472 90.9534C125.502 90.9152 125.523 90.8701 125.532 90.822L126.978 83.2122C127.025 82.967 127.335 82.8829 127.503 83.0705Z" fill="white"/>
<path d="M166.609 164.931L135.982 173.225C134.652 173.585 133.304 172.684 133.133 171.32L132.184 163.737C132.117 163.203 132.245 162.663 132.545 162.217C132.845 161.771 133.297 161.448 133.819 161.306L162.264 153.603C162.786 153.462 163.342 153.512 163.832 153.744C164.322 153.976 164.713 154.375 164.934 154.868L168.065 161.861C168.628 163.117 167.938 164.571 166.609 164.931Z" fill="#FFB125"/>
<path d="M168.065 161.861L164.934 154.868C164.713 154.375 164.322 153.976 163.832 153.744C163.342 153.512 162.786 153.461 162.265 153.603L153.965 155.85L158.958 167.003L166.609 164.931C167.939 164.571 168.628 163.118 168.065 161.861Z" fill="#FF901D"/>
<path d="M144.175 154.711C144.939 157.001 147.422 158.254 149.721 157.508L156.83 155.202C159.127 154.456 160.37 151.997 159.606 149.707C158.842 147.416 156.359 146.163 154.06 146.909L146.951 149.216C144.654 149.961 143.411 152.421 144.175 154.711Z" fill="#F4C28C"/>
<path d="M146.951 149.216L154.06 146.909C156.359 146.163 158.842 147.416 159.606 149.707C160.049 151.035 159.816 152.42 159.094 153.495C158.164 151.513 155.873 150.484 153.741 151.176L146.631 153.483C145.704 153.782 144.907 154.383 144.367 155.189C144.293 155.034 144.229 154.874 144.174 154.711C143.411 152.421 144.654 149.961 146.951 149.216Z" fill="#FED9A8"/>
<path d="M143.452 145.732C144.228 148.057 146.749 149.329 149.082 148.572L156.065 146.306C158.397 145.549 159.659 143.052 158.884 140.728C158.108 138.402 155.587 137.13 153.254 137.888L146.27 140.154C143.938 140.91 142.677 143.407 143.452 145.732Z" fill="#F4C28C"/>
<path d="M146.27 140.153L153.254 137.887C155.587 137.13 158.108 138.402 158.884 140.728C159.328 142.06 159.102 143.448 158.39 144.534C157.459 142.494 155.116 141.43 152.936 142.137L145.952 144.403C144.995 144.713 144.175 145.338 143.627 146.176C143.561 146.031 143.502 145.882 143.452 145.732C142.677 143.407 143.938 140.91 146.27 140.153Z" fill="#FED9A8"/>
<path d="M140.593 137.351C141.368 139.677 143.889 140.948 146.222 140.191L153.206 137.925C155.538 137.169 156.8 134.672 156.025 132.347C155.249 130.022 152.728 128.75 150.395 129.507L143.411 131.773C141.079 132.53 139.817 135.027 140.593 137.351Z" fill="#F4C28C"/>
<path d="M143.411 131.773L150.395 129.507C152.728 128.75 155.249 130.022 156.025 132.347C156.078 132.508 156.121 132.669 156.156 132.831C155.204 132.47 154.159 132.445 153.196 132.759L146.212 135.025C144.041 135.729 142.799 137.942 143.263 140.12C142.045 139.659 141.035 138.677 140.593 137.351C139.817 135.027 141.079 132.53 143.411 131.773Z" fill="#FED9A8"/>
<path d="M138.039 128.847C138.814 131.172 141.335 132.444 143.668 131.687L150.652 129.421C152.984 128.664 154.246 126.167 153.47 123.843C152.695 121.518 150.174 120.246 147.841 121.003L140.857 123.269C138.525 124.025 137.263 126.523 138.039 128.847Z" fill="#F4C28C"/>
<path d="M140.857 123.269L147.841 121.003C150.174 120.246 152.695 121.518 153.47 123.843C153.914 125.174 153.689 126.561 152.979 127.646C152.049 125.604 149.704 124.538 147.523 125.246L140.539 127.512C139.581 127.822 138.76 128.448 138.212 129.287C138.146 129.144 138.088 128.997 138.038 128.847C137.263 126.523 138.525 124.025 140.857 123.269Z" fill="#FED9A8"/>
<path d="M146.004 136.228L144.708 136.648C142.671 137.309 140.484 136.244 139.824 134.268L138.655 130.772C138.083 129.061 136.184 128.143 134.423 128.727C130.252 139.626 114.367 134.794 114.367 134.794L127.839 122.216C128.766 121.237 129.924 120.503 131.209 120.077L137.656 117.939C140.79 116.9 144.171 118.531 145.191 121.577L148.499 131.445C149.162 133.423 148.044 135.565 146.004 136.228Z" fill="#FED9A8"/>
</g>
<path d="M0 154.265C0 111.857 34.3782 77.479 76.7858 77.479C119.193 77.479 153.572 111.857 153.572 154.265C153.572 196.672 119.193 231.051 76.7858 231.051C34.3782 231.051 0 196.672 0 154.265Z" fill="#1C1C1C" fill-opacity="0.05"/>
<defs>
<clipPath id="clip0_50_5406">
<rect width="117" height="133.784" fill="white" transform="translate(103.092 32.6921) rotate(24.6703)"/>
</clipPath>
</defs>
</svg>
