<svg width="25" height="25" viewBox="0 0 25 25" fill="none" xmlns="http://www.w3.org/2000/svg">
<path d="M9.10965 14.0548C9.31194 13.651 9.42578 13.1953 9.42578 12.7129C9.42578 12.2305 9.31194 11.7747 9.10965 11.371M9.10965 14.0548C8.61712 15.038 7.60027 15.7129 6.42578 15.7129C4.76893 15.7129 3.42578 14.3697 3.42578 12.7129C3.42578 11.056 4.76893 9.71289 6.42578 9.71289C7.60027 9.71289 8.61712 10.3878 9.10965 11.371M9.10965 14.0548L15.7419 17.371M9.10965 11.371L15.7419 8.05482M15.7419 8.05482C16.2344 9.03797 17.2513 9.71289 18.4258 9.71289C20.0826 9.71289 21.4258 8.36974 21.4258 6.71289C21.4258 5.05604 20.0826 3.71289 18.4258 3.71289C16.7689 3.71289 15.4258 5.05604 15.4258 6.71289C15.4258 7.19526 15.5396 7.65104 15.7419 8.05482ZM15.7419 17.371C15.5396 17.7747 15.4258 18.2305 15.4258 18.7129C15.4258 20.3697 16.7689 21.7129 18.4258 21.7129C20.0826 21.7129 21.4258 20.3697 21.4258 18.7129C21.4258 17.056 20.0826 15.7129 18.4258 15.7129C17.2513 15.7129 16.2344 16.3878 15.7419 17.371Z" stroke="#96E72B" stroke-width="2" stroke-linecap="round" stroke-linejoin="round"/>
</svg>
