<svg width="24" height="25" viewBox="0 0 24 25" fill="none" xmlns="http://www.w3.org/2000/svg">
<g clip-path="url(#clip0_706_3036)">
<path d="M12.8021 2.66499L18.3771 5.05399C18.8571 5.25999 19.2401 5.64299 19.4471 6.12399L21.8351 11.698C22.0551 12.21 22.0551 12.79 21.8351 13.302L19.4461 18.877C19.2401 19.357 18.8571 19.74 18.3761 19.947L12.8021 22.335C12.2901 22.555 11.7101 22.555 11.1981 22.335L5.6231 19.946C5.14222 19.74 4.75906 19.3569 4.5531 18.876L2.1651 13.302C2.05649 13.0486 2.00049 12.7757 2.00049 12.5C2.00049 12.2243 2.05649 11.9514 2.1651 11.698L4.5541 6.12299C4.7601 5.64299 5.1431 5.25999 5.6241 5.05299L11.1981 2.66499C11.4515 2.55638 11.7244 2.50038 12.0001 2.50038C12.2758 2.50038 12.5487 2.55638 12.8021 2.66499Z" stroke="#004077" stroke-width="2" stroke-linecap="round" stroke-linejoin="round"/>
<path d="M12 16.5V16.51" stroke="#6B90B0" stroke-width="2" stroke-linecap="round" stroke-linejoin="round"/>
<path d="M12 13.5C12.4498 13.5014 12.8868 13.3511 13.2407 13.0734C13.5945 12.7958 13.8444 12.407 13.95 11.9698C14.0557 11.5327 14.0109 11.0726 13.8229 10.6641C13.6349 10.2555 13.3147 9.92219 12.914 9.71801C12.5162 9.51422 12.0611 9.45103 11.6228 9.53873C11.1845 9.62642 10.7888 9.85984 10.5 10.201" stroke="#6B90B0" stroke-width="2" stroke-linecap="round" stroke-linejoin="round"/>
</g>
<defs>
<clipPath id="clip0_706_3036">
<rect width="24" height="24" fill="white" transform="translate(0 0.5)"/>
</clipPath>
</defs>
</svg>
