<svg width="24" height="25" viewBox="0 0 24 25" fill="none" xmlns="http://www.w3.org/2000/svg">
<g clip-path="url(#clip0_706_3586)">
<path d="M4.95801 17.1259L6.76898 12.3755M8.07693 15.0958L7.26763 17.2187M9.38821 16.4295L6.0628 17.6973M7.37174 19.5432L12.1104 17.7368" stroke="#004077" stroke-miterlimit="10" stroke-linecap="round" stroke-linejoin="round"/>
<path d="M20.7887 15.1026C24.3143 11.5769 24.6222 6.16871 21.4765 3.02311C18.3308 -0.122492 12.9227 0.185646 9.39706 3.71136C5.87148 7.23706 5.56353 12.6452 8.70924 15.7908C11.8549 18.9364 17.2631 18.6283 20.7887 15.1026Z" stroke="#004077" stroke-miterlimit="10" stroke-linecap="round" stroke-linejoin="round"/>
<path d="M14.8835 3.43828C16.6751 3.09356 18.477 3.52355 19.7268 4.77337C21.9024 6.94898 21.5938 10.7976 19.0388 13.3526C16.4837 15.9076 12.6351 16.2163 10.4595 14.0407C8.28384 11.8651 8.59252 8.01642 11.1475 5.46141C11.8541 4.75481 12.6596 4.22001 13.5014 3.86208M4.89614 22.6873L3.85795 23.7255C3.29395 24.2895 2.37956 24.2895 1.81556 23.7255L0.774563 22.6845C0.210563 22.1205 0.210563 21.2061 0.774563 20.6421L3.8453 17.5714C4.4093 17.0074 5.32369 17.0074 5.88769 17.5714L6.92869 18.6124C7.49269 19.1764 7.49269 20.0908 6.92869 20.6548L5.8905 21.693M11.7137 8.64661L11.316 9.04439M15.8535 12.7864L15.4557 13.1842" stroke="#6B90B0" stroke-miterlimit="10" stroke-linecap="round" stroke-linejoin="round"/>
<path d="M12.852 10.5566C12.8325 10.8416 12.9313 11.1332 13.1491 11.351C13.367 11.5688 13.6585 11.6677 13.9435 11.6481" stroke="#6B90B0" stroke-miterlimit="10" stroke-linecap="round" stroke-linejoin="round"/>
</g>
<defs>
<clipPath id="clip0_706_3586">
<rect width="24" height="24" fill="white" transform="translate(0 0.5)"/>
</clipPath>
</defs>
</svg>
