<svg width="24" height="25" viewBox="0 0 24 25" fill="none" xmlns="http://www.w3.org/2000/svg">
<path d="M15 4.25C15.1989 4.25 15.3897 4.17098 15.5303 4.03033C15.671 3.88968 15.75 3.69891 15.75 3.5C15.75 3.30109 15.671 3.11032 15.5303 2.96967C15.3897 2.82902 15.1989 2.75 15 2.75H11.955C10.118 2.75 8.679 2.75 7.536 2.874C6.371 3 5.426 3.262 4.62 3.848C4.13189 4.20264 3.70264 4.63189 3.348 5.12C2.762 5.927 2.5 6.87 2.374 8.036C2.25 9.179 2.25 10.618 2.25 12.455V12.545C2.25 14.382 2.25 15.821 2.374 16.963C2.5 18.129 2.762 19.073 3.348 19.88C3.70264 20.3681 4.13189 20.7974 4.62 21.152C5.427 21.738 6.37 22 7.536 22.126C8.679 22.25 10.118 22.25 11.955 22.25H12.045C13.882 22.25 15.321 22.25 16.464 22.126C17.629 22 18.574 21.738 19.38 21.152C19.8681 20.7974 20.2974 20.3681 20.652 19.88C21.238 19.073 21.5 18.13 21.626 16.964C21.75 15.821 21.75 14.382 21.75 12.545V9.5C21.75 9.30109 21.671 9.11032 21.5303 8.96967C21.3897 8.82902 21.1989 8.75 21 8.75C20.8011 8.75 20.6103 8.82902 20.4697 8.96967C20.329 9.11032 20.25 9.30109 20.25 9.5V12.5C20.25 14.392 20.249 15.75 20.135 16.802C20.022 17.84 19.807 18.49 19.438 18.998C19.176 19.358 18.858 19.676 18.498 19.938C17.99 20.308 17.34 20.523 16.302 20.635C15.25 20.749 13.892 20.75 12 20.75C10.108 20.75 8.75 20.749 7.698 20.635C6.66 20.522 6.01 20.307 5.502 19.938C5.1413 19.6759 4.82409 19.3587 4.562 18.998C4.192 18.49 3.977 17.84 3.865 16.802C3.751 15.75 3.75 14.392 3.75 12.5C3.75 10.608 3.751 9.25 3.865 8.198C3.977 7.16 4.193 6.51 4.562 6.002C4.824 5.642 5.142 5.324 5.502 5.062C6.01 4.692 6.66 4.477 7.698 4.365C8.75 4.251 10.108 4.25 12 4.25H15Z" fill="#004077"/>
<path d="M6.32731 15.0268C6.2478 15.2042 6.24028 15.4055 6.30636 15.5884C6.37244 15.7713 6.50695 15.9213 6.68152 16.0069C6.85609 16.0925 7.05708 16.107 7.24211 16.0472C7.42713 15.9875 7.58174 15.8583 7.67331 15.6868L9.13331 12.7098C9.58631 11.7878 10.9173 11.8328 11.3063 12.7838C12.1853 14.9328 15.1903 15.0338 16.2133 12.9498L17.6733 9.97276C17.7528 9.79534 17.7603 9.59397 17.6943 9.41111C17.6282 9.22826 17.4937 9.07821 17.3191 8.99261C17.1445 8.90701 16.9435 8.89255 16.7585 8.95228C16.5735 9.012 16.4189 9.14125 16.3273 9.31276L14.8673 12.2898C14.4143 13.2118 13.0833 13.1668 12.6943 12.2158C11.8153 10.0668 8.81031 9.96576 7.78731 12.0498L6.32731 15.0268Z" fill="#6B90B0"/>
<path fill-rule="evenodd" clip-rule="evenodd" d="M17.5 4.5C17.5 5.16304 17.7634 5.79893 18.2322 6.26777C18.7011 6.73661 19.337 7 20 7C20.663 7 21.2989 6.73661 21.7678 6.26777C22.2366 5.79893 22.5 5.16304 22.5 4.5C22.5 3.83696 22.2366 3.20107 21.7678 2.73223C21.2989 2.26339 20.663 2 20 2C19.337 2 18.7011 2.26339 18.2322 2.73223C17.7634 3.20107 17.5 3.83696 17.5 4.5ZM19 4.5C19 4.76522 19.1054 5.01957 19.2929 5.20711C19.4804 5.39464 19.7348 5.5 20 5.5C20.2652 5.5 20.5196 5.39464 20.7071 5.20711C20.8946 5.01957 21 4.76522 21 4.5C21 4.23478 20.8946 3.98043 20.7071 3.79289C20.5196 3.60536 20.2652 3.5 20 3.5C19.7348 3.5 19.4804 3.60536 19.2929 3.79289C19.1054 3.98043 19 4.23478 19 4.5Z" fill="#6B90B0"/>
</svg>
