<svg width="22" height="25" viewBox="0 0 22 25" fill="none" xmlns="http://www.w3.org/2000/svg">
<path d="M15.1637 13.5802C14.7798 12.6579 14.2139 11.7942 13.4649 11.0453C11.9762 9.55656 9.99699 8.73672 7.89165 8.73672C5.7864 8.73672 3.80716 9.55656 2.31851 11.0453C0.829852 12.5339 0.0100098 14.5131 0.0100098 16.6184C0.0100098 18.7236 0.829852 20.7028 2.31851 22.1915C3.80716 23.6802 5.78636 24.5001 7.89165 24.5001C9.99699 24.5001 11.9762 23.6802 13.4649 22.1915C15.7671 19.8891 16.3444 16.505 15.1969 13.6602C15.1883 13.6325 15.1772 13.6058 15.1637 13.5802ZM14.206 13.7288C13.1838 15.0282 12.8581 15.9764 12.5693 16.818C12.2754 17.6748 12.0215 18.4146 11.0279 19.4083C10.2369 20.1992 9.18526 20.6348 8.06673 20.6348C6.94806 20.6348 5.89647 20.1992 5.10559 19.4083C4.31458 18.6173 3.87897 17.5656 3.87897 16.4471C3.87897 15.3284 4.31458 14.2767 5.10559 13.4858C6.09929 12.4921 6.83912 12.2383 7.69585 11.9443C8.53852 11.6551 9.48783 11.3289 10.7894 10.3041C11.5286 10.6439 12.2095 11.1157 12.802 11.7082C13.404 12.3102 13.8717 12.9962 14.206 13.7288ZM12.802 21.5285C11.4905 22.8402 9.74658 23.5625 7.89165 23.5625C6.03681 23.5625 4.29297 22.8402 2.98146 21.5285C1.6699 20.2169 0.947508 18.4731 0.947508 16.6183C0.947508 14.7635 1.66985 13.0197 2.98146 11.7082C4.29302 10.3966 6.03681 9.67417 7.89165 9.67417C8.52348 9.67417 9.14227 9.75812 9.73561 9.92045C8.80098 10.5739 8.08665 10.819 7.39159 11.0575C6.46497 11.3755 5.58981 11.6759 4.44274 12.8228C3.47467 13.7909 2.94157 15.078 2.94157 16.4471C2.94157 17.8162 3.47467 19.1031 4.44274 20.0712C5.4107 21.0392 6.69775 21.5723 8.06677 21.5723C9.43576 21.5723 10.7228 21.0392 11.6908 20.0712C12.8379 18.924 13.1382 18.0488 13.4561 17.1223C13.694 16.429 13.9384 15.7167 14.588 14.7855C15.2204 17.1119 14.6252 19.7051 12.802 21.5285ZM20.2301 1.59776L13.4543 8.37297C13.2712 8.55606 13.2712 8.85278 13.4543 9.03592C13.4978 9.07951 13.5494 9.11409 13.6063 9.13766C13.6632 9.16123 13.7241 9.17333 13.7857 9.17326C13.8473 9.17334 13.9082 9.16125 13.9651 9.13768C14.022 9.11411 14.0736 9.07953 14.1171 9.03592L20.8929 2.26071C21.076 2.07771 21.076 1.7809 20.893 1.59786C20.71 1.41476 20.4132 1.41476 20.2301 1.59776ZM21.8508 0.635373C21.6667 0.453358 21.3699 0.455092 21.1879 0.639217L21.1801 0.647186C20.9981 0.83131 20.9998 1.12812 21.1839 1.31014C21.2716 1.39697 21.39 1.44562 21.5134 1.44547C21.6342 1.44547 21.7551 1.39906 21.8468 1.30629L21.8546 1.29833C22.0367 1.1142 22.0349 0.817389 21.8508 0.635373ZM11.7178 7.20855C11.7793 7.20861 11.8403 7.19653 11.8972 7.17297C11.9541 7.14942 12.0058 7.11487 12.0493 7.0713L14.738 4.38255C14.921 4.19955 14.921 3.90274 14.738 3.7196C14.5549 3.5367 14.2582 3.5366 14.0751 3.7196L11.3864 6.40835C11.2033 6.59135 11.2033 6.88816 11.3864 7.0713C11.4298 7.11486 11.4815 7.14941 11.5384 7.17297C11.5953 7.19652 11.6562 7.20861 11.7178 7.20855ZM20.0032 6.52703C19.8201 6.34403 19.5234 6.34403 19.3402 6.52703L15.4211 10.4461C15.238 10.6292 15.238 10.9261 15.4211 11.1091C15.4646 11.1527 15.5162 11.1873 15.5731 11.2108C15.63 11.2344 15.691 11.2465 15.7525 11.2464C15.8141 11.2465 15.8751 11.2344 15.932 11.2109C15.9889 11.1873 16.0405 11.1527 16.084 11.1091L20.0031 7.18998C20.1863 7.00684 20.1863 6.71003 20.0032 6.52703ZM19.0795 10.8278L17.3879 12.5194C17.2049 12.7024 17.2049 12.9992 17.3879 13.1824C17.4314 13.226 17.4831 13.2605 17.54 13.2841C17.5968 13.3076 17.6578 13.3197 17.7194 13.3196C17.781 13.3197 17.8419 13.3076 17.8988 13.2841C17.9557 13.2605 18.0073 13.2259 18.0508 13.1824L19.7424 11.4908C19.9255 11.3077 19.9255 11.0109 19.7424 10.8278C19.5593 10.6448 19.2626 10.6448 19.0795 10.8278ZM20.0398 9.86743L20.0317 9.87549C19.8487 10.0585 19.8487 10.3553 20.0317 10.5384C20.0752 10.582 20.1269 10.6166 20.1838 10.6401C20.2406 10.6637 20.3016 10.6758 20.3632 10.6757C20.4247 10.6758 20.4857 10.6637 20.5426 10.6401C20.5995 10.6166 20.6511 10.582 20.6946 10.5384L20.7027 10.5304C20.8857 10.3474 20.8857 10.0506 20.7027 9.86743C20.5196 9.68443 20.2228 9.68443 20.0398 9.86743Z" fill="#004077"/>
</svg>
