<svg width="20" height="21" viewBox="0 0 20 21" fill="none" xmlns="http://www.w3.org/2000/svg">
<path d="M19.3055 18.4777C19.3055 17.9725 18.8987 17.5628 18.3991 17.5628H18.371V11.2143C18.371 10.2372 17.5765 9.44042 16.5972 9.44042H11.4132V5.3259C11.4132 5.06487 11.2729 4.82059 11.0457 4.69155L9.83315 3.99283C9.60319 3.86073 9.31946 3.85799 9.09502 3.98995C8.87329 4.11902 8.73595 4.36313 8.73595 4.62983V9.44313H3.54338C2.56674 9.44313 1.76964 10.2372 1.76964 11.217V12.5024C1.76689 12.5218 1.76689 12.5416 1.76689 12.5613C1.76689 12.581 1.76964 12.6004 1.76964 12.6202V17.5682H1.74736C1.24757 17.5682 0.84082 17.978 0.84082 18.4831V19.342C0.84082 19.8471 1.24757 20.257 1.74736 20.257H18.3961C18.8957 20.257 19.3027 19.8471 19.3027 19.342V18.4776L19.3055 18.4777ZM1.79793 19.2971V18.5168H18.354V19.2971H1.79793ZM10.459 6.27464L9.68732 5.8283V5.00864L10.459 5.45195V6.27464ZM9.69007 6.47669L10.4618 6.92289V8.04535L9.69007 7.59905V6.47669ZM9.69007 8.25015L10.4618 8.69649V9.44317H9.69007V8.25015ZM3.54338 10.3974H16.5971C17.049 10.3974 17.4167 10.7649 17.4167 11.217V12.1542C17.0744 12.2527 16.7654 12.4519 16.5297 12.7354L16.033 13.3388C15.8729 13.5322 15.6372 13.6389 15.3846 13.6334C15.1378 13.6279 14.9188 13.5214 14.7672 13.3329C14.7644 13.3274 14.759 13.3219 14.7558 13.3163L14.1947 12.581C13.8605 12.146 13.3611 11.8905 12.8194 11.8793C12.2778 11.868 11.7668 12.1038 11.4162 12.5277L10.7508 13.3388C10.5908 13.5322 10.3551 13.6389 10.1027 13.6334C9.84993 13.6279 9.61709 13.5127 9.46542 13.3163L8.91534 12.5838V12.5782C8.5871 12.1487 8.07053 11.8877 7.53199 11.8766C6.99574 11.8653 6.48786 12.101 6.13678 12.525L5.43229 13.3809C5.27795 13.5687 5.04511 13.6757 4.79808 13.6757H4.79534C4.55123 13.6757 4.32085 13.5659 4.16387 13.3725L3.62751 12.7212C3.39175 12.4349 3.08029 12.2357 2.73223 12.1376V11.2058C2.724 10.7649 3.09173 10.3974 3.54338 10.3974ZM2.724 13.19C2.78298 13.2322 2.83615 13.2797 2.88386 13.3361L3.41993 13.987C3.75958 14.3996 4.25638 14.6354 4.78696 14.6354H4.7897C5.32289 14.6354 5.81969 14.4023 6.15645 13.9956L6.86093 13.1366C7.02365 12.9401 7.25938 12.828 7.50366 12.8334C7.75344 12.8393 7.9948 12.9599 8.14643 13.1592L8.69636 13.8917V13.8972C9.02489 14.3266 9.52732 14.5793 10.0718 14.5904H10.1082C10.6415 14.5904 11.1382 14.3577 11.4751 13.9505L12.1402 13.1394C12.3004 12.946 12.5444 12.8308 12.7885 12.8362C13.0385 12.8421 13.2685 12.9599 13.4256 13.1619L13.9672 13.8719C13.9731 13.8804 13.9786 13.8917 13.987 13.9001C14.3154 14.3295 14.8122 14.5792 15.3537 14.5904H15.3903C15.9236 14.5904 16.4204 14.3577 16.7572 13.9505L17.2539 13.3472C17.2989 13.291 17.3522 13.2433 17.4056 13.2041V17.5683H2.72396L2.724 13.19ZM10.1532 3.67571C10.2349 3.67582 10.3153 3.65445 10.3861 3.61374C10.6162 3.48453 10.6975 3.19284 10.5687 2.96535C10.4703 2.79144 10.4479 2.56975 10.5094 2.37055C10.56 2.20466 10.661 2.07862 10.7931 2.01112C11.0766 1.88205 11.3349 1.70787 11.5563 1.49469C11.6674 1.71978 11.7076 1.97329 11.6715 2.2217C11.6124 2.64273 11.346 3.00191 10.9587 3.17884C10.7199 3.28838 10.6134 3.5718 10.7229 3.81031C10.8044 3.98418 10.9754 4.08809 11.158 4.08809C11.2253 4.08809 11.2925 4.07423 11.3573 4.04329C12.0421 3.72892 12.5136 3.09717 12.6175 2.35077C12.7213 1.60135 12.4461 0.863222 11.8734 0.374973L11.8679 0.369202C11.8621 0.363656 11.8555 0.358975 11.8483 0.355302C11.8425 0.349706 11.8359 0.344945 11.8288 0.341156C11.826 0.341156 11.826 0.338411 11.823 0.335631C11.8202 0.332746 11.8146 0.330001 11.8119 0.330001C11.8036 0.324512 11.795 0.321485 11.7865 0.315996C11.7801 0.312698 11.7735 0.309853 11.7668 0.30748C11.7585 0.3047 11.7501 0.299387 11.7416 0.296325C11.7334 0.29344 11.7277 0.290695 11.7191 0.28795C11.7108 0.285065 11.7052 0.28232 11.6969 0.279575C11.6884 0.27683 11.6799 0.274051 11.6715 0.274051C11.6659 0.271165 11.6575 0.271165 11.652 0.268139C11.6436 0.265394 11.6349 0.265394 11.6266 0.262509C11.6211 0.262509 11.6124 0.259764 11.6069 0.259764C11.5985 0.259764 11.5901 0.259764 11.5788 0.257019H11.534C11.5283 0.257019 11.5199 0.257019 11.5144 0.259764C11.5059 0.259764 11.4976 0.262509 11.4893 0.262509C11.4806 0.262509 11.4751 0.265394 11.4667 0.265394C11.458 0.268139 11.4527 0.268139 11.4442 0.271165C11.4358 0.274051 11.4301 0.274051 11.4218 0.276795C11.4132 0.279575 11.4077 0.28232 11.4019 0.28232C11.3937 0.285065 11.3881 0.28795 11.3794 0.290695C11.3739 0.29344 11.3655 0.296325 11.36 0.299352C11.352 0.301744 11.3444 0.305518 11.3376 0.310506C11.3321 0.313251 11.3235 0.318741 11.3178 0.321485C11.3123 0.324512 11.3039 0.330001 11.298 0.332746C11.2925 0.338376 11.2841 0.341156 11.2787 0.346927C11.2729 0.352557 11.2674 0.355302 11.2616 0.360932C11.2535 0.366422 11.2476 0.372087 11.2421 0.377718C11.2365 0.383489 11.231 0.386233 11.2282 0.391723C11.2223 0.397353 11.2139 0.405869 11.2084 0.411394C11.2057 0.414138 11.2029 0.417024 11.2 0.419769C11.1973 0.422513 11.1973 0.422513 11.1944 0.425258C11.1888 0.43117 11.1832 0.43958 11.1775 0.44507C11.172 0.450559 11.1662 0.459075 11.1634 0.464846C11.1634 0.467591 11.1607 0.467591 11.158 0.470371C10.9699 0.762158 10.7005 0.992295 10.3833 1.13566C10.3804 1.1384 10.3776 1.1384 10.3749 1.14114C10.3721 1.14389 10.3694 1.14389 10.3636 1.14678C9.99329 1.33194 9.72086 1.66335 9.59164 2.08136C9.4543 2.53041 9.50476 3.01866 9.73226 3.42295C9.82189 3.5857 9.98478 3.67571 10.1531 3.67571H10.1532Z" fill="#6D747B"/>
</svg>
