<?xml version="1.0" encoding="UTF-8" standalone="no" ?>
<!DOCTYPE svg PUBLIC "-//W3C//DTD SVG 1.1//EN" "http://www.w3.org/Graphics/SVG/1.1/DTD/svg11.dtd">
<svg xmlns="http://www.w3.org/2000/svg" xmlns:xlink="http://www.w3.org/1999/xlink" version="1.1" width="1080" height="1080" viewBox="0 0 1080 1080" xml:space="preserve">
<desc>Created with Fabric.js 5.2.4</desc>
<defs>
</defs>
<g transform="matrix(1 0 0 1 540 540)" id="84526cc0-8fca-44af-92e3-aa34ec9329a4"  >
</g>
<g transform="matrix(1 0 0 1 540 540)" id="36abb4c3-aeef-4af9-9f3f-8680aa5aabb2"  >
<rect style="stroke: none; stroke-width: 1; stroke-dasharray: none; stroke-linecap: butt; stroke-dashoffset: 0; stroke-linejoin: miter; stroke-miterlimit: 4; fill: rgb(255,255,255); fill-rule: nonzero; opacity: 1; visibility: hidden;" vector-effect="non-scaling-stroke"  x="-540" y="-540" rx="0" ry="0" width="1080" height="1080" />
</g>
<g transform="matrix(0 -1.24 1.95 0 689.93 338.8)"  >
<g style="" vector-effect="non-scaling-stroke"   >
		<g transform="matrix(1 0 0 1 53.13 -73.9)" clip-path="url(#CLIPPATH_9)"  >
<clipPath id="CLIPPATH_9" >
	<rect transform="matrix(1 0 0 1 0 0)" id="clip0_457_23494" x="-224.5" y="-282" rx="21" ry="21" width="449" height="564" />
</clipPath>
<rect style="stroke: none; stroke-width: 1; stroke-dasharray: none; stroke-linecap: butt; stroke-dashoffset: 0; stroke-linejoin: miter; stroke-miterlimit: 4; fill: rgb(150,177,199); fill-rule: nonzero; opacity: 1;" vector-effect="non-scaling-stroke"  x="-224.5" y="-282" rx="21" ry="21" width="449" height="564" />
</g>
		<g transform="matrix(1 0 0 1 -68.19 208.37)" clip-path="url(#CLIPPATH_10)"  >
<clipPath id="CLIPPATH_10" >
	<rect transform="matrix(1 0 0 1 121.32 -282.27)" id="clip0_457_23494" x="-224.5" y="-282" rx="21" ry="21" width="449" height="564" />
</clipPath>
<circle style="stroke: none; stroke-width: 1; stroke-dasharray: none; stroke-linecap: butt; stroke-dashoffset: 0; stroke-linejoin: miter; stroke-miterlimit: 4; fill: rgb(107,144,176); fill-rule: nonzero; opacity: 0.65;" vector-effect="non-scaling-stroke"  cx="0" cy="0" r="243.995" />
</g>
		<g transform="matrix(1 0 0 1 175.81 -315.98)" clip-path="url(#CLIPPATH_11)"  >
<clipPath id="CLIPPATH_11" >
	<rect transform="matrix(1 0 0 1 -122.67 242.07)" id="clip0_457_23494" x="-224.5" y="-282" rx="21" ry="21" width="449" height="564" />
</clipPath>
<circle style="stroke: none; stroke-width: 1; stroke-dasharray: none; stroke-linecap: butt; stroke-dashoffset: 0; stroke-linejoin: miter; stroke-miterlimit: 4; fill: rgb(43,96,142); fill-rule: nonzero; opacity: 1;" vector-effect="non-scaling-stroke"  cx="0" cy="0" r="136.378" />
</g>
</g>
</g>
</svg>