<svg width="17" height="17" viewBox="0 0 17 17" fill="none" xmlns="http://www.w3.org/2000/svg">
<g clip-path="url(#clip0_457_23796)">
<path d="M15.2286 0.800964H10.8126C10.3646 0.800964 10.0126 1.15296 10.0126 1.60096C10.0126 2.04896 10.3646 2.40096 10.8126 2.40096H13.2766L10.3326 5.34496C8.06059 3.64896 4.82859 3.80896 2.78059 5.85696C0.540586 8.09696 0.540586 11.777 2.78059 14.017C5.02059 16.257 8.70059 16.257 10.9406 14.017C12.9886 11.969 13.1806 8.70496 11.4526 6.46496L14.3966 3.52096V6.01696C14.3966 6.46496 14.7486 6.81696 15.1966 6.81696C15.6446 6.81696 15.9966 6.46496 15.9966 6.01696V1.60096C16.0286 1.15296 15.6766 0.800964 15.2286 0.800964ZM9.85259 12.897C8.22059 14.529 5.56459 14.529 3.93259 12.897C2.30059 11.265 2.30059 8.60896 3.93259 6.97696C5.56459 5.34496 8.22059 5.34496 9.85259 6.97696C11.4846 8.60896 11.4846 11.265 9.85259 12.897Z" fill="#6D747B"/>
</g>
<defs>
<clipPath id="clip0_457_23796">
<rect width="16" height="16" fill="white" transform="translate(0.573242 0.257019)"/>
</clipPath>
</defs>
</svg>
