<svg width="17" height="25" viewBox="0 0 17 25" fill="none" xmlns="http://www.w3.org/2000/svg">
<path d="M13.7106 13.8687C16.8191 10.7612 16.8191 5.70498 13.7106 2.59749C10.6022 -0.510037 5.54436 -0.510037 2.43584 2.59749C-0.672625 5.70498 -0.672625 10.7612 2.43584 13.8687C3.75163 15.1841 5.41667 15.9425 7.13525 16.1443V18.8126H5.25941C4.74139 18.8126 4.32148 19.2324 4.32148 19.7502C4.32148 20.2681 4.74139 20.6879 5.25941 20.6879H7.13525V23.3292C7.1353 23.847 7.5552 24.2668 8.07327 24.2668C8.59128 24.2668 9.01119 23.847 9.01119 23.3292V20.6879H10.8871C11.4051 20.6879 11.825 20.2681 11.825 19.7502C11.825 19.2324 11.4051 18.8126 10.8871 18.8126H9.01119V16.1444C10.7298 15.9425 12.3949 15.1841 13.7106 13.8687ZM3.76231 12.5427C1.38523 10.1664 1.38523 6.29982 3.76231 3.92349C6.13934 1.54726 10.007 1.54712 12.3842 3.92349C14.7613 6.29982 14.7613 10.1664 12.3842 12.5427C10.0071 14.919 6.13939 14.919 3.76231 12.5427Z" fill="#81E200"/>
</svg>
