<svg width="25" height="25" viewBox="0 0 25 25" fill="none" xmlns="http://www.w3.org/2000/svg">
<g clip-path="url(#clip0_457_23787)">
<path d="M21.8832 0.257263H3.26326C1.77826 0.257263 0.573242 1.46228 0.573242 2.94728V21.5673C0.573242 23.0522 1.77826 24.2573 3.26326 24.2573H21.8833C23.3683 24.2573 24.5733 23.0522 24.5733 21.5672V2.94728C24.5732 1.46228 23.3682 0.257263 21.8832 0.257263ZM23.5733 21.5672C23.5733 22.5023 22.8182 23.2572 21.8833 23.2572H3.26326C2.32824 23.2572 1.57327 22.5022 1.57327 21.5672V2.94728C1.57327 2.01226 2.32829 1.25729 3.26326 1.25729H21.8833C22.8183 1.25729 23.5733 2.01231 23.5733 2.94728V21.5672Z" fill="#6D747B"/>
<path d="M8.07324 7.20729H9.32326V17.1073H8.07324V7.20729ZM17.0183 6.75729H15.7733V10.8573H15.7433C15.4333 10.2873 14.7683 9.86229 13.8383 9.86229C12.2882 9.86229 10.9433 11.2223 10.9433 13.6173C10.9433 15.8223 12.1382 17.2273 13.7183 17.2273C14.7533 17.2273 15.5183 16.6573 15.8582 15.9573H15.8982L15.9732 17.1073H17.0782C17.0482 16.6373 17.0182 15.9023 17.0182 15.3173V6.75729H17.0183ZM15.7733 14.2623C15.7783 14.4423 15.7583 14.6172 15.7133 14.7923C15.4633 15.7773 14.7632 16.2473 14.0533 16.2473C12.8083 16.2473 12.1833 15.0423 12.1833 13.5873C12.1833 12.0723 12.8483 10.8573 14.0833 10.8573C14.9433 10.8573 15.5683 11.5173 15.7283 12.3123C15.7583 12.4872 15.7733 12.6623 15.7733 12.8423V14.2623Z" fill="#6D747B"/>
</g>
<defs>
<clipPath id="clip0_457_23787">
<rect width="24" height="24" fill="white" transform="translate(0.573242 0.257263)"/>
</clipPath>
</defs>
</svg>
