<svg width="25" height="25" viewBox="0 0 25 25" fill="none" xmlns="http://www.w3.org/2000/svg">
<path fill-rule="evenodd" clip-rule="evenodd" d="M11.9068 1.16861C12.2892 0.732364 12.9176 0.744847 13.2779 1.2146L24.2903 13.7698C24.4688 13.9805 24.5704 14.2658 24.5732 14.5644C24.576 14.8629 24.4797 15.1508 24.3051 15.366C24.1306 15.5813 23.8917 15.7066 23.6399 15.715C23.3882 15.7234 23.1437 15.6143 22.9592 15.411L12.5735 3.56994L2.18725 15.411C2.00278 15.6142 1.75841 15.7233 1.50673 15.715C1.25506 15.7066 1.01621 15.5814 0.84163 15.3663C0.667047 15.1513 0.570685 14.8635 0.573294 14.565C0.575902 14.2666 0.677272 13.9812 0.855577 13.7705C4.53915 9.57097 8.22438 5.36618 11.9057 1.16927L11.9068 1.16861Z" fill="#6D747B"/>
<path fill-rule="evenodd" clip-rule="evenodd" d="M11.954 8.83383C12.3087 8.42912 12.8928 8.43963 13.2264 8.87588L21.4758 18.2802C21.6379 18.4766 21.7291 18.7402 21.7301 19.015C21.7311 19.2898 21.6417 19.5543 21.481 19.7523C21.3203 19.9504 21.1009 20.0664 20.8692 20.0759C20.6375 20.0854 20.4118 19.9875 20.24 19.8031L12.5725 11.063L4.90611 19.8031C4.73427 19.9875 4.50859 20.0854 4.27693 20.0759C4.04526 20.0664 3.82581 19.9504 3.6651 19.7523C3.50439 19.5543 3.41505 19.2898 3.41602 19.015C3.417 18.7402 3.50821 18.4766 3.67031 18.2802C6.43119 15.1318 9.19373 11.9795 11.9535 8.83383H11.954Z" fill="#6D747B"/>
<path fill-rule="evenodd" clip-rule="evenodd" d="M11.9965 16.0976C12.3273 15.7205 12.8704 15.7297 13.1813 16.1357L19.3587 23.1787C19.5078 23.3621 19.5912 23.6069 19.5913 23.8617C19.5914 24.1165 19.5082 24.3614 19.3592 24.545C19.2102 24.7286 19.007 24.8366 18.7923 24.8463C18.5776 24.856 18.368 24.7667 18.2076 24.5972L12.5734 18.173L6.9386 24.5972C6.77845 24.7688 6.56823 24.8598 6.35246 24.8509C6.13669 24.842 5.93234 24.7338 5.7827 24.5493C5.63305 24.3648 5.54988 24.1184 5.55079 23.8625C5.5517 23.6065 5.63663 23.3611 5.78759 23.1781C7.85741 20.8188 9.92835 18.4556 11.9965 16.0976Z" fill="#6D747B"/>
</svg>
