<svg width="22" height="22" viewBox="0 0 22 22" fill="none" xmlns="http://www.w3.org/2000/svg">
<path d="M21.0579 17.587C21.0579 17.947 20.9779 18.317 20.8079 18.677C20.6379 19.037 20.4179 19.377 20.1279 19.697C19.6379 20.237 19.0979 20.627 18.4879 20.877C17.8879 21.127 17.2379 21.257 16.5379 21.257C15.5179 21.257 14.4279 21.017 13.2779 20.527C12.1279 20.037 10.9779 19.377 9.83789 18.547C8.676 17.6971 7.57958 16.7612 6.55789 15.747C5.54666 14.729 4.61399 13.6359 3.76789 12.477C2.94789 11.337 2.28789 10.197 1.80789 9.06702C1.32789 7.92702 1.08789 6.83702 1.08789 5.79702C1.08789 5.11702 1.20789 4.46702 1.44789 3.86702C1.68789 3.25702 2.06789 2.69702 2.59789 2.19702C3.23789 1.56702 3.93789 1.25702 4.67789 1.25702C4.95789 1.25702 5.23789 1.31702 5.48789 1.43702C5.74789 1.55702 5.97789 1.73702 6.15789 1.99702L8.47789 5.26702C8.65789 5.51702 8.78789 5.74702 8.87789 5.96702C8.96789 6.17702 9.01789 6.38702 9.01789 6.57702C9.01789 6.81702 8.94789 7.05702 8.80789 7.28702C8.67789 7.51702 8.48789 7.75702 8.24789 7.99702L7.48789 8.78702C7.37789 8.89702 7.32789 9.02702 7.32789 9.18702C7.32789 9.26702 7.33789 9.33702 7.35789 9.41702C7.38789 9.49702 7.41789 9.55702 7.43789 9.61702C7.61789 9.94702 7.92789 10.377 8.36789 10.897C8.81789 11.417 9.29789 11.947 9.81789 12.477C10.3579 13.007 10.8779 13.497 11.4079 13.947C11.9279 14.387 12.3579 14.687 12.6979 14.867C12.7479 14.887 12.8079 14.917 12.8779 14.947C12.9579 14.977 13.0379 14.987 13.1279 14.987C13.2979 14.987 13.4279 14.927 13.5379 14.817L14.2979 14.067C14.5479 13.817 14.7879 13.627 15.0179 13.507C15.2479 13.367 15.4779 13.297 15.7279 13.297C15.9179 13.297 16.1179 13.337 16.3379 13.427C16.5579 13.517 16.7879 13.647 17.0379 13.817L20.3479 16.167C20.6079 16.347 20.7879 16.557 20.8979 16.807C20.9979 17.057 21.0579 17.307 21.0579 17.587Z" stroke="#6D747B" stroke-width="1.5" stroke-miterlimit="10"/>
</svg>
