<svg width="58" height="107" viewBox="0 0 58 107" fill="none" xmlns="http://www.w3.org/2000/svg">
<path d="M57.4049 96.8146C57.9907 96.2288 57.9907 95.279 57.4049 94.6932L47.859 85.1473C47.2732 84.5615 46.3234 84.5615 45.7376 85.1473C45.1519 85.7331 45.1519 86.6828 45.7376 87.2686L54.2229 95.7539L45.7376 104.239C45.1519 104.825 45.1519 105.775 45.7376 106.361C46.3234 106.946 47.2732 106.946 47.859 106.361L57.4049 96.8146ZM2.15283 0.986328C1.3244 0.986328 0.652832 1.6579 0.652832 2.48633C0.652832 3.31476 1.3244 3.98633 2.15283 3.98633V0.986328ZM56.3442 94.2539H53.2485V97.2539H56.3442V94.2539ZM30.7485 71.7539V26.4863H27.7485V71.7539H30.7485ZM5.24854 0.986328H2.15283V3.98633H5.24854V0.986328ZM30.7485 26.4863C30.7485 12.4031 19.3318 0.986328 5.24854 0.986328V3.98633C17.6749 3.98633 27.7485 14.0599 27.7485 26.4863H30.7485ZM53.2485 94.2539C40.8221 94.2539 30.7485 84.1803 30.7485 71.7539H27.7485C27.7485 85.8372 39.1653 97.2539 53.2485 97.2539V94.2539Z" fill="#6B90B0"/>
</svg>
