<svg width="58" height="95" viewBox="0 0 58 95" fill="none" xmlns="http://www.w3.org/2000/svg">
<path d="M57.4049 12.8146C57.9907 12.2288 57.9907 11.279 57.4049 10.6932L47.859 1.1473C47.2732 0.561518 46.3234 0.561518 45.7376 1.1473C45.1519 1.73309 45.1519 2.68284 45.7376 3.26863L54.2229 11.7539L45.7376 20.2392C45.1519 20.825 45.1519 21.7747 45.7376 22.3605C46.3234 22.9463 47.2732 22.9463 47.859 22.3605L57.4049 12.8146ZM2.15283 91.9863C1.3244 91.9863 0.652832 92.6579 0.652832 93.4863C0.652832 94.3148 1.3244 94.9863 2.15283 94.9863V91.9863ZM56.3442 10.2539H53.2485V13.2539H56.3442V10.2539ZM27.7485 35.7539V69.4863H30.7485V35.7539H27.7485ZM5.24854 91.9863H2.15283V94.9863H5.24854V91.9863ZM27.7485 69.4863C27.7485 81.9127 17.6749 91.9863 5.24854 91.9863V94.9863C19.3318 94.9863 30.7485 83.5696 30.7485 69.4863H27.7485ZM53.2485 10.2539C39.1653 10.2539 27.7485 21.6706 27.7485 35.7539H30.7485C30.7485 23.3275 40.8221 13.2539 53.2485 13.2539V10.2539Z" fill="#6B90B0"/>
</svg>
