<svg width="24" height="25" viewBox="0 0 24 25" fill="none" xmlns="http://www.w3.org/2000/svg">
<path d="M12 24.3408C5.383 24.3408 0 18.9578 0 12.3408C0 5.72382 5.383 0.34082 12 0.34082C18.617 0.34082 24 5.72382 24 12.3408C24 18.9578 18.617 24.3408 12 24.3408ZM12 2.34082C6.486 2.34082 2 6.82682 2 12.3408C2 17.8548 6.486 22.3408 12 22.3408C17.514 22.3408 22 17.8548 22 12.3408C22 6.82682 17.514 2.34082 12 2.34082ZM17 12.3408C17 11.7878 16.553 11.3408 16 11.3408H13V6.34082C13 5.78782 12.552 5.34082 12 5.34082C11.448 5.34082 11 5.78782 11 6.34082V12.3408C11 12.8938 11.448 13.3408 12 13.3408H16C16.553 13.3408 17 12.8938 17 12.3408Z" fill="#989DA2"/>
</svg>
