<svg width="14" height="24" viewBox="0 0 14 24" fill="none" xmlns="http://www.w3.org/2000/svg">
<path d="M7.34299 12.8554C7.32987 13.4626 7.30578 14.0696 7.27074 14.676L9.02248 14.3199C9.0477 13.8386 9.06594 13.3486 9.07689 12.8554L7.34299 12.8554ZM13.3622 12.8554H10.8217C10.8137 13.2259 10.8018 13.5954 10.786 13.9613L12.6424 13.5838C12.8178 13.5481 13 13.5676 13.1639 13.6395C13.2502 13.3836 13.3165 13.1215 13.3622 12.8554ZM7.29456 9.26301C7.32485 9.87831 7.34378 10.4941 7.35133 11.1101H9.08549C9.07927 10.6128 9.06538 10.1156 9.04382 9.61869L7.29456 9.26301ZM8.92767 7.81415C8.89684 7.45334 8.86062 7.09301 8.81903 6.73328C8.60643 6.70749 8.39247 6.69457 8.17831 6.69458C7.81028 6.69458 7.45137 6.73276 7.10472 6.80466C7.12814 7.0218 7.14969 7.23913 7.16939 7.45664L8.92767 7.81415ZM10.7069 8.17594L12.1106 8.46138C11.6915 7.98978 11.1912 7.5972 10.6335 7.30227C10.661 7.59323 10.6855 7.88447 10.7069 8.17594ZM5.60609 11.1101C5.59679 10.358 5.57074 9.61878 5.52838 8.90393L4.11307 8.61613C4.11102 8.61862 4.10884 8.62102 4.10679 8.62355C4.04832 8.69454 3.99182 8.76715 3.93737 8.84127V8.84145C3.45442 9.49801 3.12042 10.2709 2.98486 11.1101H5.60609ZM7.13025 16.4856C7.11012 16.69 7.08843 16.8943 7.06519 17.0984C7.43098 17.1773 7.80414 17.2171 8.17835 17.2171C8.38063 17.2171 8.58011 17.205 8.77645 17.1828C8.8195 16.8316 8.85755 16.4799 8.89059 16.1277L7.13025 16.4856ZM12.6423 10.3504L10.8036 9.97655C10.8165 10.3502 10.8252 10.7292 10.8299 11.1101H13.3717C13.3269 10.8323 13.2597 10.5585 13.1708 10.2915C13.0103 10.3632 12.8273 10.3881 12.6423 10.3504ZM10.6744 15.7649C10.6508 16.0535 10.6242 16.3419 10.5947 16.6299C11.1567 16.3385 11.6617 15.9483 12.0856 15.478L10.6744 15.7649ZM5.50198 15.0357C5.54963 14.3287 5.58174 13.5982 5.5978 12.8554H2.99442C3.11348 13.5472 3.37059 14.208 3.75041 14.7983C3.8004 14.8762 3.85247 14.9526 3.90657 15.0277C3.97763 15.1259 4.05207 15.2216 4.12974 15.3147L5.50198 15.0357Z" fill="#989DA2"/>
<path d="M4.4375 0.759277C7.21453 3.68317 7.11409 19.9506 4.4375 23.0984L11.6422 15.8937V15.8865C11.9444 15.6223 12.2154 15.3245 12.4502 14.999C12.5043 14.924 12.5563 14.8476 12.6063 14.7698C13.0966 14.0088 13.3808 13.1336 13.4311 12.2297C13.4362 12.1376 13.4391 12.0444 13.4395 11.9509V11.9507C13.4397 11.9428 13.4397 11.9351 13.4397 11.9273C13.4397 10.7618 13.0607 9.68479 12.4193 8.81287V8.81269C12.3649 8.73857 12.3084 8.66597 12.2499 8.59497C12.065 8.36942 11.8618 8.15958 11.6422 7.9676V7.96394L4.4375 0.759277Z" stroke="#989DA2" stroke-width="0.843647" stroke-miterlimit="10" stroke-linecap="round" stroke-linejoin="round"/>
<path d="M9.54548 17.9904C10.0768 14.33 10.103 9.57751 9.59936 5.92114L9.54548 17.9904ZM0.557617 16.9046L12.8164 14.4119L0.557617 16.9046ZM0.557617 6.9757L12.8164 9.4683L0.557617 6.9757ZM0.557617 11.9558H13.4397H0.557617Z" fill="#989DA2"/>
<path d="M9.54548 17.9904C10.0768 14.33 10.103 9.57751 9.59936 5.92114M0.557617 16.9046L12.8164 14.4119M0.557617 6.9757L12.8164 9.4683M0.557617 11.9558H13.4397" stroke="#989DA2" stroke-width="0.872621" stroke-miterlimit="10" stroke-linecap="round" stroke-linejoin="round"/>
</svg>
