<svg width="58" height="179" viewBox="0 0 58 179" fill="none" xmlns="http://www.w3.org/2000/svg">
<path d="M57.4044 96.8146C57.9902 96.2288 57.9902 95.279 57.4044 94.6932L47.8585 85.1473C47.2727 84.5615 46.3229 84.5615 45.7371 85.1473C45.1514 85.7331 45.1514 86.6828 45.7371 87.2686L54.2224 95.7539L45.7371 104.239C45.1514 104.825 45.1514 105.775 45.7371 106.361C46.3229 106.946 47.2727 106.946 47.8585 106.361L57.4044 96.8146ZM2.15234 0.986328C1.32392 0.986328 0.652344 1.6579 0.652344 2.48633C0.652344 3.31476 1.32392 3.98633 2.15234 3.98633V0.986328ZM56.3438 94.2539H53.248V97.2539H56.3438V94.2539ZM30.748 71.7539V26.4863H27.748V71.7539H30.748ZM5.24805 0.986328H2.15234V3.98633H5.24805V0.986328ZM30.748 26.4863C30.748 12.4031 19.3313 0.986328 5.24805 0.986328V3.98633C17.6745 3.98633 27.748 14.0599 27.748 26.4863H30.748ZM53.248 94.2539C40.8216 94.2539 30.748 84.1803 30.748 71.7539H27.748C27.748 85.8372 39.1648 97.2539 53.248 97.2539V94.2539Z" fill="#6B90B0"/>
<path d="M57.4044 96.8146C57.9902 96.2288 57.9902 95.279 57.4044 94.6932L47.8585 85.1473C47.2727 84.5615 46.3229 84.5615 45.7371 85.1473C45.1514 85.7331 45.1514 86.6828 45.7371 87.2686L54.2224 95.7539L45.7371 104.239C45.1514 104.825 45.1514 105.775 45.7371 106.361C46.3229 106.946 47.2727 106.946 47.8585 106.361L57.4044 96.8146ZM2.15234 175.986C1.32392 175.986 0.652344 176.658 0.652344 177.486C0.652344 178.315 1.32392 178.986 2.15234 178.986V175.986ZM56.3438 94.2539H53.248V97.2539H56.3438V94.2539ZM27.748 119.754V153.486H30.748V119.754H27.748ZM5.24805 175.986H2.15234V178.986H5.24805V175.986ZM27.748 153.486C27.748 165.913 17.6745 175.986 5.24805 175.986V178.986C19.3313 178.986 30.748 167.57 30.748 153.486H27.748ZM53.248 94.2539C39.1648 94.2539 27.748 105.671 27.748 119.754H30.748C30.748 107.327 40.8216 97.2539 53.248 97.2539V94.2539Z" fill="#6B90B0"/>
</svg>
