<svg width="54" height="411" viewBox="0 0 54 411" fill="none" xmlns="http://www.w3.org/2000/svg">
<path d="M53.0607 188.633C53.6464 188.048 53.6464 187.098 53.0607 186.512L43.5147 176.966C42.9289 176.38 41.9792 176.38 41.3934 176.966C40.8076 177.552 40.8076 178.502 41.3934 179.087L49.8787 187.573L41.3934 196.058C40.8076 196.644 40.8076 197.594 41.3934 198.179C41.9792 198.765 42.9289 198.765 43.5147 198.179L53.0607 188.633ZM2.34375 407.913C1.51532 407.913 0.84375 408.585 0.84375 409.413C0.84375 410.242 1.51532 410.913 2.34375 410.913V407.913ZM52 186.073H51.1719V189.073H52V186.073ZM25.6719 211.573V385.413H28.6719V211.573H25.6719ZM3.17187 407.913H2.34375V410.913H3.17187V407.913ZM25.6719 385.413C25.6719 397.839 15.5983 407.913 3.17187 407.913V410.913C17.2551 410.913 28.6719 399.496 28.6719 385.413H25.6719ZM51.1719 186.073C37.0886 186.073 25.6719 197.489 25.6719 211.573H28.6719C28.6719 199.146 38.7455 189.073 51.1719 189.073V186.073Z" fill="#6B90B0"/>
<path d="M53.0607 188.633C53.6464 188.048 53.6464 187.098 53.0607 186.512L43.5147 176.966C42.9289 176.38 41.9792 176.38 41.3934 176.966C40.8076 177.552 40.8076 178.502 41.3934 179.087L49.8787 187.573L41.3934 196.058C40.8076 196.644 40.8076 197.594 41.3934 198.179C41.9792 198.765 42.9289 198.765 43.5147 198.179L53.0607 188.633ZM2.34375 0.253906C1.51532 0.253906 0.84375 0.925479 0.84375 1.75391C0.84375 2.58233 1.51532 3.25391 2.34375 3.25391V0.253906ZM52 186.073H51.1719V189.073H52V186.073ZM28.6719 163.573V25.7539H25.6719V163.573H28.6719ZM3.17187 0.253906H2.34375V3.25391H3.17187V0.253906ZM28.6719 25.7539C28.6719 11.6706 17.2551 0.253906 3.17187 0.253906V3.25391C15.5983 3.25391 25.6719 13.3275 25.6719 25.7539H28.6719ZM51.1719 186.073C38.7455 186.073 28.6719 175.999 28.6719 163.573H25.6719C25.6719 177.656 37.0886 189.073 51.1719 189.073V186.073Z" fill="#6B90B0"/>
</svg>
