<svg width="19" height="22" viewBox="0 0 19 22" fill="none" xmlns="http://www.w3.org/2000/svg">
<path d="M15.0011 15.6427C14.0645 16.5793 12.1058 18.538 10.758 19.8857C9.97699 20.6668 8.71192 20.6672 7.93087 19.8862C6.60658 18.5619 4.68583 16.6411 3.68738 15.6427C0.56319 12.5185 0.56319 7.45318 3.68738 4.32899C6.81158 1.20479 11.8769 1.20479 15.0011 4.32899C18.1253 7.45318 18.1253 12.5185 15.0011 15.6427Z" stroke="#989DA2" stroke-width="2" stroke-linecap="round" stroke-linejoin="round"/>
<path d="M12.3442 9.98584C12.3442 11.6427 11.0011 12.9858 9.34424 12.9858C7.68738 12.9858 6.34424 11.6427 6.34424 9.98584C6.34424 8.32899 7.68738 6.98584 9.34424 6.98584C11.0011 6.98584 12.3442 8.32899 12.3442 9.98584Z" stroke="#989DA2" stroke-width="2" stroke-linecap="round" stroke-linejoin="round"/>
</svg>
