<svg width="58" height="179" viewBox="0 0 58 179" fill="none" xmlns="http://www.w3.org/2000/svg">
<path d="M0.786996 96.8146C0.20121 96.2288 0.20121 95.279 0.786996 94.6932L10.3329 85.1473C10.9187 84.5615 11.8685 84.5615 12.4543 85.1473C13.04 85.7331 13.04 86.6828 12.4543 87.2686L3.96898 95.7539L12.4543 104.239C13.04 104.825 13.04 105.775 12.4543 106.361C11.8685 106.946 10.9187 106.946 10.3329 106.361L0.786996 96.8146ZM56.0391 0.986328C56.8675 0.986328 57.5391 1.6579 57.5391 2.48633C57.5391 3.31476 56.8675 3.98633 56.0391 3.98633V0.986328ZM1.84766 94.2539H4.94336V97.2539H1.84766V94.2539ZM27.4434 71.7539V26.4863H30.4434V71.7539H27.4434ZM52.9434 0.986328H56.0391V3.98633H52.9434V0.986328ZM27.4434 26.4863C27.4434 12.4031 38.8601 0.986328 52.9434 0.986328V3.98633C40.517 3.98633 30.4434 14.0599 30.4434 26.4863H27.4434ZM4.94336 94.2539C17.3698 94.2539 27.4434 84.1803 27.4434 71.7539H30.4434C30.4434 85.8372 19.0266 97.2539 4.94336 97.2539V94.2539Z" fill="#6B90B0"/>
<path d="M0.786996 96.8146C0.20121 96.2288 0.20121 95.279 0.786996 94.6932L10.3329 85.1473C10.9187 84.5615 11.8685 84.5615 12.4543 85.1473C13.04 85.7331 13.04 86.6828 12.4543 87.2686L3.96898 95.7539L12.4543 104.239C13.04 104.825 13.04 105.775 12.4543 106.361C11.8685 106.946 10.9187 106.946 10.3329 106.361L0.786996 96.8146ZM56.0391 175.986C56.8675 175.986 57.5391 176.658 57.5391 177.486C57.5391 178.315 56.8675 178.986 56.0391 178.986V175.986ZM1.84766 94.2539H4.94336V97.2539H1.84766V94.2539ZM30.4434 119.754V153.486H27.4434V119.754H30.4434ZM52.9434 175.986H56.0391V178.986H52.9434V175.986ZM30.4434 153.486C30.4434 165.913 40.517 175.986 52.9434 175.986V178.986C38.8601 178.986 27.4434 167.57 27.4434 153.486H30.4434ZM4.94336 94.2539C19.0266 94.2539 30.4434 105.671 30.4434 119.754H27.4434C27.4434 107.327 17.3698 97.2539 4.94336 97.2539V94.2539Z" fill="#6B90B0"/>
</svg>
