<svg width="54" height="412" viewBox="0 0 54 412" fill="none" xmlns="http://www.w3.org/2000/svg">
<path d="M0.93934 182.512C0.353553 183.098 0.353553 184.048 0.93934 184.633L10.4853 194.179C11.0711 194.765 12.0208 194.765 12.6066 194.179C13.1924 193.594 13.1924 192.644 12.6066 192.058L4.12132 183.573L12.6066 175.087C13.1924 174.502 13.1924 173.552 12.6066 172.966C12.0208 172.38 11.0711 172.38 10.4853 172.966L0.93934 182.512ZM51.6562 3.86621C52.4847 3.86621 53.1562 3.19464 53.1562 2.36621C53.1562 1.53778 52.4847 0.866211 51.6562 0.866211V3.86621ZM2 185.073H2.82813V182.073H2V185.073ZM28.3281 159.573V26.3662H25.3281V159.573H28.3281ZM50.8281 3.86621H51.6562V0.866211H50.8281V3.86621ZM28.3281 26.3662C28.3281 13.9398 38.4017 3.86621 50.8281 3.86621V0.866211C36.7449 0.866211 25.3281 12.283 25.3281 26.3662H28.3281ZM2.82813 185.073C16.9114 185.073 28.3281 173.656 28.3281 159.573H25.3281C25.3281 171.999 15.2545 182.073 2.82813 182.073V185.073Z" fill="#6B90B0"/>
<path d="M0.93934 182.512C0.353553 183.098 0.353553 184.048 0.93934 184.633L10.4853 194.179C11.0711 194.765 12.0208 194.765 12.6066 194.179C13.1924 193.594 13.1924 192.644 12.6066 192.058L4.12132 183.573L12.6066 175.087C13.1924 174.502 13.1924 173.552 12.6066 172.966C12.0208 172.38 11.0711 172.38 10.4853 172.966L0.93934 182.512ZM51.6562 411.525C52.4847 411.525 53.1562 410.854 53.1562 410.025C53.1562 409.197 52.4847 408.525 51.6562 408.525V411.525ZM2 185.073H2.82813V182.073H2V185.073ZM25.3281 207.573V386.025H28.3281V207.573H25.3281ZM50.8281 411.525H51.6562V408.525H50.8281V411.525ZM25.3281 386.025C25.3281 400.109 36.7449 411.525 50.8281 411.525V408.525C38.4017 408.525 28.3281 398.452 28.3281 386.025H25.3281ZM2.82813 185.073C15.2545 185.073 25.3281 195.146 25.3281 207.573H28.3281C28.3281 193.489 16.9114 182.073 2.82813 182.073V185.073Z" fill="#6B90B0"/>
</svg>
