<svg width="118" height="117" viewBox="0 0 118 117" fill="none" xmlns="http://www.w3.org/2000/svg">
<g clip-path="url(#clip0_1_6573)">
<path d="M44.3562 76.6465C44.1275 76.6465 43.8997 76.6333 43.6737 76.6066C41.6257 76.3642 39.9962 75.1122 39.0851 73.0817C38.9923 72.8751 38.9416 72.6524 38.9357 72.4263C38.9298 72.2002 38.9689 71.9752 39.0508 71.764C39.1326 71.5529 39.2556 71.3599 39.4127 71.1959C39.5698 71.0319 39.758 70.9003 39.9664 70.8084C40.3874 70.623 40.8654 70.6108 41.2954 70.7746C41.7254 70.9384 42.0722 71.2648 42.2596 71.682C42.6645 72.5849 43.2788 73.0912 44.0857 73.1864C45.0333 73.2979 46.1567 72.8225 46.7538 72.0536C47.3016 71.3485 47.4995 70.3587 47.2705 69.4705C47.1243 68.9035 46.7378 68.1347 45.7273 67.6945C42.7173 66.3825 39.2889 67.6397 35.3189 69.0944C28.1286 71.7303 19.1794 75.0107 9.23029 63.2822L5.10991 58.4249C4.70043 57.9449 4.39123 57.3891 4.20026 56.7897C4.00929 56.1902 3.94037 55.5592 3.99749 54.9331C4.05106 54.3068 4.22961 53.6973 4.52277 53.14C4.81592 52.5827 5.21785 52.0887 5.70519 51.6867C7.02678 50.5904 8.59655 49.8279 10.2802 49.4643C11.9639 49.1007 13.7113 49.1469 15.373 49.5989L17.3959 50.1494C17.9259 50.2936 18.4833 50.308 19.0202 50.1914C19.557 50.0747 20.0573 49.8305 20.4779 49.4797L25.9662 44.9029C26.3194 44.6142 26.7732 44.4754 27.2291 44.5167C27.6849 44.558 28.106 44.776 28.4006 45.1233C28.6952 45.4706 28.8397 45.9192 28.8026 46.3715C28.7655 46.8239 28.5498 47.2434 28.2024 47.539L22.7139 52.1158C21.8625 52.8255 20.85 53.3196 19.7635 53.5556C18.6769 53.7916 17.5488 53.7624 16.4761 53.4706L14.4535 52.9201C13.333 52.6154 12.1547 52.5843 11.0195 52.8294C9.88421 53.0746 8.82574 53.5888 7.9346 54.3279C7.79865 54.4401 7.68655 54.5779 7.60479 54.7333C7.52304 54.8888 7.47326 55.0588 7.45837 55.2335C7.44238 55.4082 7.46156 55.5842 7.5148 55.7515C7.56803 55.9187 7.65426 56.0738 7.76847 56.2077L11.8888 61.065C20.2656 70.9396 26.9922 68.4739 34.1139 65.8636C38.3988 64.2929 42.8295 62.6687 47.1252 64.5407C48.9124 65.3197 50.1594 66.7674 50.6361 68.6173C51.1308 70.5367 50.7085 72.6066 49.5061 74.155C48.31 75.6954 46.3066 76.6465 44.3562 76.6465ZM76.9066 49.4505C75.9837 49.4513 75.0709 49.2596 74.2277 48.8877C72.4688 48.1097 71.2396 46.6472 70.7666 44.7695C69.6293 40.2563 71.9907 36.1997 74.2745 32.277C78.0702 25.7574 81.6552 19.599 73.2496 9.74843L69.1149 4.90292C69.001 4.7688 68.8613 4.65843 68.7041 4.57824C68.5468 4.49804 68.375 4.44961 68.1987 4.43575C68.0225 4.42061 67.845 4.44048 67.6767 4.49421C67.5083 4.54793 67.3524 4.63443 67.2182 4.74863C66.3331 5.49497 65.6436 6.44275 65.2086 7.5109C64.7735 8.57904 64.6059 9.73578 64.72 10.8822L64.9264 12.9516C65.0358 14.0491 64.8746 15.1565 64.4568 16.1786C64.039 17.2006 63.3771 18.1068 62.5279 18.8191L57.0529 23.4116C56.8787 23.5577 56.6773 23.6684 56.46 23.7373C56.2427 23.8062 56.0138 23.832 55.7865 23.8132C55.5591 23.7944 55.3377 23.7314 55.135 23.6277C54.9322 23.524 54.752 23.3818 54.6048 23.209C54.4574 23.0364 54.3458 22.8367 54.2763 22.6213C54.2068 22.4059 54.1808 22.179 54.1997 21.9536C54.2187 21.7283 54.2822 21.5088 54.3867 21.3078C54.4912 21.1068 54.6347 20.9281 54.8088 20.7821L60.2839 16.1896C60.7035 15.8377 61.0306 15.3899 61.237 14.8849C61.4435 14.3798 61.523 13.8326 61.4689 13.2903L61.2626 11.2209C61.0933 9.52073 61.342 7.80525 61.9872 6.22115C62.6324 4.63704 63.655 3.23144 64.9675 2.12457C65.9497 1.29671 67.1985 0.897731 68.483 1.00286C69.115 1.05256 69.7308 1.22626 70.2945 1.51388C70.8582 1.8015 71.3587 2.1973 71.7668 2.67829L75.9016 7.52403C85.885 19.2235 81.1154 27.4161 77.2832 33.9991C75.1674 37.6334 73.3401 40.7724 74.137 43.935C74.4043 44.9967 75.1036 45.504 75.6429 45.7423C76.4875 46.1159 77.5049 46.0892 78.2983 45.6728C79.1632 45.219 79.8259 44.2026 79.8741 43.2563C79.915 42.452 79.5153 41.7661 78.6861 41.2181C78.3086 40.9623 78.0481 40.5693 77.961 40.1243C77.8739 39.6793 77.9673 39.2183 78.2208 38.8411C78.4743 38.4639 78.8676 38.201 79.3154 38.1094C79.7632 38.0178 80.2293 38.1049 80.6127 38.3518C82.4781 39.5843 83.4479 41.388 83.3439 43.4303C83.2344 45.576 81.8601 47.701 79.9237 48.7171C78.9934 49.2049 77.9523 49.4505 76.9066 49.4505Z" fill="#FF901D"/>
<path d="M79.6095 105.35L68.6826 106.129L58.4059 116.59C58.2826 116.715 58.1351 116.815 57.9722 116.883C57.8094 116.951 57.6344 116.986 57.4576 116.986H20.8278C19.5636 116.986 19.0188 115.397 20.0209 114.633L53.5635 89.0629L64.3483 71.2402C66.1561 68.2528 70.3359 67.7917 72.7618 70.312L92.9986 85.6828C96.0573 88.0059 96.2467 92.5087 93.3939 95.0765L84.888 102.732C83.4063 104.084 81.5732 104.993 79.6095 105.35Z" fill="#FED9A8"/>
<path d="M92.9981 85.683L88.0506 81.925C88.5825 84.026 87.985 86.365 86.2142 87.9589L77.7084 95.6144C76.2267 96.9659 74.3935 97.8748 72.4297 98.2323L61.5028 99.0108L43.8438 116.986H57.4571C57.6339 116.986 57.8089 116.951 57.9718 116.883C58.1347 116.815 58.2821 116.715 58.4055 116.59L68.6823 106.129L79.6092 105.35C81.5731 104.993 83.406 104.084 84.8879 102.732L93.3937 95.0768C96.2465 92.5089 96.0571 88.0062 92.9981 85.683Z" fill="#F4C28C"/>
<path d="M77.5965 76.9357L79.6385 79.1134C78.4888 79.2351 77.3108 78.8481 76.4772 77.9591L74.6191 75.9776C75.6872 75.7827 76.8163 76.1038 77.5965 76.9357Z" fill="#E8D06B"/>
<path d="M103.903 95.573L90.9291 106.391L56.7256 60.0104L63.4588 54.3958L103.903 95.573Z" fill="#F7BC14"/>
<path d="M15.5552 41.0316L26.733 54.2082C34.6595 63.5523 47.1472 68.1439 60.374 66.5772L68.2166 65.6483L70.4839 58.1468C74.3077 45.4955 71.8857 32.511 63.9589 23.1669L52.7811 9.99023L15.5552 41.0316Z" fill="#FED130"/>
<path d="M63.959 23.1671L52.7811 9.99048L44.7959 16.6492L56.5814 30.4817C64.5079 39.8258 66.9301 52.8103 63.1064 65.4616L62.858 66.2831L68.2167 65.6485L70.484 58.147C74.3076 45.496 71.8855 32.5115 63.959 23.1671Z" fill="#F7BC14"/>
<path d="M56.2993 11.3852L16.3376 44.7076C16.0581 44.9406 15.6967 45.054 15.3328 45.0229C14.9689 44.9918 14.6324 44.8186 14.3973 44.5415L11.8686 41.5604C11.6335 41.2832 11.5191 40.9249 11.5505 40.5641C11.5819 40.2034 11.7566 39.8698 12.0361 39.6366L51.9977 6.31429C52.2773 6.08124 52.6387 5.96782 53.0026 5.99896C53.3665 6.0301 53.7029 6.20326 53.9381 6.48036L56.4668 9.46147C56.5833 9.59867 56.6713 9.75727 56.7259 9.92822C56.7805 10.0992 56.8006 10.2791 56.785 10.4577C56.7695 10.6364 56.7186 10.8102 56.6352 10.9694C56.5519 11.1285 56.4378 11.2698 56.2993 11.3852Z" fill="#FFB125"/>
<path d="M56.4673 9.46147L53.9386 6.48036C53.7035 6.20326 53.367 6.0301 53.0031 5.99896C52.6392 5.96782 52.2778 6.08124 51.9982 6.31429L44.9385 12.2011L49.2401 17.272L56.2998 11.3852C56.4383 11.2698 56.5524 11.1285 56.6357 10.9694C56.7191 10.8102 56.77 10.6364 56.7856 10.4577C56.8011 10.2791 56.781 10.0992 56.7264 9.92822C56.6718 9.75727 56.5838 9.59867 56.4673 9.46147Z" fill="#FF901D"/>
<path d="M43.9116 36.5768L51.0637 39.6846C51.1088 39.7043 51.1582 39.7127 51.2074 39.7092C51.2566 39.7058 51.3042 39.6905 51.3461 39.6647L57.9829 35.5852C58.1972 35.4536 58.4708 35.6226 58.4459 35.8713L57.6749 43.5756C57.665 43.6744 57.7048 43.7718 57.7811 43.8357L63.7451 48.833C63.9378 48.9943 63.8601 49.3047 63.6138 49.3581L55.9852 51.0118C55.937 51.0223 55.8921 51.0442 55.8544 51.0757C55.8166 51.1072 55.7872 51.1473 55.7686 51.1926L52.8178 58.3606C52.7225 58.5922 52.4007 58.6148 52.2734 58.3989L48.3297 51.7167C48.3048 51.6745 48.2699 51.6389 48.228 51.6131C48.1861 51.5872 48.1385 51.5718 48.0893 51.5683L40.3015 51.0009C40.0499 50.9826 39.9288 50.6863 40.0965 50.4996L45.2877 44.7161C45.3205 44.6796 45.3439 44.6357 45.3557 44.5882C45.3676 44.5407 45.3676 44.491 45.3558 44.4436L43.4934 36.9248C43.4338 36.6824 43.6806 36.4765 43.9116 36.5768Z" fill="white"/>
<path d="M113.616 94.6434L89.2469 114.964C88.1891 115.846 86.5874 115.59 85.8635 114.423L81.8357 107.928C81.5517 107.47 81.443 106.926 81.5294 106.395C81.6159 105.865 81.8917 105.382 82.3066 105.036L104.94 86.1629C105.355 85.8169 105.882 85.6301 106.424 85.6366C106.966 85.6432 107.488 85.8426 107.894 86.1985L113.658 91.2461C114.694 92.153 114.674 93.7611 113.616 94.6434Z" fill="#FFB125"/>
<path d="M113.658 91.2454L107.894 86.1978C107.488 85.842 106.966 85.6427 106.424 85.6362C105.882 85.6296 105.355 85.8163 104.94 86.1623L98.3364 91.6691L107.529 99.7193L113.616 94.6432C114.674 93.761 114.694 92.1528 113.658 91.2454Z" fill="#FF901D"/>
<path d="M88.9637 94.7195C90.6143 96.4824 93.394 96.5843 95.1713 94.9472L100.669 89.8835C102.445 88.2473 102.548 85.4932 100.898 83.7312C99.2478 81.9683 96.4682 81.8664 94.6908 83.5035L89.1931 88.5672C87.4167 90.2034 87.3138 92.9575 88.9637 94.7195Z" fill="#F4C28C"/>
<path d="M89.1932 88.5672L94.6908 83.5035C96.4682 81.8664 99.2479 81.9683 100.898 83.7312C101.855 84.7535 102.222 86.1094 102.014 87.3875C100.342 85.9746 97.8306 85.9957 96.1814 87.5146L90.6838 92.5782C89.9663 93.2376 89.4925 94.1165 89.3383 95.0743C89.2065 94.9634 89.0814 94.845 88.9635 94.7197C87.3139 92.9577 87.4167 90.2036 89.1932 88.5672Z" fill="#FED9A8"/>
<path d="M84.5595 86.8623C86.235 88.6516 89.0567 88.7552 90.8609 87.0934L96.2614 82.1192C98.0646 80.4582 98.169 77.6625 96.4942 75.874C94.8187 74.0846 91.997 73.9811 90.1929 75.6429L84.7924 80.6171C82.9892 82.278 82.8847 85.0735 84.5595 86.8623Z" fill="#F4C28C"/>
<path d="M84.7924 80.6168L90.1929 75.6426C91.9973 73.9808 94.8187 74.0843 96.4942 75.8737C97.454 76.8989 97.8283 78.2547 97.6345 79.5384C95.9371 78.0737 93.3636 78.085 91.6778 79.6376L86.2773 84.6118C85.5368 85.2922 85.0525 86.2025 84.9041 87.1926C84.7834 87.0887 84.6683 86.9784 84.5595 86.8622C82.8847 85.0735 82.9892 82.278 84.7924 80.6168Z" fill="#FED9A8"/>
<path d="M78.4633 80.4401C80.1387 82.2295 82.9605 82.3331 84.7646 80.6712L90.1651 75.6971C91.9683 74.0361 92.0727 71.2403 90.3979 69.4519C88.7225 67.6625 85.9008 67.5589 84.0966 69.2208L78.6961 74.195C76.8929 75.8561 76.7887 78.6517 78.4633 80.4401Z" fill="#F4C28C"/>
<path d="M78.6963 74.195L84.0968 69.2208C85.9012 67.5589 88.7226 67.6625 90.3981 69.4519C90.5137 69.5753 90.62 69.704 90.7187 69.8363C89.7038 69.9058 88.7438 70.3188 87.9994 71.0063L82.5989 75.9805C80.92 77.5268 80.7145 80.0563 82.0454 81.8412C80.7461 81.9316 79.4186 81.4604 78.4634 80.4401C76.7886 78.6517 76.8928 75.8561 78.6963 74.195Z" fill="#FED9A8"/>
<path d="M72.5927 73.7778C74.2681 75.5672 77.0898 75.6707 78.894 74.0089L84.2945 69.0347C86.0977 67.3738 86.2021 64.578 84.5273 62.7895C82.8519 61.0001 80.0302 60.8966 78.226 62.5584L72.8255 67.5326C71.0223 69.1935 70.9181 71.9893 72.5927 73.7778Z" fill="#F4C28C"/>
<path d="M72.8255 67.5326L78.226 62.5584C80.0304 60.8966 82.8519 61.0001 84.5273 62.7895C85.4862 63.8136 85.8607 65.1677 85.6683 66.4501C83.9709 64.9826 81.3953 64.9931 79.7084 66.5468L74.3079 71.521C73.5664 72.2023 73.0817 73.1141 72.9341 74.1056C72.8145 74.0024 72.7006 73.8931 72.5927 73.778C70.9181 71.9893 71.0223 69.1935 72.8255 67.5326Z" fill="#FED9A8"/>
<path d="M82.9111 77.1605L81.9095 78.083C80.3339 79.5344 77.9022 79.4789 76.4772 77.9593L73.9558 75.2703C72.7215 73.9539 70.613 73.9129 69.2566 75.1787C70.0157 86.8236 53.5635 89.0632 53.5635 89.0632L60.5563 72.0098C60.9903 70.7332 61.7354 69.5825 62.7254 68.6596L67.6917 64.0255C70.1062 61.7726 73.8589 61.8442 76.0576 64.1857L83.1823 71.7728C84.6108 73.2933 84.4892 75.7069 82.9111 77.1605Z" fill="#FED9A8"/>
</g>
<defs>
<clipPath id="clip0_1_6573">
<rect width="117" height="116" fill="white" transform="translate(0.700684 0.986328)"/>
</clipPath>
</defs>
</svg>
